<svg xmlns="http://www.w3.org/2000/svg" xmlns:xlink="http://www.w3.org/1999/xlink" width="633" height="389" viewBox="0 0 633 389">
  <defs>
    <clipPath id="clip-path">
      <rect id="長方形_646" data-name="長方形 646" width="405.858" height="82.484"/>
    </clipPath>
    <clipPath id="clip-AST">
      <rect width="633" height="389"/>
    </clipPath>
  </defs>
  <g id="AST" clip-path="url(#clip-AST)">
    <rect width="633" height="389" fill="#fff"/>
    <g id="グループ_909" data-name="グループ 909">
      <rect id="長方形_261" data-name="長方形 261" width="632.995" height="389" transform="translate(0)" fill="none"/>
    </g>
    <g id="グループ_1514" data-name="グループ 1514" transform="translate(108.981 140.508)">
      <g id="グループ_1400" data-name="グループ 1400" transform="translate(0 0)">
        <g id="グループ_1399" data-name="グループ 1399" clip-path="url(#clip-path)">
          <path id="パス_955" data-name="パス 955" d="M209.336,51.028c-2.253,18.9-12.534,18.111-28,18.111-.781-.095-4.7.1-4.7-1.273V41.627c9.789,0,15.763.027,15.47,11.773h1.468V27.7h-1.554c.3,9.206-4.464,11.776-12.252,11.776h-3.132V7.652c0-.1.391-.2.586-.2a23.182,23.182,0,0,1,5.192-.293c13.8,0,21.438.293,23.691,15.47l1.468-.1V5.109H157.543V6.574l5.266.358L130.676,61.792c-.947,1.616-3.845,5.959-4.056,6.246-.894,1.19-2.436,1.1-3.8,1.1-9.6,0-1.166-19.091-11.45-27.806a22.271,22.271,0,0,0-12.039-4.9c9.008-.488,20.168-5.58,20.168-15.858,0-14.1-14.982-15.47-25.553-15.47H67.7V6.574c1.077.1,8.712.1,8.712,1.667V68.064c0,1.566-7.634,1.566-8.712,1.661V71.2H95.508V69.725c-1.078-.095-8.712-.095-8.712-1.661V37.121c4.7,0,11.355-.586,14.881,3.236,8.91,9.5-2.057,30.84,18.211,30.84h18.235V69.725c-.882-.095-8.419-.488-8.419-1.664,0,0,14.6-24.937,15.482-26.435h21.068V68.061c0,.2-.488.391-.589.391-2.347.885-5.479.98-8.025,1.178l-.1,1.566H210.8V51.028ZM86.7,34.969V7.652c0-.488,1.27-.488,1.468-.488l4.5.1c10.379.2,15.47,2.448,15.47,13.807,0,11.453-6.169,13.9-16.45,13.9Zm79.556,4.505H146.448c5.024-8.579,18.96-32.367,18.96-32.367l.847.056Z" transform="translate(132.714 10.014)"/>
          <path id="パス_956" data-name="パス 956" d="M119.838,5.109V22.536l1.468.1c1.347-9.514,5.228-15.328,16.349-15.328.687,0,2.549-.041,2.549.935V68.064c0,1.566-7.738,1.566-8.718,1.664V71.2H159.3V69.728c-.98-.1-8.715-.1-8.715-1.664V8.241c0-.977,1.862-.935,2.546-.935,11.122,0,15.005,5.814,16.352,15.328l1.468-.1V5.109Z" transform="translate(234.911 10.014)"/>
          <path id="パス_957" data-name="パス 957" d="M46.175,5.109V22.536l1.468.1C48.99,13.119,52.874,7.305,63.993,7.305c.687,0,2.549-.041,2.549.935V68.064c0,1.566-7.738,1.566-8.715,1.664V71.2H85.632V69.728c-.977-.1-8.712-.1-8.712-1.664V8.241c0-.977,1.859-.935,2.546-.935,11.119,0,15,5.814,16.349,15.328l1.471-.1V5.109Z" transform="translate(90.514 10.014)"/>
          <path id="パス_958" data-name="パス 958" d="M49.534,73.314c-5.971,0-10.476-2.054-15.565-4.8-1.761.2-3.25,2.155-3.839,3.526H28.484V52.166h1.664c1.667,10.672,7.637,18.9,19.292,18.9,7.732,0,14.683-4.7,14.683-13.025,0-13.413-26.044-16.838-31.914-24.378a15.865,15.865,0,0,1-3.333-9.89c0-10.769,7.836-19.094,18.7-19.094,5.385,0,13.217,4.017,13.608,4.017a3.723,3.723,0,0,0,3.33-2.741h1.566V23.428H64.321c-.823-9.437-7.182-16.5-16.645-16.5-6.758,0-12.827,4.408-12.827,11.554,0,14.2,35.248,11.163,35.248,33.584,0,11.945-8.419,21.246-20.562,21.246" transform="translate(55.835 9.169)"/>
          <path id="パス_959" data-name="パス 959" d="M62.206,78.275,54.525,0H52.077L13.351,66.12c-1.2,2.057-7.534,13.158-8.75,13.232L0,79.74v1.471H17.468V79.74c-.882-.095-8.407-.488-8.407-1.661,0-.006,14.6-24.94,15.479-26.438h24.25s1.871,20.325,2.256,26.533v.03c-.009.281-.417.509-1.057.693-2.507.5-8.511.844-8.537.844v1.471h28.1V79.74c-1.172-.095-7.247-.095-7.344-1.465M25.8,49.489,44.753,17.122l.69.044,3.141,32.323Z" transform="translate(0 -0.001)"/>
        </g>
      </g>
    </g>
  </g>
</svg>
