<svg xmlns="http://www.w3.org/2000/svg" xmlns:xlink="http://www.w3.org/1999/xlink" width="633" height="389" viewBox="0 0 633 389">
  <defs>
    <clipPath id="clip-path">
      <rect id="長方形_695" data-name="長方形 695" width="431.6" height="124.049" fill="none"/>
    </clipPath>
    <clipPath id="clip-CGS">
      <rect width="633" height="389"/>
    </clipPath>
  </defs>
  <g id="CGS" clip-path="url(#clip-CGS)">
    <rect width="633" height="389" fill="#fff"/>
    <g id="グループ_1526" data-name="グループ 1526">
      <rect id="長方形_262" data-name="長方形 262" width="632.995" height="389" fill="none"/>
    </g>
    <g id="グループ_1580" data-name="グループ 1580" transform="translate(101 134.876)" clip-path="url(#clip-path)">
      <path id="パス_1280" data-name="パス 1280" d="M213.494,100.028a.63.63,0,0,0-.6-.45,2.141,2.141,0,0,1-1.748-.6,4.523,4.523,0,0,1-.527-2.705V71.409a2.6,2.6,0,0,0-.457-1.657A2.166,2.166,0,0,0,209.084,69a.636.636,0,0,0-.511.065,6.136,6.136,0,0,1-1.2.5,16.06,16.06,0,0,1-1.8.479c-.641.132-1.274.244-1.884.331a10.35,10.35,0,0,1-1.388.129.629.629,0,0,0-.52.275,2.949,2.949,0,0,0-.437.976,4.487,4.487,0,0,0-.116,1.053.631.631,0,0,0,.63.631,7.141,7.141,0,0,1,1.8.18,1.864,1.864,0,0,1,.847.441,1.209,1.209,0,0,1,.325.66,8.231,8.231,0,0,1,.089,1.3V96.274a4.254,4.254,0,0,1-.564,2.688,2.216,2.216,0,0,1-1.456.577c-2.433-.03-2.447-1.233-2.485-1.437-.073-.4-.163-7.783-.163-7.783,0-1.089-.034-2.052-.1-2.861a15.048,15.048,0,0,0-.331-2.2,6.632,6.632,0,0,0-.677-1.777,6.113,6.113,0,0,0-1.153-1.426c-.176-.154-5.737-3.382-11.239-.479a8.7,8.7,0,0,0-3.386,3.329,20.717,20.717,0,0,1,.25-2.4.631.631,0,0,0-.263-.629,7.018,7.018,0,0,0-1.76-.892,6.288,6.288,0,0,0-2-.3,6.406,6.406,0,0,0-3.761,1.154,10.655,10.655,0,0,0-1.979,1.812c.012-.245.017-.5.017-.754a2.981,2.981,0,0,0-.446-1.8,2.122,2.122,0,0,0-1.085-.791.632.632,0,0,0-.447.03,10.654,10.654,0,0,1-1.324.49c-.524.16-1.088.308-1.677.44s-1.195.252-1.792.356a14.771,14.771,0,0,1-1.58.194.632.632,0,0,0-.484.275,2.952,2.952,0,0,0-.436.974,4.462,4.462,0,0,0-.1.867q-.247-.352-.522-.677A8.341,8.341,0,0,0,161,81.073a10.7,10.7,0,0,0-4.345-.8,10.9,10.9,0,0,0-4.521.914,9.947,9.947,0,0,0-3.416,2.511,11.523,11.523,0,0,0-2.137,3.633c-.134.368-.248.743-.347,1.126a9.99,9.99,0,0,0-.612-3.676,6.511,6.511,0,0,0-1.722-2.5,6.733,6.733,0,0,0-2.5-1.372,10.135,10.135,0,0,0-5.452-.069,11.39,11.39,0,0,0-2.137.837,9.926,9.926,0,0,0-1.709,1.111c-.16.132-.312.263-.45.4,0-.1,0-.2,0-.292a2.981,2.981,0,0,0-.446-1.8,2.117,2.117,0,0,0-1.085-.791.632.632,0,0,0-.447.03,10.651,10.651,0,0,1-1.324.49c-.524.16-1.088.308-1.677.44s-1.195.252-1.792.356a14.774,14.774,0,0,1-1.58.194.632.632,0,0,0-.484.275,2.954,2.954,0,0,0-.436.974,4.416,4.416,0,0,0-.117,1.053v.007a9.027,9.027,0,0,0-.646-.869,8.347,8.347,0,0,0-2.981-2.177,10.69,10.69,0,0,0-4.344-.8,10.9,10.9,0,0,0-4.522.914,9.955,9.955,0,0,0-3.415,2.511,11.443,11.443,0,0,0-1.98,3.258.627.627,0,0,0-.1-.137.642.642,0,0,0-.47-.171q-.779.045-2.484.067c-2.294.031-4.178.031-6.534,0-1.165-.014-2.058-.052-2.656-.11a.625.625,0,0,0-.485.16.633.633,0,0,0-.207.467,9.725,9.725,0,0,0,.08,1.209,4.37,4.37,0,0,0,.264,1.109.63.63,0,0,0,.562.391,17.692,17.692,0,0,1,2.137.174,1.654,1.654,0,0,1,.931.406,1.854,1.854,0,0,1,.42,1,15.029,15.029,0,0,1,.138,2.314v2.261a4.2,4.2,0,0,1-.325,2.065,1.8,1.8,0,0,1-.944.737,9.06,9.06,0,0,1-2.188.55,22.549,22.549,0,0,1-2.562.132,10.568,10.568,0,0,1-4.953-1.1,10.394,10.394,0,0,1-3.531-3.007,13.348,13.348,0,0,1-2.138-4.512,21.474,21.474,0,0,1-.716-5.622,14.275,14.275,0,0,1,.707-4.482,10.764,10.764,0,0,1,2.117-3.738,10.36,10.36,0,0,1,3.6-2.6,12.7,12.7,0,0,1,5.21-.985,14.5,14.5,0,0,1,3.02.3,5.878,5.878,0,0,1,2.339,1.04,5.168,5.168,0,0,1,1.574,2.1,10.264,10.264,0,0,1,.711,3.638.631.631,0,0,0,.631.6,8.661,8.661,0,0,0,2.815-.441.631.631,0,0,0,.425-.6c0-1.353.033-2.594.1-3.693a20.7,20.7,0,0,1,.43-3.18.63.63,0,0,0-.368-.714,26.659,26.659,0,0,0-5.374-1.578,35.475,35.475,0,0,0-6.694-.6,21.413,21.413,0,0,0-6.5,1,17.924,17.924,0,0,0-5.666,2.977,14.72,14.72,0,0,0-4.038,4.98,15.262,15.262,0,0,0-1.522,6.952,18.784,18.784,0,0,0,1.2,6.853,14.963,14.963,0,0,0,3.446,5.284,15.57,15.57,0,0,0,5.336,3.393,18.91,18.91,0,0,0,6.852,1.2,27.291,27.291,0,0,0,7.665-1,19.943,19.943,0,0,0,5.6-2.5.633.633,0,0,0,.189-.839,3.511,3.511,0,0,1-.44-1.23,10.209,10.209,0,0,1-.116-1.618V93.833c0-1,.025-1.795.073-2.366a2.526,2.526,0,0,1,.257-1.063.614.614,0,0,1,.356-.308,4.789,4.789,0,0,1,1.037-.155,12.937,12.937,0,0,0-.124,1.722,14.138,14.138,0,0,0,.67,4.378,9.724,9.724,0,0,0,5.569,6.1,12.03,12.03,0,0,0,4.833.913,13.85,13.85,0,0,0,5.108-.9,9.907,9.907,0,0,0,2.831-1.765,7.676,7.676,0,0,0-.166,1.766.631.631,0,0,0,.2.464.64.64,0,0,0,.48.164c.7-.06,1.6-.1,2.666-.111,2.156-.031,4.108-.039,6.3.022q1.643.045,2.673.09a.628.628,0,0,0,.464-.173.636.636,0,0,0,.194-.457,10.977,10.977,0,0,0-.053-1.154,4.325,4.325,0,0,0-.232-1,.628.628,0,0,0-.592-.415,2.949,2.949,0,0,1-2.186-.623,4.133,4.133,0,0,1-.58-2.681V91.437a9.759,9.759,0,0,1,.479-3.288,6.705,6.705,0,0,1,1.188-2.13,4.141,4.141,0,0,1,1.538-1.141,4.887,4.887,0,0,1,3.358-.119,2.858,2.858,0,0,1,1.195.744,3.675,3.675,0,0,1,.813,1.451,8.092,8.092,0,0,1,.314,2.45v6.872c0,1.659-.344,2.361-.634,2.658a2.913,2.913,0,0,1-2.133.646.633.633,0,0,0-.588.4,6.234,6.234,0,0,0-.29,2.173.63.63,0,0,0,.194.455.614.614,0,0,0,.462.175q1.131-.045,2.726-.09c2.122-.06,4.173-.053,6.006-.022.9.014,1.715.051,2.42.111h.053a.629.629,0,0,0,.63-.63,10.893,10.893,0,0,0-.054-1.152,4.292,4.292,0,0,0-.168-.737,10.277,10.277,0,0,0,2.9,1.878,12.023,12.023,0,0,0,4.832.913,13.85,13.85,0,0,0,5.108-.9,9.8,9.8,0,0,0,2.658-1.62,8.086,8.086,0,0,0-.137,1.621.633.633,0,0,0,.689.629c.318-.03.715-.051,1.194-.066s1.031-.03,1.623-.044,1.187-.022,1.805-.022h1.822q1.718,0,3.39.022c1.1.014,2.027.052,2.765.111h.05a.631.631,0,0,0,.631-.63,6.2,6.2,0,0,0-.29-2.172.627.627,0,0,0-.563-.4,9.44,9.44,0,0,1-1.865-.23,2.222,2.222,0,0,1-1.062-.58A2.577,2.577,0,0,1,174.1,97.6a8.834,8.834,0,0,1-.223-2.229V90.607a6.58,6.58,0,0,1,.357-1.85,8.741,8.741,0,0,1,.982-1.911,4.661,4.661,0,0,1,1.19-1.216,1.918,1.918,0,0,1,1.027-.39,1.593,1.593,0,0,1,1.2.489,6.117,6.117,0,0,1,.584,2.858.63.63,0,0,0,.63.6,9.835,9.835,0,0,0,1.711-.146,11.286,11.286,0,0,0,1.28-.288.584.584,0,0,0,.081-.04,4.314,4.314,0,0,0,1.058-.234l4-1.3a1.162,1.162,0,0,0,.815-1.224c-.031-.47.254-1.732,2.19-2.344a2.618,2.618,0,0,1,2.742.938,4.378,4.378,0,0,1,.449.673,2.592,2.592,0,0,1,.249.819c.061.389.108.878.14,1.452.025.475.042,1.058.046,1.737-.9.141-1.941.32-3.116.532a20.062,20.062,0,0,0-4.229,1.263,11.274,11.274,0,0,0-3.564,2.352,5.485,5.485,0,0,0-1.574,4.046,4.878,4.878,0,0,0,1.821,4.021,8.12,8.12,0,0,0,5.147,1.406,9.088,9.088,0,0,0,3.065-.467,7.436,7.436,0,0,0,2.211-1.216,9.085,9.085,0,0,0,.7-.629c.05.62.1,2.161.561,2.274a3.73,3.73,0,0,0,1.715-.061c1.47-.106,2.717.052,4.434,0a.607.607,0,0,0,.134.025h.047c.8-.059,1.711-.1,2.7-.111,2-.031,3.869-.031,5.768,0,.935.014,1.835.052,2.674.111a.646.646,0,0,0,.475-.167.632.632,0,0,0,.2-.462c0-.223-.018-.535-.052-.935a6.055,6.055,0,0,0-.22-1.188M109.934,87.175a6.255,6.255,0,0,1,1.041-2.146A3.215,3.215,0,0,1,112.31,84a4.32,4.32,0,0,1,1.55-.3,3.136,3.136,0,0,1,2.818,1.563,7.822,7.822,0,0,1,1.068,3.868h-8.132a12.531,12.531,0,0,1,.321-1.958m16.031,9.1a4.132,4.132,0,0,1-.58,2.681,2.834,2.834,0,0,1-2.053.616c.154-.164.314-.316.464-.492a.631.631,0,0,0,.127-.574,2.694,2.694,0,0,0-.57-1.01,3.469,3.469,0,0,0-.905-.772.633.633,0,0,0-.774.115,7.492,7.492,0,0,1-2.591,1.817,7.677,7.677,0,0,1-2.958.606,6.322,6.322,0,0,1-3.227-.727,5.7,5.7,0,0,1-1.976-1.914,8.516,8.516,0,0,1-1.076-2.735,11.531,11.531,0,0,1-.187-1.221q1.215-.065,2.493-.1h.008c1.5-.059,2.957-.1,4.341-.112s2.645-.022,3.761-.022h2.512a.627.627,0,0,0,.479-.222,4.066,4.066,0,0,0,.875-1.812.572.572,0,0,0,.013-.183,15.741,15.741,0,0,0-.745-3.791,9.844,9.844,0,0,0-.78-1.753.64.64,0,0,0,.263.073,8.1,8.1,0,0,1,1.8.224,2,2,0,0,1,.841.433,1.228,1.228,0,0,1,.339.651,6.313,6.313,0,0,1,.11,1.272Zm20.274,0V95.1c.078.318.163.634.263.943a10.036,10.036,0,0,0,1.993,3.536,2.228,2.228,0,0,1-1.706-.582c-.206-.228-.55-.886-.55-2.721m6.052-9.1a6.255,6.255,0,0,1,1.04-2.146A3.218,3.218,0,0,1,154.668,84a4.308,4.308,0,0,1,1.548-.3,3.133,3.133,0,0,1,2.818,1.563,7.823,7.823,0,0,1,1.068,3.868H151.97a12.363,12.363,0,0,1,.322-1.958m15.886,9.1c0,1.757-.344,2.4-.55,2.63a3.014,3.014,0,0,1-1.919.644c.147-.158.3-.3.443-.47a.635.635,0,0,0,.128-.574,2.73,2.73,0,0,0-.57-1.01,3.512,3.512,0,0,0-.905-.772.634.634,0,0,0-.775.115,7.5,7.5,0,0,1-2.589,1.817,7.683,7.683,0,0,1-2.96.606,6.317,6.317,0,0,1-3.226-.727,5.687,5.687,0,0,1-1.977-1.914,8.514,8.514,0,0,1-1.075-2.735,11.233,11.233,0,0,1-.188-1.221q1.215-.065,2.493-.1h.008c1.5-.059,2.958-.1,4.341-.112s2.647-.022,3.762-.022h2.511a.631.631,0,0,0,.48-.222,4.08,4.08,0,0,0,.875-1.812.614.614,0,0,0,.012-.183,15.739,15.739,0,0,0-.745-3.791,9.858,9.858,0,0,0-.746-1.7.63.63,0,0,0,.086.02,8.1,8.1,0,0,1,1.8.224,1.994,1.994,0,0,1,.84.433,1.221,1.221,0,0,1,.34.651,6.308,6.308,0,0,1,.11,1.272Zm26.429-2.922a7.561,7.561,0,0,1-.421,2.695,5.312,5.312,0,0,1-1.064,1.764,4.163,4.163,0,0,1-1.376.987,2.641,2.641,0,0,1-2.974-.3,2.529,2.529,0,0,1-.664-1.974,2.907,2.907,0,0,1,.605-1.968,4.626,4.626,0,0,1,1.655-1.216,10.392,10.392,0,0,1,2.345-.7c.648-.119,1.282-.218,1.894-.3Z" transform="translate(21.962 20.996)" fill="#3b2e1f"/>
      <path id="パス_1281" data-name="パス 1281" d="M203.851,86.125a24.749,24.749,0,0,0-3.765-2.088,37.3,37.3,0,0,1-3.611-1.844,11.1,11.1,0,0,1-2.68-2.137,4.055,4.055,0,0,1-.971-2.834,3.69,3.69,0,0,1,1.075-2.881,4.395,4.395,0,0,1,3.072-1.01,4.875,4.875,0,0,1,1.548.239,2.95,2.95,0,0,1,1.22.807,5.451,5.451,0,0,1,1.029,1.741,18.892,18.892,0,0,1,.854,3.082.631.631,0,0,0,.618.5,12.909,12.909,0,0,0,1.526-.1,5.556,5.556,0,0,0,1.475-.36.632.632,0,0,0,.38-.682,22.209,22.209,0,0,1-.239-2.857c-.034-1.139-.048-2.142-.048-3.012a.63.63,0,0,0-.256-.506,10.692,10.692,0,0,0-3.193-1.474,16.8,16.8,0,0,0-4.915-.639,11.98,11.98,0,0,0-3.874.6,8.813,8.813,0,0,0-3.05,1.756,8.225,8.225,0,0,0-2,2.741,8.412,8.412,0,0,0-.721,3.493,8.634,8.634,0,0,0,1.238,4.822,10.948,10.948,0,0,0,3,3.046,21.812,21.812,0,0,0,3.8,2.049,39.773,39.773,0,0,1,3.637,1.735,9.917,9.917,0,0,1,2.664,2.06,4.122,4.122,0,0,1,.972,2.88,3.723,3.723,0,0,1-1.224,2.79,4.571,4.571,0,0,1-1.517.891,6.33,6.33,0,0,1-2.194.344,9.087,9.087,0,0,1-3.2-.477A4.581,4.581,0,0,1,192.6,97.5a5.734,5.734,0,0,1-1.085-2.1,13.347,13.347,0,0,1-.468-2.934.63.63,0,0,0-.629-.595c-.445,0-.929.023-1.437.07a9.221,9.221,0,0,0-1.376.22.631.631,0,0,0-.477.61c0,.818-.023,1.813-.073,2.957a26.312,26.312,0,0,1-.361,3.356.63.63,0,0,0,.3.65c.926.548,1.778,1.011,2.53,1.38a15.621,15.621,0,0,0,2.31.918,14.739,14.739,0,0,0,2.521.519,25.918,25.918,0,0,0,3.1.164,12.015,12.015,0,0,0,4.209-.719,10.61,10.61,0,0,0,3.351-1.971,9.473,9.473,0,0,0,2.242-2.931,8.038,8.038,0,0,0,.827-3.554,7.679,7.679,0,0,0-1.247-4.475,11.5,11.5,0,0,0-2.995-2.941" transform="translate(56.829 21.333)" fill="#3b2e1f"/>
      <path id="パス_1282" data-name="パス 1282" d="M215.423,97.378a4.5,4.5,0,0,1-1.274.715,4.766,4.766,0,0,1-1.587.236A1.775,1.775,0,0,1,211,97.571a5.243,5.243,0,0,1-.618-2.953V83.842a41.9,41.9,0,0,1,5.3-.484.633.633,0,0,0,.553-.373,5.511,5.511,0,0,0,.5-2.246.631.631,0,0,0-.631-.63h-5.722V75.314q0-.747-.027-1.169a2.753,2.753,0,0,0-.166-.852,1.436,1.436,0,0,0-.451-.63,2.1,2.1,0,0,0-.557-.291.626.626,0,0,0-.61.1,9.477,9.477,0,0,1-1.615,1.015,8.1,8.1,0,0,1-1.826.672.631.631,0,0,0-.491.614v5.338h-2.473a.631.631,0,0,0-.574.369,5.8,5.8,0,0,0-.385,1.092,5.248,5.248,0,0,0-.115,1.158.63.63,0,0,0,.583.629c.8.06,1.463.133,1.959.219.339.059.676.13,1,.217V95.567c0,2.246.527,3.9,1.567,4.925a6.593,6.593,0,0,0,4.777,1.538,9.654,9.654,0,0,0,3.372-.627,7.138,7.138,0,0,0,2.645-1.6.627.627,0,0,0,.175-.517,3.241,3.241,0,0,0-.905-1.847.631.631,0,0,0-.849-.064" transform="translate(61.215 22.019)" fill="#3b2e1f"/>
      <path id="パス_1283" data-name="パス 1283" d="M236.158,89.025a12.821,12.821,0,0,0-.806-4.611,10.006,10.006,0,0,0-6.058-5.972,14.088,14.088,0,0,0-4.9-.807,12.775,12.775,0,0,0-4.74.858,11.212,11.212,0,0,0-3.729,2.4,10.8,10.8,0,0,0-2.431,3.624,11.743,11.743,0,0,0-.861,4.512,12.613,12.613,0,0,0,.832,4.663,10.145,10.145,0,0,0,2.39,3.612,10.678,10.678,0,0,0,3.74,2.308,13.757,13.757,0,0,0,4.8.809,12.9,12.9,0,0,0,4.788-.86,11.107,11.107,0,0,0,3.706-2.373,10.724,10.724,0,0,0,2.408-3.625,11.921,11.921,0,0,0,.86-4.534m-7.516,6.013a4.212,4.212,0,0,1-3.852,1.946,4.949,4.949,0,0,1-4.266-2.2c-1.1-1.525-1.655-3.781-1.655-6.707a9.275,9.275,0,0,1,1.3-5.167,4.132,4.132,0,0,1,3.734-1.843,4.884,4.884,0,0,1,2.292.561,5.8,5.8,0,0,1,1.91,1.654,8.948,8.948,0,0,1,1.355,2.7,11.814,11.814,0,0,1,.511,3.583,10.085,10.085,0,0,1-1.329,5.471" transform="translate(64.728 23.633)" fill="#3b2e1f"/>
      <path id="パス_1284" data-name="パス 1284" d="M255.52,89.927c1.5-.06,2.957-.1,4.34-.114s2.647-.022,3.762-.022h2.512a.63.63,0,0,0,.479-.22,4.073,4.073,0,0,0,.875-1.813.573.573,0,0,0,.013-.183,15.74,15.74,0,0,0-.745-3.791,9.426,9.426,0,0,0-1.77-3.171,8.332,8.332,0,0,0-2.979-2.178,10.693,10.693,0,0,0-4.345-.8,10.9,10.9,0,0,0-4.521.914,9.938,9.938,0,0,0-3.415,2.511,11.083,11.083,0,0,0-.935,1.255,21.14,21.14,0,0,1,.253-2.45.63.63,0,0,0-.263-.629,7.118,7.118,0,0,0-1.758-.892,6.323,6.323,0,0,0-2-.3,6.4,6.4,0,0,0-3.762,1.156,10.654,10.654,0,0,0-1.979,1.812q.018-.368.017-.754a2.979,2.979,0,0,0-.446-1.8,2.114,2.114,0,0,0-1.084-.791.625.625,0,0,0-.447.03,10.821,10.821,0,0,1-1.324.489c-.524.16-1.089.308-1.679.44s-1.195.253-1.792.356a14.434,14.434,0,0,1-1.58.2.636.636,0,0,0-.484.274,2.974,2.974,0,0,0-.436.974,4.5,4.5,0,0,0-.117,1.054.631.631,0,0,0,.608.63,7.939,7.939,0,0,1,1.8.224,1.986,1.986,0,0,1,.841.432,1.234,1.234,0,0,1,.339.651,6.318,6.318,0,0,1,.11,1.272v8.952c0,1.756-.344,2.4-.551,2.63a3.336,3.336,0,0,1-2.245.674.63.63,0,0,0-.56.4,6.217,6.217,0,0,0-.29,2.172.631.631,0,0,0,.689.627q.477-.043,1.194-.065.738-.023,1.623-.046t1.805-.022h1.822q1.72,0,3.39.022c1.1.014,2.028.052,2.765.111l.051,0a.631.631,0,0,0,.631-.63,6.219,6.219,0,0,0-.29-2.172.634.634,0,0,0-.565-.4,9.243,9.243,0,0,1-1.864-.23,2.188,2.188,0,0,1-1.062-.58,2.553,2.553,0,0,1-.626-1.167,8.816,8.816,0,0,1-.224-2.229V87.969a6.531,6.531,0,0,1,.357-1.848,8.681,8.681,0,0,1,.982-1.911,4.641,4.641,0,0,1,1.188-1.217,1.928,1.928,0,0,1,1.028-.39,1.594,1.594,0,0,1,1.2.49c.185.188.507.755.583,2.434a.632.632,0,0,0,.63.6,9.824,9.824,0,0,0,1.711-.146c.088-.014.153-.03.234-.046a12.776,12.776,0,0,0-.38,3.088,14.128,14.128,0,0,0,.672,4.376,9.73,9.73,0,0,0,5.569,6.1,12.052,12.052,0,0,0,4.833.912,13.852,13.852,0,0,0,5.108-.9,10.544,10.544,0,0,0,4.14-3.072.634.634,0,0,0,.127-.575,2.693,2.693,0,0,0-.57-1.008,3.441,3.441,0,0,0-.905-.772.631.631,0,0,0-.774.115,7.489,7.489,0,0,1-2.59,1.816,7.674,7.674,0,0,1-2.958.608,6.336,6.336,0,0,1-3.227-.727,5.686,5.686,0,0,1-1.976-1.915,8.5,8.5,0,0,1-1.076-2.734,11.565,11.565,0,0,1-.187-1.222q1.215-.063,2.493-.1ZM252.974,86.5a12.5,12.5,0,0,1,.321-1.958,6.244,6.244,0,0,1,1.041-2.146,3.23,3.23,0,0,1,1.334-1.029,4.319,4.319,0,0,1,1.55-.3,3.137,3.137,0,0,1,2.817,1.561,7.832,7.832,0,0,1,1.068,3.869Z" transform="translate(69.987 23.633)" fill="#3b2e1f"/>
      <path id="パス_1285" data-name="パス 1285" d="M318.106,73.86c2.2.034,4.294.123,6.24.262a1.492,1.492,0,0,0,1.115-.393,1.475,1.475,0,0,0,.471-1.083c0-.258-.009-.567-.029-.924.406.442.836.346,1.323.734,2.747,2.2,6.829,3.315,12.133,3.315a21.436,21.436,0,0,0,7.229-1.1A17.557,17.557,0,0,0,351.8,71.8c.622-.514,1.166-1.006,1.638-1.482.116,1.461.411,3.928,1.486,4.191a4.435,4.435,0,0,0,3.361-.429c3.371-.864,9.594.031,13.652-.093.494-.014.738-.5.951-.951.381-.794-.346-4.541-.346-5.389a1.48,1.48,0,0,0-1.479-1.481c-4.4,0-4.912-2.868-5-3.358-.174-.951-.387-16.6-.387-16.6,0-2.568-.078-4.837-.235-6.741a35.505,35.505,0,0,0-.783-5.184,15.654,15.654,0,0,0-1.6-4.186,14.4,14.4,0,0,0-2.718-3.363c-.413-.363-13.526-7.973-26.5-1.127-6.109,3.223-10.81,9.728-8.768,15.252.858,2.322,2.763,1.681,2.763,1.681l8.887-3.723a2.735,2.735,0,0,0,1.921-2.883c-.073-1.107.6-4.084,5.165-5.524a6.168,6.168,0,0,1,6.463,2.208,10.289,10.289,0,0,1,1.057,1.586,6.219,6.219,0,0,1,.588,1.931c.145.916.256,2.07.329,3.425.059,1.118.1,2.491.108,4.1-2.112.333-4.576.753-7.347,1.254a47.219,47.219,0,0,0-9.971,2.978,26.511,26.511,0,0,0-8.4,5.544,12.925,12.925,0,0,0-3.714,9.537,14.405,14.405,0,0,0,.317,3.037,4.533,4.533,0,0,1-3.44-1.368c-.564-.717-1.237-2.408-1.237-6.4V26.217a6.192,6.192,0,0,0-1.059-3.9A5.057,5.057,0,0,0,315,20.532a1.488,1.488,0,0,0-1.217.154,14.189,14.189,0,0,1-2.8,1.191,36.993,36.993,0,0,1-4.2,1.13c-1.5.313-2.981.577-4.395.784a24.09,24.09,0,0,1-3.236.305,1.482,1.482,0,0,0-1.229.652,7.036,7.036,0,0,0-1.015,2.3,10.619,10.619,0,0,0-.27,2.482,1.48,1.48,0,0,0,1.479,1.481,16.405,16.405,0,0,1,4.2.425,4.315,4.315,0,0,1,1.974,1.037,2.894,2.894,0,0,1,.758,1.569,19.186,19.186,0,0,1,.211,3.068V58.245c0,3.964-.717,5.645-1.319,6.358-.8.95-2.576,1.451-5.134,1.451a1.423,1.423,0,0,1-1.93-.02,5.092,5.092,0,0,1-4.011-1.374c-.483-.54-1.293-2.095-1.293-6.435V39.862a23.866,23.866,0,0,0-1.427-8.77,15.349,15.349,0,0,0-4.019-5.9,15.626,15.626,0,0,0-5.837-3.241c-4.183-1.268-8.968-1.767-12.739.143a34.394,34.394,0,0,0-4.993,3.071,31.942,31.942,0,0,0-3.994,3.5q-.552.579-1.031,1.137c.005-.235.007-.462.007-.682,0-1.9-.337-5.784-1.037-6.739a4.965,4.965,0,0,0-2.533-1.867,1.49,1.49,0,0,0-1.06.07,24.74,24.74,0,0,1-3.094,1.157c-1.217.378-2.532.727-3.911,1.037-1.4.316-2.789.6-4.186.841a33.015,33.015,0,0,1-3.685.46,1.475,1.475,0,0,0-1.087.591,1.444,1.444,0,0,0-.385-.416,16.473,16.473,0,0,0-4.109-2.109,14.6,14.6,0,0,0-4.67-.719A14.837,14.837,0,0,0,219,24.157a24.858,24.858,0,0,0-4.6,4.255q.039-.865.039-1.769A7.085,7.085,0,0,0,213.4,22.4a4.962,4.962,0,0,0-2.532-1.867,1.487,1.487,0,0,0-1.062.07,24.836,24.836,0,0,1-3.093,1.157c-1.218.377-2.532.727-3.912,1.037q-2.093.473-4.184.841a33.345,33.345,0,0,1-3.686.46,1.481,1.481,0,0,0-1.137.65,7.006,7.006,0,0,0-1.015,2.3,10.615,10.615,0,0,0-.27,2.482,1.481,1.481,0,0,0,1.423,1.479,18.37,18.37,0,0,1,4.187.531,4.594,4.594,0,0,1,1.956,1.017,2.915,2.915,0,0,1,.8,1.542,15.09,15.09,0,0,1,.26,3.011V58.245c0,4.153-.81,5.681-1.291,6.221-.822.918-2.63,1.467-5.229,1.589a1.483,1.483,0,0,0-1.314.944,18.337,18.337,0,0,0-.674,5.648,1.477,1.477,0,0,0,1.479,1.479c.046,0,.091,0,.14-.007q1.113-.1,2.784-.154,1.72-.055,3.785-.107t4.214-.052h4.255q4.013,0,7.914.053c2.567.034,4.739.123,6.452.261a1.449,1.449,0,0,0,1.124-.386,1.481,1.481,0,0,0,.476-1.088A18.411,18.411,0,0,0,224.572,67a1.484,1.484,0,0,0-1.327-.95,21.438,21.438,0,0,1-4.35-.543,5.116,5.116,0,0,1-2.471-1.367,6.113,6.113,0,0,1-1.465-2.761,21.194,21.194,0,0,1-.523-5.274l0-11.247a15.776,15.776,0,0,1,.837-4.374,20.727,20.727,0,0,1,2.3-4.517,10.969,10.969,0,0,1,2.777-2.872,4.437,4.437,0,0,1,2.386-.918,3.7,3.7,0,0,1,2.789,1.15c.434.447,1.187,1.791,1.366,5.764a1.482,1.482,0,0,0,1.479,1.413,22.574,22.574,0,0,0,4-.344,26.142,26.142,0,0,0,2.992-.682,1.48,1.48,0,0,0,1.041-1.414c0-1.817.057-3.93.172-6.282.014-.309.035-.6.054-.9a1.446,1.446,0,0,0,.417.1,18.36,18.36,0,0,1,4.187.531,4.6,4.6,0,0,1,1.958,1.017,2.924,2.924,0,0,1,.8,1.542,15.1,15.1,0,0,1,.258,3.011V58.225c0,3.954-.74,5.629-1.361,6.339-.839.96-2.6,1.469-5.091,1.469a1.482,1.482,0,0,0-1.381.946,18.322,18.322,0,0,0-.676,5.648,1.48,1.48,0,0,0,1.606,1.474c1.634-.138,3.727-.227,6.221-.261,5.031-.072,9.589-.091,14.712.052q3.835.106,6.24.213A1.526,1.526,0,0,0,265.6,73.7a1.481,1.481,0,0,0,.458-1.07c0-1.033-.042-2.469-.123-3.248a10.352,10.352,0,0,0-.539-2.366,1.482,1.482,0,0,0-1.393-.98c-2.531,0-4.243-.494-5.094-1.469-.621-.711-1.36-2.386-1.36-6.339V49.3a25.608,25.608,0,0,1,1.121-8.018,20.765,20.765,0,0,1,2.777-5.639,13.3,13.3,0,0,1,3.588-3.479,9.145,9.145,0,0,1,7.82-1.14,6.661,6.661,0,0,1,2.785,1.754,8.773,8.773,0,0,1,1.9,3.429A19.414,19.414,0,0,1,278.272,42V58.225c0,3.921-.807,5.583-1.484,6.287-.968,1.01-2.64,1.521-4.97,1.521a1.477,1.477,0,0,0-1.38.947,18.3,18.3,0,0,0-.674,5.647,1.477,1.477,0,0,0,.454,1.067,1.516,1.516,0,0,0,1.086.411q2.64-.108,6.364-.213Zm34.263-20.494a17.836,17.836,0,0,1-.993,6.352,12.547,12.547,0,0,1-2.511,4.158,9.811,9.811,0,0,1-3.243,2.327c-2.721,1.157-5.09.972-7.01-.712-1.04-.91-1.567-2.476-1.567-4.653a6.865,6.865,0,0,1,1.427-4.642,10.916,10.916,0,0,1,3.9-2.866,24.526,24.526,0,0,1,5.529-1.658c1.527-.278,3.022-.511,4.464-.7Z" transform="translate(58.601 6.225)" fill="#185729"/>
      <path id="パス_1286" data-name="パス 1286" d="M122.323,19.777a8.381,8.381,0,0,0,5.892-2.263A7.191,7.191,0,0,0,130.7,12.1a7.666,7.666,0,0,0-2.353-5.768,8.879,8.879,0,0,0-11.714-.042,7.412,7.412,0,0,0-2.574,5.81,7.292,7.292,0,0,0,2.353,5.446,8.229,8.229,0,0,0,5.912,2.227" transform="translate(34.72 1.252)" fill="#185729"/>
      <path id="パス_1287" data-name="パス 1287" d="M193.426,80.246c2.568.034,4.74.121,6.453.261.04,0,.081.005.12.005a1.478,1.478,0,0,0,1.48-1.48,17.576,17.576,0,0,0-.673-5.525,1.479,1.479,0,0,0-1.325-.948,21.475,21.475,0,0,1-4.349-.544,5.128,5.128,0,0,1-2.473-1.367,6.109,6.109,0,0,1-1.464-2.761,21.171,21.171,0,0,1-.524-5.272V39.137a39.5,39.5,0,0,1,9.1-.942,1.478,1.478,0,0,0,1.242-.676,7.872,7.872,0,0,0,1.137-2.956,15.786,15.786,0,0,0,.25-2.653,1.479,1.479,0,0,0-1.479-1.481H190.671V22.9c0-4.513-1.024-8.008.033-10.387a5.507,5.507,0,0,1,5.325-3.078c4.419,0,6.62,2.511,6.62,4.657a2.958,2.958,0,0,0,2.146,2.1H210.2a3.763,3.763,0,0,0,2.984-1.632,16.613,16.613,0,0,1,2.051-3.917,4.24,4.24,0,0,0-.652-4.569c-.98-1.037-6.919-4.028-8.289-4.581A17.64,17.64,0,0,0,199.9.6c-2.776,0-6.616-.052-9.286.994-2.7,1.058-5.467,3.547-7.833,5.417-2.274,1.8-3.337,4.28-4.29,8.291a58.828,58.828,0,0,0-1.152,12.34l.021,2.79h-6.11a1.484,1.484,0,0,0-1.135.53,8.7,8.7,0,0,0-1.954,5.755,1.48,1.48,0,0,0,1.48,1.481c1.1,0,2.467.07,4.07.207,1.2.1,2.421.269,3.648.492V64.748c0,4.152-.811,5.681-1.291,6.222-.822.918-2.63,1.467-5.229,1.587-.017,0-.03.008-.047.009-1.974,0-4.209-.764-4.945-1.7-.562-.717-1.237-2.408-1.237-6.4V32.439a6.183,6.183,0,0,0-1.059-3.9,5.049,5.049,0,0,0-2.51-1.784,1.486,1.486,0,0,0-1.218.154,14.164,14.164,0,0,1-2.8,1.191,36.985,36.985,0,0,1-4.2,1.13c-1.5.313-2.981.577-4.395.784a24.047,24.047,0,0,1-3.236.3,1.48,1.48,0,0,0-1.229.654,7.006,7.006,0,0,0-1.015,2.3,10.613,10.613,0,0,0-.27,2.482,1.479,1.479,0,0,0,1.479,1.479,16.4,16.4,0,0,1,4.2.427,4.315,4.315,0,0,1,1.974,1.037,2.893,2.893,0,0,1,.758,1.569,19.171,19.171,0,0,1,.211,3.068V64.469c0,3.964-.719,5.645-1.319,6.358-.8.95-3.622,1.449-5.833,1.449-2.6,0-4.817-.473-5.554-1.409-.562-.717-1.234-2.409-1.234-6.4V5.75a6.177,6.177,0,0,0-1.062-3.9A5.06,5.06,0,0,0,133.8.065a1.493,1.493,0,0,0-1.22.157,14.279,14.279,0,0,1-2.794,1.19,37.407,37.407,0,0,1-4.2,1.128c-1.5.313-2.978.577-4.4.785a24.105,24.105,0,0,1-3.234.3,1.481,1.481,0,0,0-1.229.652,7.065,7.065,0,0,0-1.019,2.3,10.752,10.752,0,0,0-.269,2.48,1.48,1.48,0,0,0,1.48,1.481,16.39,16.39,0,0,1,4.2.427A4.294,4.294,0,0,1,123.092,12a2.877,2.877,0,0,1,.758,1.564,19.4,19.4,0,0,1,.211,3.071v47.83c0,3.963-.717,5.645-1.319,6.358-.8.95-2.985,1.569-6.231,1.569-5.45,0-6.3-2.868-6.389-3.358-.173-.951-.387-16.6-.387-16.6,0-2.568-.078-4.837-.235-6.741a35.676,35.676,0,0,0-.783-5.184,15.657,15.657,0,0,0-1.6-4.186,14.4,14.4,0,0,0-2.718-3.363c-.413-.363-13.525-7.973-26.5-1.127C71.8,35.06,67.1,41.565,69.14,47.089,70,49.411,71.9,48.77,71.9,48.77l8.887-3.723a2.735,2.735,0,0,0,1.921-2.883c-.073-1.107.6-4.084,5.164-5.524a6.169,6.169,0,0,1,6.465,2.208A10.287,10.287,0,0,1,95.4,40.435a6.216,6.216,0,0,1,.588,1.931c.145.916.256,2.07.329,3.425.059,1.118.1,2.491.108,4.1-2.112.333-4.576.753-7.346,1.254A47.221,47.221,0,0,0,79.1,54.119a26.512,26.512,0,0,0-8.4,5.544,12.627,12.627,0,0,0-3.664,8.343,6.771,6.771,0,0,0-1.415-1.556,1.482,1.482,0,0,0-1.666-.1,44.964,44.964,0,0,1-10.242,4.443c-8.235,2.448-16.387,2.141-22.566-.823a24.978,24.978,0,0,1-8.689-6.806,31.656,31.656,0,0,1-5.49-10.3,41.628,41.628,0,0,1-1.941-12.888,36.937,36.937,0,0,1,1.494-10.42,25.841,25.841,0,0,1,4.564-8.888,22.165,22.165,0,0,1,7.931-6.152A27.417,27.417,0,0,1,40.8,12.195a26.272,26.272,0,0,1,6.531.754,10.751,10.751,0,0,1,4.708,2.533A12.465,12.465,0,0,1,55.156,20.6a31.544,31.544,0,0,1,1.413,8.861,1.482,1.482,0,0,0,1.481,1.421,22.717,22.717,0,0,0,3.445-.231,17.215,17.215,0,0,0,3.149-.817,1.482,1.482,0,0,0,.981-1.394c0-2.982.057-5.871.171-8.586a38.6,38.6,0,0,1,1.05-7.609,1.479,1.479,0,0,0-.85-1.713A75.822,75.822,0,0,0,53.383,6.283a59.581,59.581,0,0,0-13.5-1.427A47.53,47.53,0,0,0,25.169,7.17a37.025,37.025,0,0,0-12.752,7.118,36.15,36.15,0,0,0-9,11.908A38.314,38.314,0,0,0,0,42.85a43.4,43.4,0,0,0,2.8,15.8,36.749,36.749,0,0,0,7.849,12.4,34.989,34.989,0,0,0,12.061,8.026A40.66,40.66,0,0,0,38.044,81.91a54.176,54.176,0,0,0,8.334-.607,44.26,44.26,0,0,0,7.433-1.822,45.942,45.942,0,0,0,6.95-3.033,64.9,64.9,0,0,0,6.577-4.1,10.98,10.98,0,0,0,3.947,6.334C74.032,80.881,78.113,82,83.418,82a21.423,21.423,0,0,0,7.228-1.1,17.529,17.529,0,0,0,5.212-2.866c.624-.514,1.167-1.006,1.64-1.482.116,1.461.411,3.928,1.486,4.191,2.022.494,4.683-.457,6.067-.457Zm-97-20.655a17.838,17.838,0,0,1-.993,6.352A12.547,12.547,0,0,1,92.923,70.1a9.81,9.81,0,0,1-3.243,2.327c-2.721,1.157-5.09.972-7.01-.712-1.04-.91-1.567-2.476-1.567-4.653a6.858,6.858,0,0,1,1.427-4.642,10.916,10.916,0,0,1,3.9-2.866A24.525,24.525,0,0,1,91.963,57.9c1.526-.278,3.021-.511,4.464-.7Z" transform="translate(0 0.001)" fill="#185729"/>
      <path id="パス_1288" data-name="パス 1288" d="M207.648,47.97a28.9,28.9,0,0,0-1.877-10.557,23.565,23.565,0,0,0-5.449-8.32,24.125,24.125,0,0,0-8.7-5.357,33.407,33.407,0,0,0-11.441-1.852,30.292,30.292,0,0,0-11.073,1.968,26.244,26.244,0,0,0-8.71,5.49,24.756,24.756,0,0,0-5.677,8.3,26.473,26.473,0,0,0-2.006,10.331,28.422,28.422,0,0,0,1.94,10.673,23.268,23.268,0,0,0,5.576,8.273,25.058,25.058,0,0,0,8.736,5.288,32.694,32.694,0,0,0,11.214,1.852,30.638,30.638,0,0,0,11.187-1.968,26.061,26.061,0,0,0,8.655-5.441,24.466,24.466,0,0,0,5.618-8.3,26.855,26.855,0,0,0,2-10.377M192,60.922c-1.638,3.171-4.413,4.9-8.484,5.293a11.684,11.684,0,0,1-10.412-4.063c-2.906-3.235-4.727-8.26-5.408-14.933-.5-4.846.116-8.91,1.818-12.081,1.612-3.007,4.3-4.652,8.235-5.028a11.6,11.6,0,0,1,5.443.763,13.592,13.592,0,0,1,4.82,3.346,20.546,20.546,0,0,1,3.779,5.865,26.669,26.669,0,0,1,2.024,8.061c.524,5.128-.089,9.427-1.816,12.778" transform="translate(46.489 6.662)" fill="#185729"/>
      <path id="パス_1289" data-name="パス 1289" d="M285,19.777a8.383,8.383,0,0,0,5.892-2.263,7.191,7.191,0,0,0,2.484-5.409,7.666,7.666,0,0,0-2.353-5.768,8.881,8.881,0,0,0-11.715-.042,7.411,7.411,0,0,0-2.572,5.81,7.287,7.287,0,0,0,2.353,5.446A8.227,8.227,0,0,0,285,19.777" transform="translate(84.241 1.252)" fill="#185729"/>
    </g>
  </g>
</svg>
