<svg xmlns="http://www.w3.org/2000/svg" xmlns:xlink="http://www.w3.org/1999/xlink" width="633" height="389" viewBox="0 0 633 389">
  <defs>
    <clipPath id="clip-path">
      <rect id="長方形_686" data-name="長方形 686" width="258.96" height="214.598" fill="none"/>
    </clipPath>
    <clipPath id="clip-CITEN">
      <rect width="633" height="389"/>
    </clipPath>
  </defs>
  <g id="CITEN" clip-path="url(#clip-CITEN)">
    <rect width="633" height="389" fill="#fff"/>
    <g id="グループ_1523" data-name="グループ 1523">
      <rect id="長方形_261" data-name="長方形 261" width="632.995" height="389" transform="translate(0)" fill="none"/>
    </g>
    <g id="グループ_1562" data-name="グループ 1562" transform="translate(187 87)">
      <g id="グループ_1561" data-name="グループ 1561" clip-path="url(#clip-path)">
        <path id="パス_1189" data-name="パス 1189" d="M0,28.375V28.22C0,12.706,11.694,0,28.452,0,38.742,0,44.9,3.431,49.968,8.418l-7.64,8.81c-4.209-3.82-8.5-6.159-13.953-6.159-9.2,0-15.824,7.64-15.824,16.994v.157c0,9.354,6.468,17.149,15.824,17.149,6.236,0,10.056-2.495,14.342-6.393l7.64,7.718c-5.613,6-11.849,9.744-22.373,9.744C11.926,56.438,0,44.044,0,28.375"/>
        <rect id="長方形_684" data-name="長方形 684" width="12.004" height="54.568" transform="translate(65.169 0.936)"/>
        <path id="パス_1190" data-name="パス 1190" d="M70.244,11.617h-16.6V.548H98.852V11.617h-16.6v43.5h-12Z" transform="translate(37.955 0.388)"/>
        <path id="パス_1191" data-name="パス 1191" d="M88.242.548H129.4V11.227H100.168V22.3h24.115V32.977H100.168V44.435H129.4V55.116H88.242Z" transform="translate(62.441 0.387)"/>
        <path id="パス_1192" data-name="パス 1192" d="M121.568.548h11.069l25.57,33.6V.548h11.847V55.116h-10.21l-26.427-34.69v34.69H121.568Z" transform="translate(86.022 0.387)"/>
        <path id="パス_1193" data-name="パス 1193" d="M172.518,120.684v.155c0,15.514-11.694,28.22-28.452,28.22-10.29,0-16.449-3.431-21.516-8.419l7.64-8.81c4.209,3.82,8.5,6.159,13.953,6.159,9.2,0,15.824-7.64,15.824-16.994v-.157c0-9.354-6.469-17.15-15.824-17.15-6.236,0-10.056,2.495-14.342,6.393l-7.64-7.718c5.613-6,11.849-9.744,22.373-9.744,16.058,0,27.984,12.394,27.984,28.063" transform="translate(86.442 65.539)"/>
        <rect id="長方形_685" data-name="長方形 685" width="12.004" height="54.568" transform="translate(181.788 159.094)"/>
        <path id="パス_1194" data-name="パス 1194" d="M100.142,136.666h16.6v11.069H71.535V136.666h16.6v-43.5h12Z" transform="translate(50.618 65.927)"/>
        <path id="パス_1195" data-name="パス 1195" d="M80.465,147.736H39.3V137.057H68.539V125.988H44.424V115.307H68.539V103.849H39.3V93.168h41.16Z" transform="translate(27.812 65.926)"/>
        <path id="パス_1196" data-name="パス 1196" d="M50.175,147.736H39.107l-25.57-33.6v33.6H1.69V93.168H11.9l26.427,34.69V93.168H50.175Z" transform="translate(1.195 65.926)"/>
      </g>
    </g>
  </g>
</svg>
