<svg xmlns="http://www.w3.org/2000/svg" xmlns:xlink="http://www.w3.org/1999/xlink" width="633" height="389" viewBox="0 0 633 389">
  <defs>
    <clipPath id="clip-path">
      <rect id="長方形_642" data-name="長方形 642" width="388.44" height="138.823"/>
    </clipPath>
    <clipPath id="clip-DRW">
      <rect width="633" height="389"/>
    </clipPath>
  </defs>
  <g id="DRW" clip-path="url(#clip-DRW)">
    <rect width="633" height="389" fill="#fff"/>
    <g id="グループ_907" data-name="グループ 907">
      <rect id="長方形_258" data-name="長方形 258" width="632.995" height="389" transform="translate(0)" fill="none"/>
    </g>
    <g id="グループ_1532" data-name="グループ 1532" transform="translate(124.085 107.9)">
      <g id="グループ_1392" data-name="グループ 1392" transform="translate(0 0)">
        <g id="グループ_1391" data-name="グループ 1391" transform="translate(0 0)" clip-path="url(#clip-path)">
          <path id="パス_894" data-name="パス 894" d="M223.291,1.324c.317.188.732.188.979.511a1.6,1.6,0,0,1-.126,1.7c-.237.247-.549.171-.81.425.779,1.961,5.252,2.277,6.517.554-.234-.228-.6-.4-.725-.769a1.259,1.259,0,0,1,1.537-1.616c.247-.289.345-.777.767-.894.644-.18,1.172.378,1.106,1.192a1.265,1.265,0,0,1-.551,2.468c.057,1.7,3.2,2.873,4.643,1.664-.638-.988.476-2.1,1.572-1.7.368.129.542.419.853.639.536.107.882-.26,1.448-.384.525-.111,1.788-.257,1.749.342-.02.291-.351.314-.682.469a13.934,13.934,0,0,0-4.644,3.324,21.185,21.185,0,0,0-3.453,5.624,55.871,55.871,0,0,1-22.029,0A19.844,19.844,0,0,0,208,9.207a13.679,13.679,0,0,0-4.687-3.282c-.333-.149-.627-.259-.64-.469-.032-.53,1-.485,1.621-.383.536.088.983.538,1.533.425.3-.058.438-.47.852-.639,1.043-.419,2.306.586,1.664,1.66.884.963,2.722.5,3.662-.124a1.931,1.931,0,0,0,.982-1.452c-.3-.149-.614-.075-.853-.168a1.268,1.268,0,0,1,.256-2.344c.023-.808.444-1.347,1.11-1.192.454.107.531.494.766.894a1.229,1.229,0,0,1,.853,2.3c1.1,1.857,5.767,1.445,6.518-.427-.167-.3-.554-.2-.81-.469a1.7,1.7,0,0,1-.219-1.578c.172-.335.626-.476,1.071-.595C221.839.827,221.7.051,222.4,0s.772.646.894,1.321m6.862,4.516a5.408,5.408,0,0,1-2.133.852c-2.171.371-4.6-.345-5.538-1.619a5.23,5.23,0,0,1-2.258,1.447,7.353,7.353,0,0,1-5.2-.513c-.314-.186-.508-.548-.89-.551-.691,1.883-2.509,2.862-5.072,2.729.1.453.336.593.595.935.209.275.39.728.723.809a3.388,3.388,0,0,0,1.322-.342,30.387,30.387,0,0,1,4.261-1.021A39.618,39.618,0,0,1,233.22,9.588a3.974,3.974,0,0,0,1.363.342c.31-.08.515-.536.723-.809a2.3,2.3,0,0,0,.6-.935c-2.36.149-4.221-.772-4.946-2.345-.051-.111-.028-.332-.212-.384-.247.032-.4.245-.595.384M218.1,9.717c-.19.038-.441,0-.557.172.113.145.263.222.383.378a1.359,1.359,0,0,1,.256.941c-.05.412-.387.542-.427.809,1.411-.124,2.82-.247,4.264-.343a2.468,2.468,0,0,1-.641-.764,3.394,3.394,0,0,1,.042-.852c.085-.238.4-.31.383-.6a13.792,13.792,0,0,0-3.7.256m5.067-.256c.031.305.3.389.384.684a1.356,1.356,0,0,1-.6,1.53c1.436.1,2.854.219,4.261.343-.025-.226-.249-.323-.344-.554a1.321,1.321,0,0,1,.129-1.2c.145-.2.389-.181.425-.468a16.366,16.366,0,0,0-4.259-.339m-11.291,1.492c.1.225.389.244.554.425a1.365,1.365,0,0,1,.3.893c-.016.282-.209.485-.215.728,1.5-.133,2.664-.6,4.089-.809-.184-.219-.466-.289-.637-.555a1.366,1.366,0,0,1-.213-.852c.036-.335.315-.466.3-.769a16.244,16.244,0,0,0-4.175.94m17-.894a1.408,1.408,0,0,1,.085,1.661c-.168.218-.457.253-.6.469.7.126,1.366.272,2.044.425a6.551,6.551,0,0,0,2.046.342,1.462,1.462,0,0,1,.042-1.534c.162-.2.431-.226.554-.427a11.5,11.5,0,0,0-4.175-.937m.339,3.577a18.7,18.7,0,0,0-3.407-.425,39.735,39.735,0,0,0-9.672.342c-.434.089-.95.146-1.194.51a8.9,8.9,0,0,0,3.536.554,75.111,75.111,0,0,0,8.01,0,8.694,8.694,0,0,0,3.538-.554c-.12-.292-.526-.349-.811-.427" transform="translate(93.465 0.001)" fill-rule="evenodd"/>
          <path id="パス_895" data-name="パス 895" d="M216.359,4.234a.744.744,0,0,1,.937.682c.054,1-1.724,1.176-1.619-.045.029-.346.243-.573.682-.637" transform="translate(99.462 1.947)" fill-rule="evenodd"/>
          <path id="パス_896" data-name="パス 896" d="M210.922,4.738a.781.781,0,0,1,1.067.554.823.823,0,0,1-1.577.427.709.709,0,0,1,.51-.98" transform="translate(97.014 2.166)" fill-rule="evenodd"/>
          <path id="パス_897" data-name="パス 897" d="M221.54,4.738a.783.783,0,0,1,1.021.427c.367,1.108-1.429,1.41-1.575.425a.675.675,0,0,1,.554-.852" transform="translate(101.907 2.166)" fill-rule="evenodd"/>
          <path id="パス_898" data-name="パス 898" d="M247.522,16.659a21.965,21.965,0,0,1,7.455-2.6,15.712,15.712,0,0,1,4.689,0,9.063,9.063,0,0,1,3.533,1.449,9.2,9.2,0,0,1,3.837,6.222,15.41,15.41,0,0,1-.511,6.688c-.2.634-.451,1.476-1.319,1.322-1.2-.209-.184-2.32-.045-3.028a13.234,13.234,0,0,0,.174-3.875,7.775,7.775,0,0,0-2.813-5.455,9.462,9.462,0,0,0-6.562-1.619,17.666,17.666,0,0,0-6.393,1.875,38.359,38.359,0,0,1,10.525,8.608,22.186,22.186,0,0,1,3.575,6.007,19.221,19.221,0,0,1,1.365,8.181,10.5,10.5,0,0,1-2.769,6.819,10.122,10.122,0,0,1-6.225,3.323,14.079,14.079,0,0,1-8-1.365,23.744,23.744,0,0,1-5.71-3.834,22.292,22.292,0,0,1-2.985,4.005c-.132.149-.469.5-.469.51-.007.158.915.888,1.068,1.026a23.141,23.141,0,0,0,9.629,4.984,105.471,105.471,0,0,1,10.779-2.089c2.89-.352,6.241-.151,8.441.9.791.378,1.638.959,1.447,2A2.012,2.012,0,0,1,269,58.033a13.432,13.432,0,0,1-4.3.725,55.911,55.911,0,0,1-12.784-.725,3.948,3.948,0,0,0-1.236-.169c-1.736.326-3.554.567-5.412.767a34.073,34.073,0,0,1-14.914-1.577,5.693,5.693,0,0,0-1.1-.427,4.746,4.746,0,0,0-1.153.427,34.669,34.669,0,0,1-15.04,1.577c-.935-.1-1.849-.221-2.769-.342-.9-.117-1.8-.343-2.687-.425a.819.819,0,0,0-.085,0,18.3,18.3,0,0,0-2.215.38,54.846,54.846,0,0,1-12.1.514,10.443,10.443,0,0,1-4.217-.938,1.5,1.5,0,0,1-.852-1.62,2.134,2.134,0,0,1,.894-1.192,10.307,10.307,0,0,1,4.6-1.276,24.2,24.2,0,0,1,5.455.21c3.6.513,6.559,1.251,9.712,1.962a22.9,22.9,0,0,0,10.227-5.455c.158-.155.51-.5.51-.511a11.758,11.758,0,0,0-.937-1.065,24.393,24.393,0,0,1-2.513-3.453,26.87,26.87,0,0,1-5.71,3.793,14.126,14.126,0,0,1-8.055,1.365,10.6,10.6,0,0,1-8.945-10.183,20.038,20.038,0,0,1,4.943-14.108,35.411,35.411,0,0,1,10.526-8.6,16.685,16.685,0,0,0-6.266-1.919c-5.212-.408-8.887,2.117-9.5,6.733a12.743,12.743,0,0,0,.511,5.453c.245.732.4,1.718-.511,1.79-.672.054-1.021-.611-1.236-1.277a15.708,15.708,0,0,1-.51-6.692,9.177,9.177,0,0,1,3.833-6.22,9.022,9.022,0,0,1,3.539-1.492,15.691,15.691,0,0,1,4.686,0,21.336,21.336,0,0,1,7.456,2.6,34.908,34.908,0,0,1,13.592-3.323c.815-.038,1.654-.035,2.475,0,.741.032,1.5.2,2.255.212.8.01,1.673-.184,2.554-.212a34.124,34.124,0,0,1,15.811,3.323m-24.5-1.362a24.761,24.761,0,0,0-9.5,3.111,31.938,31.938,0,0,1,3.025,2.342,17.723,17.723,0,0,1,6.476-5.453m18.2,4.644c.162.2.57.807.679.809-.01,0,.221-.194.342-.3.872-.748,1.777-1.476,2.64-2.087a24.807,24.807,0,0,0-9.5-3.025,17.282,17.282,0,0,1,5.839,4.6m-8.479-3.706a13.239,13.239,0,0,0-3.665-.81.11.11,0,0,0-.044,0,9.988,9.988,0,0,0-1.788.381,14.174,14.174,0,0,0-9.031,6.436,76.556,76.556,0,0,1,10.4,13.162,2.908,2.908,0,0,0,.639.94,84.608,84.608,0,0,1,5.113-7.458,59.384,59.384,0,0,1,5.539-6.263c.108-.108.3-.253.3-.425a14.621,14.621,0,0,0-7.455-5.965M206.4,23.6a34.135,34.135,0,0,0-4.391,4.943,32.218,32.218,0,0,0-3.453,5.837,18.339,18.339,0,0,0-1.831,7.5c0,4.674,3.418,7.361,8.349,6.946a13.428,13.428,0,0,0,5.671-2,24.113,24.113,0,0,0,3.876-2.854c.161-.139.425-.215.428-.468a23.382,23.382,0,0,1-2.22-10.569,22.556,22.556,0,0,1,2.56-10.311,21.318,21.318,0,0,0-3.666-3.153A29.585,29.585,0,0,0,206.4,23.6m41.8,23.561a12.263,12.263,0,0,0,6.73,1.664,6.949,6.949,0,0,0,5.582-2.9c1.22-1.784,1.334-4.443.767-7.072a24.258,24.258,0,0,0-2.3-6.179,35.739,35.739,0,0,0-12.269-13.208,17.478,17.478,0,0,0-2.857,2.3,3.548,3.548,0,0,0-.852.853,22.8,22.8,0,0,1,2.6,10.652,24.352,24.352,0,0,1-2.3,10.313,24.483,24.483,0,0,0,4.905,3.575M222.213,32.129a45.873,45.873,0,0,0-5.073-7.671c-.019-.029-.082-.035-.129-.042a18.656,18.656,0,0,0-1.232,6.39,21.989,21.989,0,0,0,.935,6.523,33.22,33.22,0,0,0,5.073,9.883c1.6-2.148,3.184-4.313,4.642-6.606-1.5-2.716-2.734-5.69-4.217-8.476m19.472,5.152a22.586,22.586,0,0,0,.938-6.515,17.718,17.718,0,0,0-1.236-6.264c0-.029-.009-.051-.044-.044,0-.026-.006-.051-.044-.042-3.928,4.591-6.488,10.554-9.327,16.234,1.514,2.234,3.019,4.474,4.683,6.562a34.858,34.858,0,0,0,5.029-9.93M224.511,50.493a26.416,26.416,0,0,0,4.645,3.706,19.128,19.128,0,0,0,4.686-3.749,27.509,27.509,0,0,1-4.645-5.284,28.35,28.35,0,0,1-4.686,5.327m1.619,4.6a30.472,30.472,0,0,1-4.046-2.77,42.756,42.756,0,0,1-8.78,4.09c-.187.063-.453.082-.6.256a44.859,44.859,0,0,0,7.542.3,22.119,22.119,0,0,0,6.437-1.492,2.156,2.156,0,0,0-.557-.383m18.962,1.319a39.7,39.7,0,0,1-8.733-4.09c-.048-.054-.092.016-.129.045-.706.508-1.409,1.09-2.173,1.615-.577.4-1.166.776-1.748,1.11a1.847,1.847,0,0,0-.6.383,22.084,22.084,0,0,0,6.436,1.492,45.634,45.634,0,0,0,7.543-.3c-.146-.174-.408-.193-.6-.256m-54.37.127a46.012,46.012,0,0,0,10.187.383c-3.076-.342-7.017-.833-10.187-.383m69.667.086a20.336,20.336,0,0,0-2.942.342,68.113,68.113,0,0,0,9.118-.213,3.115,3.115,0,0,0,1.11-.256,35.748,35.748,0,0,0-7.287.127" transform="translate(86.748 6.138)" fill-rule="evenodd"/>
          <path id="パス_899" data-name="パス 899" d="M129.151,39.1a77.018,77.018,0,0,1,17.214-11.929A48.548,48.548,0,0,1,157.1,23.334a40.163,40.163,0,0,1,13.164-1.064A20.66,20.66,0,0,1,187.482,34.2a27.193,27.193,0,0,1,2.386,12.188,36.723,36.723,0,0,1-.725,6.562c-.184.967-.359,2.022-.639,3.025-.34,1.207-.709,2.464-1.661,2.979-1.8.251-1.466-1.55-1.065-2.639a29.808,29.808,0,0,0,1.577-10.269,22.553,22.553,0,0,0-2.469-11.079,18.446,18.446,0,0,0-6.565-6.986,21.383,21.383,0,0,0-10.44-3.07,36.925,36.925,0,0,0-12.056,1.406,45.564,45.564,0,0,0-9.585,3.922A67.341,67.341,0,0,0,130.939,42c.038-.006.044.016.044.042a55.321,55.321,0,0,1,6.264,31.019,54.6,54.6,0,0,1-9.929,27.739,62.32,62.32,0,0,1-8.821,10.054,70.569,70.569,0,0,1-10.65,8.184,68.538,68.538,0,0,1-28,9.669,88.222,88.222,0,0,1-17.892.215c-4.907-.406-9.854-1.127-14.613-1.875-.384-.06-.715-.149-1.024-.172a3.567,3.567,0,0,0-.938.129,141.528,141.528,0,0,1-25.948,2.3c-3.054,0-6.135-.1-9.034-.384a28.033,28.033,0,0,1-7.839-1.578,3.792,3.792,0,0,1-2.474-2.255,2.942,2.942,0,0,1,1.407-3.111,17.955,17.955,0,0,1,6.862-2.558,40.452,40.452,0,0,1,8.564-.852,60.638,60.638,0,0,1,8.65.766c7.5,1.067,14.54,2.591,21.731,4.177a11.789,11.789,0,0,0,1.919.427,8.4,8.4,0,0,0,1.916-.513c8.466-2.465,15.629-5.954,21.433-11.036a33.815,33.815,0,0,0,2.559-2.428c6.413-7.006,11.822-14.87,17.125-22.794,2.677-4,5.323-8.019,7.885-12.1s5.158-8.124,7.924-12.012c2.781-3.91,5.683-7.645,8.735-11.247s6.336-6.939,9.672-10.272a35.776,35.776,0,0,0-20.28-15.977,54.086,54.086,0,0,0-15.937-2.174,60.333,60.333,0,0,0-15.936,2.174A68.124,68.124,0,0,0,50.24,37.7,89.6,89.6,0,0,0,28.594,61.342a64.256,64.256,0,0,0-8.267,18.877A33.382,33.382,0,0,0,19.434,92.4a15.972,15.972,0,0,0,4.429,9.16c2.982,2.982,7.16,5,12.869,5.241a28.971,28.971,0,0,0,8.139-.894,39.045,39.045,0,0,0,12.357-5.754A74.3,74.3,0,0,0,69.456,89.719,32.31,32.31,0,0,0,73.5,84.734c.563-.865,1.248-2.164,2.3-2.215a1.2,1.2,0,0,1,1.277.979,3.634,3.634,0,0,1-.769,2.428,34.336,34.336,0,0,1-2.729,3.751,22.562,22.562,0,0,0-1.232,2c-.1-.1-.015-.38-.044-.551-2.523,2.54-5.06,5.06-7.838,7.37a59.43,59.43,0,0,1-9.034,6.222,39.657,39.657,0,0,1-11.079,4.218,31.109,31.109,0,0,1-13.677-.3,23.817,23.817,0,0,1-9.886-5.415,24.387,24.387,0,0,1-6.179-9.074,31.034,31.034,0,0,1-1.832-13.3,45.961,45.961,0,0,1,2.474-12.784,54.987,54.987,0,0,1,11.548-19,79.111,79.111,0,0,1,7.754-7.543A87.652,87.652,0,0,1,63.7,24.87a83.448,83.448,0,0,1,22.584-4.134,68.862,68.862,0,0,1,16.957,1.15,43.943,43.943,0,0,1,10.61,3.749,41.487,41.487,0,0,1,15.3,13.465m-5.243,11.25a133.622,133.622,0,0,0-14.016,24.412c-1,2.192-2.033,4.375-3.114,6.521-4.215,8.39-9.255,16.584-15.208,23.222-9.162,10.2-22.112,16.031-37.026,20.664a100.9,100.9,0,0,0,18.912,1.622,50.373,50.373,0,0,0,17.473-3.111c9.859-3.688,17.5-10.091,23.607-17.514A82.961,82.961,0,0,0,122.8,93.894a68.475,68.475,0,0,0,8.351-22.5,47.945,47.945,0,0,0,.809-9.5,43.1,43.1,0,0,0-3.624-16.961c0-.023,0-.048-.042-.039-1.536,1.714-2.985,3.567-4.389,5.453M18.2,123.553a68.4,68.4,0,0,0-7.413-.216c-1.432.069-2.918.037-4.264.172a16.256,16.256,0,0,0-1.916.3,2.479,2.479,0,0,0-1.577.682,6.762,6.762,0,0,0,3.578,1.232c1.365.221,2.839.411,4.3.511a161.8,161.8,0,0,0,27.742-.552c-6.416-.846-13.45-1.634-20.454-2.129" transform="translate(0 9.518)" fill-rule="evenodd"/>
          <path id="パス_900" data-name="パス 900" d="M176,67.621a5.207,5.207,0,0,0,.6-1.023c.471-.89.956-1.883,1.448-2.813a1.4,1.4,0,0,1,.342-.511c3.159,1.077,7.708.552,10.9-.127a4.533,4.533,0,0,1-.681,1.189c-3.657,6.112-7.316,12.142-10.992,18.325-1.908,3.209-3.941,6.393-5.8,9.842a55.475,55.475,0,0,0-2.557,5.284c-.675,1.642-1.78,4.265-1.02,6.264a2.152,2.152,0,0,0,2.64,1.235,8.627,8.627,0,0,0,3.153-1.578,49.682,49.682,0,0,0,7.243-6.815A133.8,133.8,0,0,0,193.637,81.04c.64-.938,1.168-1.951,1.746-2.937,2.862-4.882,5.788-9.914,8.692-14.788a24.07,24.07,0,0,0,5.623.557,55.693,55.693,0,0,0,5.539-.685c.162.085-.059.248-.082.3-.883,1.594-1.919,3.172-2.9,4.769-5.24,8.533-10.345,16.779-15.556,25.439a35.62,35.62,0,0,0-2.811,5.367,10.382,10.382,0,0,0-.894,3.194c-.118,1.964.741,3.291,2.9,3.071a7.476,7.476,0,0,0,3.15-1.492,37.893,37.893,0,0,0,7.117-6.774,106.953,106.953,0,0,0,8.012-10.525c4.636-6.952,8.633-14.4,13-21.774.257-.434.657-1.324.9-1.4a6.126,6.126,0,0,1,1.406.129c1.446.118,2.886.254,4.346.254a21.428,21.428,0,0,0,5.5-.641c.13.053-.032.2-.039.213-.7,1.2-1.555,2.491-2.3,3.708-4.037,6.559-8.19,13.117-12.232,19.729a112.078,112.078,0,0,0-5.834,10.18c-.338.709-.687,1.416-.983,2.218-.529,1.46-1.131,3.841-.127,5.155.963,1.255,3.3,1.207,5.031.681A14.268,14.268,0,0,0,227,102.772a36.266,36.266,0,0,0,6.477-6.306c1.628-1.948,3.283-4.167,4.816-6.394a4.258,4.258,0,0,0,.6-.979,6.105,6.105,0,0,0-.174-1.108,23.642,23.642,0,0,1,.3-8.009,29.529,29.529,0,0,1,2.725-7.331,31.051,31.051,0,0,1,3.922-6.133,12.74,12.74,0,0,1,2.6-2.431,5.961,5.961,0,0,1,3.789-1.233c1.62.139,2.269,1.578,2.135,3.492a14.385,14.385,0,0,1-.983,4.134,43.969,43.969,0,0,1-3.406,6.816c-2.607,4.448-5.38,8.275-8.222,12.23.943,1.43,2.04,2.838,4.3,2.851,2.4.02,4.7-1.447,6.173-2.513a33.828,33.828,0,0,0,4.563-4.128c.715-.75,1.4-1.525,2.043-2.3.674-.8,1.17-1.707,1.793-2.557a37.3,37.3,0,0,1,8.944-8.437,61.649,61.649,0,0,1,5.328-3.365,56.149,56.149,0,0,1,12.058-5.284,16.976,16.976,0,0,1,7.586-.766c3.25.609,6.1,3.117,5.621,7.242-.413,3.6-2.944,6.024-5.367,7.67a30.564,30.564,0,0,1-5.751,2.94c-6.244,2.509-13.173,4.028-20.454,5.583a4.87,4.87,0,0,0-.764,1.15,29.185,29.185,0,0,0-4.049,9.16c-.489,2.395-.264,4.823.723,6.309,1.008,1.5,2.792,2.23,5.284,2.256a14.906,14.906,0,0,0,6.264-1.322,27.044,27.044,0,0,0,4.813-2.728,56.788,56.788,0,0,0,8.1-6.984,117.137,117.137,0,0,0,10.313-12.359,3.932,3.932,0,0,0,.383-.6,13.871,13.871,0,0,1,1.151-1.661,119.09,119.09,0,0,1,8.434-10.395,30.193,30.193,0,0,1,5.963-5.371,6.073,6.073,0,0,1,2.689-1.064,7.129,7.129,0,0,1,3.238.551c2.637,1.143,3.643,3.913,3.792,7.458a16.7,16.7,0,0,1-1.108,6.309,33.2,33.2,0,0,1-2.3,5.2c.592-.444,1.116-1.037,1.7-1.577s1.287-1.02,1.832-1.533c.034-.039.057-.089.085-.129a10.815,10.815,0,0,0,.682-1.493,38.781,38.781,0,0,1,5.964-9.119,22.663,22.663,0,0,1,4.518-4.088,10.123,10.123,0,0,1,2.937-1.363,4.941,4.941,0,0,1,3.624.254,2.821,2.821,0,0,1,.979,3.153,7.71,7.71,0,0,1-1.575,2.728,26.028,26.028,0,0,1-4.515,4.09c-2.827,2.129-5.967,4.08-9.078,6.007a11.167,11.167,0,0,0-1.279.852,1.181,1.181,0,0,0-.3.555c-.747,2.575-1.473,6.419-.128,8.992a3.452,3.452,0,0,0,3.407,1.916,8.507,8.507,0,0,0,4.135-1.15,21.067,21.067,0,0,0,5.754-4.857c.786-.9,1.626-1.938,2.385-2.94a11.617,11.617,0,0,1,1.233-1.409c.494-.466,1.013-1.007,1.661-.978a1.074,1.074,0,0,1,.938,1.447,3.211,3.211,0,0,1-.6.855c-1.444,1.9-3.216,3.675-4.772,5.367a22.985,22.985,0,0,1-3.023,2.772c-2.059,1.558-4.8,3.32-8.351,3.111a6.047,6.047,0,0,1-4.18-1.619c-1.936-1.94-2.282-5.617-1.448-9.248-.056-.17-.2.121-.3.215-.735.7-1.55,1.461-2.3,2.215a50.837,50.837,0,0,0-6.736,8.863c-2.68,4.227-5.328,8.608-7.879,12.866a50.421,50.421,0,0,0-10.91.085c-.14-.086.063-.21.088-.256.878-1.533,1.91-3.1,2.852-4.643,3.009-4.908,6.169-9.9,9.207-14.828a159.694,159.694,0,0,0,8.729-15.3,29.853,29.853,0,0,0,1.239-2.769c.354-.961,1.143-3.342.042-3.92-.805-.425-2.111.27-2.852.766A17.6,17.6,0,0,0,312.986,68a42.348,42.348,0,0,0-3.751,4.005c-2.414,2.883-4.541,5.874-6.645,8.862-.114.161-.294.257-.342.425-.019.064.021.152,0,.212a7.386,7.386,0,0,1-1.151,1.747c-1.641,2.182-3.422,4.313-5.2,6.437a88.607,88.607,0,0,1-7.457,8.054,55.387,55.387,0,0,1-8.692,6.815c-3.068,1.867-7.177,3.792-12.061,3.2a12.788,12.788,0,0,1-9.414-6.095,16.856,16.856,0,0,1-1.622-12.737c-.174,0-.317.19-.424.3a20.571,20.571,0,0,1-7.157,4.818,8.151,8.151,0,0,1-5.373.168,7.51,7.51,0,0,1-3.536-2.854c-2.06,2.786-4.249,5.7-6.6,8.434-2.3,2.677-4.857,5.327-8.143,6.863a12.219,12.219,0,0,1-6.173,1.147,9.33,9.33,0,0,1-5.327-2.168,10.566,10.566,0,0,1-2.985-11.082c-2.716,3.527-5.767,7.554-9.458,10.439a14.18,14.18,0,0,1-4.176,2.472c-4.185,1.42-7.4-.991-9.034-3.408a10.162,10.162,0,0,1-1.7-4.943,13.76,13.76,0,0,1,.812-5.754,18.609,18.609,0,0,0-1.577,1.878c-1.575,1.869-3.177,3.817-4.943,5.58-2.36,2.363-4.708,4.78-7.8,6.223a8.51,8.51,0,0,1-5.837.509,8.242,8.242,0,0,1-4.132-2.9,10.452,10.452,0,0,1-2-5.025,15.617,15.617,0,0,1,.554-6.267,5.1,5.1,0,0,0-.811,1.026c-1.869,2.484-3.9,4.98-6.01,7.328a25.257,25.257,0,0,1-3.915,3.707,12.225,12.225,0,0,1-5.284,2.344c-4.905.75-8.085-2.278-9.761-5.24a14.84,14.84,0,0,1-1.788-5.839,21.181,21.181,0,0,1,.554-6.9c-.066-.145-.34.231-.469.34a18.891,18.891,0,0,1-4.134,2.683,10.271,10.271,0,0,1-6.52.852,5.459,5.459,0,0,1-4.046-3.746A13.9,13.9,0,0,1,119.411,83c-.016-.136-.234.075-.339.174-.751.666-1.547,1.482-2.26,2.255-.815.894-1.7,1.783-2.468,2.73a62.272,62.272,0,0,0-4.264,6.094c-2.689,4.229-5.3,8.625-7.883,12.866a50.753,50.753,0,0,0-10.906.085c-.14-.086.053-.2.086-.256.877-1.533,1.933-3.139,2.895-4.689,3.1-4.965,6.114-9.889,9.246-14.91A144.6,144.6,0,0,0,112.3,71.923a26.788,26.788,0,0,0,1.191-2.854c.324-.935.989-3.02,0-3.58s-2.512.535-3.194,1.024a21.356,21.356,0,0,0-2.386,2.041,51.009,51.009,0,0,0-4.175,4.689c-1.921,2.377-3.811,4.983-5.669,7.627a13.655,13.655,0,0,1-.937,1.278,1.806,1.806,0,0,1-1.406.81,1.109,1.109,0,0,1-.81-1.534,7.343,7.343,0,0,1,.938-1.407c.934-1.3,2.047-2.716,2.984-3.917a81.727,81.727,0,0,1,8.649-9.8,23.334,23.334,0,0,1,2.554-2.047,6.485,6.485,0,0,1,3.2-1.4,7.045,7.045,0,0,1,3.2.551c2.573,1.162,3.666,3.839,3.833,7.329a20,20,0,0,1-2.173,9.033c-.194.435-.377.845-.6,1.279a12.426,12.426,0,0,1-.637,1.28c.006.034-.016.04-.045.042,1.15-.938,2.333-2.215,3.625-3.155a39.941,39.941,0,0,1,6.732-10.823,23.353,23.353,0,0,1,4.6-4.049,9.532,9.532,0,0,1,3.025-1.317,4.434,4.434,0,0,1,3.537.424,2.985,2.985,0,0,1,.722,3.282,8.227,8.227,0,0,1-1.619,2.684,27.83,27.83,0,0,1-4.6,4.05c-2.5,1.882-5.108,3.485-7.8,5.151a17.923,17.923,0,0,0-2.557,1.748c-.925,2.791-1.755,8.118.428,10.271,1.127,1.112,3.2,1.151,4.942.638a12.834,12.834,0,0,0,4.091-2.174,29.528,29.528,0,0,0,4.687-4.728c.469-.576.862-1.213,1.274-1.831,3.337-5,7.915-8.711,13.082-11.933a78.451,78.451,0,0,1,8.055-4.473,32.728,32.728,0,0,1,9.414-3.108c4.16-.586,7.43.535,7.541,4.6m94.252,16.146a59.292,59.292,0,0,0,15.041-6.3,32.528,32.528,0,0,0,6.094-4.562,13,13,0,0,0,2.341-2.984c.5-.922,1.349-3.064.513-4.175a2.28,2.28,0,0,0-1.7-.637,9.292,9.292,0,0,0-4.007,1.108,21.975,21.975,0,0,0-3.2,1.918,53.554,53.554,0,0,0-5.58,4.645,80.5,80.5,0,0,0-9.543,10.95c0,.047-.063.063,0,.083,0-.026,0-.051.04-.044M166.62,66.341a30.205,30.205,0,0,0-7.668,5.624,82.206,82.206,0,0,0-8.393,9.375,61.87,61.87,0,0,0-7.069,10.693,23.132,23.132,0,0,0-2.26,6.606c-.5,2.946-.237,5.737,2,6.476a4.693,4.693,0,0,0,3.581-.342,14.469,14.469,0,0,0,2.683-1.7,39.621,39.621,0,0,0,4.479-4.264c2.785-2.971,5.4-6.289,7.925-9.546a121.5,121.5,0,0,0,7.155-10.313,44.958,44.958,0,0,0,3.109-5.623,18.538,18.538,0,0,0,1.11-3.239,5.261,5.261,0,0,0-.257-3.706,3.04,3.04,0,0,0-2.9-.98,10.455,10.455,0,0,0-3.494.938" transform="translate(42.078 28.976)" fill-rule="evenodd"/>
        </g>
      </g>
    </g>
  </g>
</svg>
