<svg xmlns="http://www.w3.org/2000/svg" xmlns:xlink="http://www.w3.org/1999/xlink" width="633" height="389" viewBox="0 0 633 389">
  <defs>
    <clipPath id="clip-path">
      <rect id="長方形_688" data-name="長方形 688" width="431.6" height="191.198"/>
    </clipPath>
    <clipPath id="clip-OLT">
      <rect width="633" height="389"/>
    </clipPath>
  </defs>
  <g id="OLT" clip-path="url(#clip-OLT)">
    <rect width="633" height="389" fill="#fff"/>
    <g id="グループ_1525" data-name="グループ 1525">
      <rect id="長方形_267" data-name="長方形 267" width="632.995" height="389" transform="translate(0)" fill="none"/>
    </g>
    <g id="グループ_1564" data-name="グループ 1564" transform="translate(104.8 91.718)">
      <g id="グループ_1563" data-name="グループ 1563" transform="translate(0 0)" clip-path="url(#clip-path)">
        <path id="パス_1197" data-name="パス 1197" d="M41.7,37.851a9.468,9.468,0,1,0,9.613,9.458A9.542,9.542,0,0,0,41.7,37.851m0,15.973a6.5,6.5,0,1,1,6.219-6.514A6.367,6.367,0,0,1,41.7,53.824" transform="translate(113.65 134.098)"/>
        <path id="パス_1198" data-name="パス 1198" d="M48.469,37.971V56.36H60.957V53.625H51.771V37.971Z" transform="translate(171.716 134.521)"/>
        <path id="パス_1199" data-name="パス 1199" d="M65.621,40.678V37.97H53.132V56.36H65.621V53.625H56.444V47.6h9.177V44.862H56.444V40.678Z" transform="translate(188.239 134.521)"/>
        <path id="パス_1200" data-name="パス 1200" d="M49.942,37.971V50.323c0,1.8-1.853,3.3-4.148,3.3s-4.148-1.5-4.148-3.3V37.971H38.235v12.67c0,3.312,3.389,6.037,7.559,6.037s7.568-2.726,7.568-6.037V37.971Z" transform="translate(135.46 134.523)"/>
        <path id="パス_1201" data-name="パス 1201" d="M57.45,37.971H43.476v2.894h5.415v15.5H52.2v-15.5H57.45Z" transform="translate(154.029 134.521)"/>
        <path id="パス_1202" data-name="パス 1202" d="M71.795,37.971h-14v2.894h5.42v15.5h3.3v-15.5h5.279Z" transform="translate(204.753 134.521)"/>
        <path id="パス_1203" data-name="パス 1203" d="M78.139.006V29.7a15.163,15.163,0,0,1-6.146,1.308,15.41,15.41,0,0,1-4.606-.709A21.243,21.243,0,0,0,73.02,20.34a18.871,18.871,0,0,0,.5-4.429c0-.568-.009-1.131-.041-1.667C73.051,6.625,69.722,3.086,66.61,1.428A12.069,12.069,0,0,0,61.027,0l-19.1,0V58.563a20.729,20.729,0,0,0,41.458,0V.006ZM62.412,25.973a5.07,5.07,0,1,1,5.061-5.065,5.071,5.071,0,0,1-5.061,5.065M47.148,5.23H61.027a7.258,7.258,0,0,1,4.629,1.926,9.2,9.2,0,0,1,2.281,4.8,21.109,21.109,0,0,0-5.252-.659,21.627,21.627,0,0,0-5.52.718,21.052,21.052,0,0,0-5.651,2.449,21.464,21.464,0,0,0-4.366,3.607ZM78.139,58.563a15.5,15.5,0,0,1-30.991,0V28.716a15.978,15.978,0,0,1,4.911-8.141,20.48,20.48,0,0,0,6.146,10.33,20.087,20.087,0,0,0,4.679,3.2,20.437,20.437,0,0,0,9.108,2.131,20.145,20.145,0,0,0,6.146-.959Z" transform="translate(148.529 -0.003)"/>
        <path id="パス_1204" data-name="パス 1204" d="M83,29.042h6.414v18.2h3.9v-18.2h6.242V25.58H83Z" transform="translate(294.068 90.624)"/>
        <path id="パス_1205" data-name="パス 1205" d="M82.58,25.58H78.691V47.326H92.679V44.1H82.594Z" transform="translate(278.789 90.624)"/>
        <path id="パス_1206" data-name="パス 1206" d="M97.588,25.58H88.607V47.326h8.981c6.119,0,10.389-4.461,10.389-10.876A10.64,10.64,0,0,0,97.588,25.58M97.425,43.9H92.514V29.01h4.911c3.548,0,6.428,3.334,6.428,7.441s-2.88,7.446-6.428,7.446" transform="translate(313.919 90.624)"/>
        <path id="パス_1207" data-name="パス 1207" d="M96.322,29.443a2.331,2.331,0,1,0,2.317,2.33,2.331,2.331,0,0,0-2.317-2.33" transform="translate(332.962 104.309)"/>
        <rect id="長方形_687" data-name="長方形 687" width="3.902" height="21.746" transform="translate(58.643 116.205)"/>
        <path id="パス_1208" data-name="パス 1208" d="M32.456,25.58H15.9v3.462h6.41V47.326h3.911V29.042h6.237Z" transform="translate(56.322 90.624)"/>
        <path id="パス_1209" data-name="パス 1209" d="M36.451,28.8V25.58H21.691V47.327h14.76V44.1H25.607V36.974H36.451V33.762H25.607V28.8Z" transform="translate(76.849 90.624)"/>
        <path id="パス_1210" data-name="パス 1210" d="M36.326,25.58H27.358V47.331h8.968c6.133,0,10.4-4.461,10.4-10.876a10.653,10.653,0,0,0-10.4-10.876m-.154,18.326H31.265V29.01h4.906c3.552,0,6.428,3.334,6.428,7.446s-2.876,7.45-6.428,7.45" transform="translate(96.925 90.624)"/>
        <path id="パス_1211" data-name="パス 1211" d="M13.883,25.58V40.212c0,2.167-2.2,3.916-4.915,3.916s-4.92-1.749-4.92-3.916V25.58H0V40.617c0,3.943,4.016,7.15,8.968,7.15s8.963-3.207,8.963-7.15V25.58Z" transform="translate(0 90.624)"/>
        <path id="パス_1212" data-name="パス 1212" d="M20.5,25.58V40.635L10.279,25.58h-3.9V47.326h3.9V31.954L20.5,47.326H24.4V25.58Z" transform="translate(22.608 90.624)"/>
        <path id="パス_1213" data-name="パス 1213" d="M53.333,47.336h3.916L48.776,25.58H44.52L36.07,47.336h3.9l3.039-7.827h7.282ZM44.261,36.3l2.385-6.146L49.031,36.3Z" transform="translate(127.79 90.624)"/>
        <path id="パス_1214" data-name="パス 1214" d="M56.068,38.8A5.431,5.431,0,0,0,53.71,36.3a5.529,5.529,0,0,0,4.07-5.229,5.667,5.667,0,0,0-5.828-5.483l-9.19-.009V47.331h3.916V37.5l1.844.023a4.763,4.763,0,0,1,1.972.336,6.4,6.4,0,0,1,2.662,3.007s.245.472,1.2,2.73a29.779,29.779,0,0,0,1.881,3.743h4.765A54.767,54.767,0,0,1,56.068,38.8M51.43,28.95a2.393,2.393,0,0,1,2.117,2.589,2.382,2.382,0,0,1-2.117,2.585H46.678V28.95Z" transform="translate(151.498 90.606)"/>
        <path id="パス_1215" data-name="パス 1215" d="M62.194,38.8A5.431,5.431,0,0,0,59.836,36.3,5.52,5.52,0,0,0,63.9,31.067a5.663,5.663,0,0,0-5.824-5.483L48.9,25.575V47.331H52.79V37.5l1.853.023a4.838,4.838,0,0,1,1.981.336A6.529,6.529,0,0,1,59.3,40.871s.236.472,1.19,2.73a29.843,29.843,0,0,0,1.872,3.743h4.775A54.4,54.4,0,0,1,62.194,38.8M57.556,28.95a2.4,2.4,0,0,1,2.112,2.589,2.385,2.385,0,0,1-2.112,2.585H52.79V28.95Z" transform="translate(173.233 90.606)"/>
        <path id="パス_1216" data-name="パス 1216" d="M65.8,25.5a11.243,11.243,0,1,0,11.43,11.243A11.35,11.35,0,0,0,65.8,25.5m0,18.957a7.719,7.719,0,1,1,7.382-7.714A7.538,7.538,0,0,1,65.8,44.46" transform="translate(192.652 90.351)"/>
        <path id="パス_1217" data-name="パス 1217" d="M89.231,25.575,84.025,41.207,79.214,25.575H75.3L70.5,41.207,65.3,25.575H61.042l7.587,21.751h3.907l4.729-15.414,4.729,15.414h3.911l7.582-21.751Z" transform="translate(216.262 90.606)"/>
        <path id="パス_1218" data-name="パス 1218" d="M78.383,37.355s-1.835-.691-3.721-1.277c0,0-3.871-1.113-3.871-5.083,0-3.989,5.142-5.647,7.573-5.5a16.022,16.022,0,0,1,5.774,1.118v3.821A11.693,11.693,0,0,0,78.533,29c-3.271,0-3.471,1.953-3.471,1.953s-.259,1.231,1.563,1.863c0,0,2.708.909,5.233,1.908s4.393,2.739,4.393,6.128a6.466,6.466,0,0,1-3.066,5.529,11.883,11.883,0,0,1-6.169,1.754s-4.379-.041-7.005-1.713V42.407A15.61,15.61,0,0,0,77.016,44.4c3.666,0,5.215-1.681,5.215-3.471,0,0,.282-2.244-3.848-3.575" transform="translate(248.037 90.301)"/>
      </g>
    </g>
  </g>
</svg>
