<svg xmlns="http://www.w3.org/2000/svg" width="144" height="55.911" viewBox="0 0 144 55.911">
  <g id="グループ_1296" data-name="グループ 1296" transform="translate(-302.638 -228.866)">
    <g id="グループ_1357" data-name="グループ 1357" transform="translate(302.638 228.866)">
      <rect id="長方形_625" data-name="長方形 625" width="144" height="55.911" fill="none"/>
      <g id="グループ_1356" data-name="グループ 1356" transform="translate(4.126 3.376)">
        <path id="パス_807" data-name="パス 807" d="M580.113,192.783v9.142a4.65,4.65,0,0,1-1.9.4,4.719,4.719,0,0,1-1.418-.219,6.552,6.552,0,0,0,1.737-3.066,5.92,5.92,0,0,0,.154-1.361c0-.18-.006-.35-.015-.517-.131-2.345-1.157-3.44-2.116-3.948a5.209,5.209,0,0,0-2.565-.439l-5.04,0v17.731a6.392,6.392,0,1,0,12.772,0V192.783Zm-4.85,8a1.561,1.561,0,1,1,1.563-1.562A1.56,1.56,0,0,1,575.263,200.779Zm-4.7-6.387h3.429a3.174,3.174,0,0,1,2.27.591,2.863,2.863,0,0,1,.7,1.478,6.538,6.538,0,0,0-1.621-.2,6.625,6.625,0,0,0-1.7.224,6.528,6.528,0,0,0-1.738.752,6.457,6.457,0,0,0-1.347,1.112Zm9.549,16.015c0,3.61-2.526,5.178-4.774,5.178s-4.775-1.568-4.775-5.178V202.2a3.629,3.629,0,0,1,1.513-3.081,6.3,6.3,0,0,0,1.891,3.181,6.327,6.327,0,0,0,4.247,1.643,6.326,6.326,0,0,0,1.9-.3Z" transform="translate(-507.465 -192.78)" fill="#444"/>
        <g id="グループ_1355" data-name="グループ 1355" transform="translate(0 34.86)">
          <g id="グループ_1354" data-name="グループ 1354">
            <g id="グループ_1352" data-name="グループ 1352" transform="translate(19.613 0.14)">
              <g id="グループ_1351" data-name="グループ 1351">
                <rect id="長方形_626" data-name="長方形 626" width="1.303" height="7.255" fill="#444"/>
              </g>
            </g>
            <path id="パス_808" data-name="パス 808" d="M320.206,337.049v4.366a1.707,1.707,0,1,1-3.4,0v-4.366h-1.3v4.464a3.006,3.006,0,0,0,6.01,0v-4.464Z" transform="translate(-315.5 -336.909)" fill="#444"/>
            <path id="パス_809" data-name="パス 809" d="M577.154,341.013h.408c.985,0,1.445.469,1.929,1.595a18.356,18.356,0,0,0,.831,1.7h1.58c-1.524-2.109-1.381-3.076-2.406-3.611a1.783,1.783,0,0,0,1.329-1.733c0-1.141-.8-1.911-2.359-1.911h-2.614v7.255h1.3Zm0-2.861h1.163c.876,0,1.182.376,1.182.848s-.306.881-1.181.881h-1.165Z" transform="translate(-512.69 -336.91)" fill="#444"/>
            <path id="パス_810" data-name="パス 810" d="M613.332,341.013h.407c.985,0,1.444.469,1.928,1.595a18.416,18.416,0,0,0,.832,1.7h1.58c-1.524-2.109-1.381-3.076-2.407-3.611A1.783,1.783,0,0,0,617,338.961c0-1.141-.8-1.911-2.359-1.911h-2.615v7.255h1.3Zm0-2.861H614.5c.876,0,1.181.376,1.181.848s-.306.881-1.18.881h-1.164Z" transform="translate(-540.091 -336.91)" fill="#444"/>
            <path id="パス_811" data-name="パス 811" d="M691.72,342.457l1.736-5.406h1.384l-2.468,7.255h-1.31l-1.6-5.406-1.585,5.406h-1.31l-2.487-7.255h1.4l1.756,5.406,1.54-5.406h1.378Z" transform="translate(-594.661 -336.911)" fill="#444"/>
            <path id="パス_812" data-name="パス 812" d="M412.918,337.05V338.2h2.108v6.109h1.3V338.2h2.108V337.05Z" transform="translate(-389.285 -336.909)" fill="#444"/>
            <path id="パス_813" data-name="パス 813" d="M483.589,337.05h-2.236v7.255H483.6c2.929,0,4.21-1.664,4.21-3.628S486.529,337.05,483.589,337.05Zm-.934,1.134h1.069c1.891.016,2.768,1.078,2.768,2.494s-.877,2.513-2.768,2.494h-1.069Z" transform="translate(-441.116 -336.91)" fill="#444"/>
            <path id="パス_814" data-name="パス 814" d="M538.424,337.049h-1.261L534.3,344.3h1.4l.939-2.513.009-.024h2.331l.009.024.955,2.513h1.434Zm-.629,1.524.761,2.061h-1.5Z" transform="translate(-481.219 -336.909)" fill="#444"/>
            <path id="パス_815" data-name="パス 815" d="M451.749,338.2v-1.146h-4.884V344.3h4.922v-1.158h-3.619V340.88h3.553v-1.137h-3.553V338.2Z" transform="translate(-414.996 -336.909)" fill="#444"/>
            <path id="パス_816" data-name="パス 816" d="M359.74,337.049v5.04l-3.7-5.04h-1.211V344.3H356.1v-5.1l3.75,5.1h1.166v-7.256Z" transform="translate(-345.284 -336.909)" fill="#444"/>
            <g id="グループ_1353" data-name="グループ 1353" transform="translate(79.874 0)">
              <path id="パス_817" data-name="パス 817" d="M648.554,336.473a3.768,3.768,0,1,1-3.814,3.77A3.8,3.8,0,0,1,648.554,336.473Zm.011,6.337a2.571,2.571,0,1,0-2.483-2.568A2.465,2.465,0,0,0,648.564,342.81Z" transform="translate(-644.74 -336.473)" fill="#444"/>
            </g>
            <path id="パス_818" data-name="パス 818" d="M738.209,338.294c0-.381.486-.694,1.24-.694a3.61,3.61,0,0,1,1.865.491v-1.233a4.179,4.179,0,0,0-1.861-.387c-1.355,0-2.568.741-2.568,1.852,0,2.29,3.781,1.7,3.781,3.324,0,.668-.725,1.2-1.752,1.2a4.829,4.829,0,0,1-2.3-.713v1.335a4.639,4.639,0,0,0,2.322.539c1.589,0,3.078-.884,3.078-2.391C742.012,338.965,738.209,339.379,738.209,338.294Z" transform="translate(-634.45 -336.471)" fill="#444"/>
          </g>
          <path id="パス_819" data-name="パス 819" d="M814.488,337.053V338.2H816.6v6.109h1.3V338.2h2.108v-1.146Z" transform="translate(-693.433 -336.912)" fill="#444"/>
          <path id="パス_820" data-name="パス 820" d="M850.67,337.053h-2.237v7.255h2.247c2.929,0,4.21-1.664,4.21-3.628S853.61,337.053,850.67,337.053Zm-.934,1.133h1.068c1.891.016,2.768,1.078,2.768,2.494s-.877,2.513-2.768,2.494h-1.068Z" transform="translate(-719.144 -336.912)" fill="#444"/>
          <path id="パス_821" data-name="パス 821" d="M788.856,337.052v7.255h4.922v-1.158h-3.619v-6.1Z" transform="translate(-674.02 -336.911)" fill="#444"/>
          <path id="パス_822" data-name="パス 822" d="M881.195,361.911a.777.777,0,1,1,.779.776.776.776,0,0,1-.779-.776" transform="translate(-743.957 -355.151)" fill="#444"/>
        </g>
      </g>
    </g>
  </g>
</svg>
