<svg xmlns="http://www.w3.org/2000/svg" xmlns:xlink="http://www.w3.org/1999/xlink" width="633" height="389" viewBox="0 0 633 389">
  <defs>
    <clipPath id="clip-path">
      <rect id="長方形_641" data-name="長方形 641" width="474.76" height="47.486"/>
    </clipPath>
    <clipPath id="clip-OEO">
      <rect width="633" height="389"/>
    </clipPath>
  </defs>
  <g id="OEO" clip-path="url(#clip-OEO)">
    <rect width="633" height="389" fill="#fff"/>
    <g id="グループ_1519" data-name="グループ 1519">
      <g id="グループ_920" data-name="グループ 920">
        <rect id="長方形_257" data-name="長方形 257" width="632.995" height="389" fill="none"/>
      </g>
    </g>
    <g id="グループ_1390" data-name="グループ 1390" transform="translate(79 171)">
      <g id="グループ_1389" data-name="グループ 1389" transform="translate(0 0)" clip-path="url(#clip-path)">
        <path id="パス_882" data-name="パス 882" d="M23.953,0C16.334,0,11.311,1.767,6.614,6.107,2.225,10.218,0,16.344,0,23.741,0,31.2,2.2,37.325,6.524,41.379c4.693,4.337,9.743,6.107,17.43,6.107s12.736-1.77,17.43-6.109c4.33-4.052,6.525-10.181,6.525-17.636,0-7.394-2.225-13.521-6.616-17.633C36.6,1.767,31.574,0,23.953,0M13.924,6.637C15.039,2.854,18.893.792,23.953.792c4.473,0,8.117,1.684,9.405,4.718,1.308,3.135,1.97,9.459,1.97,18.231s-.662,15.1-1.97,18.234c-1.288,3.034-4.932,4.719-9.405,4.719-5.06,0-8.915-2.064-10.028-5.846-.893-3.081-1.346-9.029-1.346-17.107s.453-14.022,1.344-17.1" transform="translate(0 -0.001)"/>
        <path id="パス_883" data-name="パス 883" d="M68.3,41.43V4.141C68.3,1.433,66.852,0,64.384,0H52.609V.914h.143c3.357,0,4.991,1.389,4.991,4.247V15.319a11.835,11.835,0,0,0-6.273-1.954c-5.105,0-9.23,1.492-12.264,4.434s-4.567,7.074-4.567,12.276,1.546,9.343,4.6,12.306,7.166,4.463,12.231,4.463a12.405,12.405,0,0,0,6.662-2.222,2.96,2.96,0,0,0,2.648,1.972H73.433v-.913h-.145c-3.357,0-4.989-1.391-4.989-4.251M45.954,17.769a5.448,5.448,0,0,1,5.516-3.487,10.792,10.792,0,0,1,6.273,2.188v24.9a21.291,21.291,0,0,0,.119,2.316,10.932,10.932,0,0,1-6.392,2.245,5.519,5.519,0,0,1-5.516-3.488c-.5-1.148-.759-5.308-.759-12.365,0-6.852.256-11,.759-12.306" transform="translate(17.62 -0.001)"/>
        <path id="パス_884" data-name="パス 884" d="M223.062,0c-7.62,0-12.641,1.767-17.341,6.107-4.389,4.111-6.614,10.236-6.614,17.633,0,7.456,2.2,13.584,6.525,17.638,4.693,4.337,9.743,6.107,17.43,6.107s12.736-1.77,17.431-6.109c4.328-4.052,6.524-10.181,6.524-17.636,0-7.394-2.225-13.521-6.615-17.633C235.706,1.767,230.684,0,223.062,0m-10.03,6.637C214.147,2.854,218,.792,223.062.792c4.473,0,8.118,1.684,9.405,4.718,1.307,3.135,1.97,9.459,1.97,18.231s-.664,15.1-1.97,18.234c-1.288,3.034-4.932,4.719-9.405,4.719-5.06,0-8.915-2.064-10.03-5.846-.892-3.081-1.344-9.029-1.344-17.107s.453-14.022,1.344-17.1" transform="translate(101.282 -0.001)"/>
        <path id="パス_885" data-name="パス 885" d="M267.262,41.43V4.141c0-2.708-1.444-4.141-3.913-4.141H251.574V.914h.143c3.357,0,4.988,1.389,4.988,4.247V15.319a11.834,11.834,0,0,0-6.272-1.954c-5.105,0-9.232,1.492-12.263,4.434S233.6,24.874,233.6,30.075s1.546,9.343,4.6,12.306,7.168,4.463,12.232,4.463a12.4,12.4,0,0,0,6.662-2.222,2.96,2.96,0,0,0,2.646,1.972H272.4v-.913h-.143c-3.358,0-4.992-1.391-4.992-4.251M244.92,17.769a5.443,5.443,0,0,1,5.514-3.487,10.785,10.785,0,0,1,6.272,2.188v24.9a21.248,21.248,0,0,0,.121,2.316,10.932,10.932,0,0,1-6.392,2.245,5.518,5.518,0,0,1-5.516-3.488c-.5-1.148-.756-5.308-.756-12.365,0-6.852.253-11,.757-12.306" transform="translate(118.829 -0.001)"/>
        <path id="パス_886" data-name="パス 886" d="M78.884,8.859c-5.744,0-10.247,1.469-13.383,4.368-3.14,2.942-4.731,7.113-4.731,12.4,0,5.327,1.57,9.5,4.668,12.4,3.135,2.9,7.66,4.366,13.447,4.366A19.47,19.47,0,0,0,88.322,40,19.14,19.14,0,0,0,95.3,33.616l.08-.127-.756-.465-.078.115a18.7,18.7,0,0,1-6.688,6.044,18.5,18.5,0,0,1-8.978,2.3,7.52,7.52,0,0,1-6.3-3.076c-.828-1.133-1.251-5.383-1.257-12.634H97v-.145c0-5.289-1.592-9.461-4.731-12.4-3.138-2.9-7.638-4.368-13.382-4.368m0,.916c3.217,0,5.439,1.26,6.607,3.746.626,1.305.944,5.119.95,11.339H71.327c.009-5.778.48-9.8,1.4-11.973.911-2.064,2.983-3.112,6.157-3.112" transform="translate(30.912 4.506)"/>
        <path id="パス_887" data-name="パス 887" d="M152.617,33.027l-.077.115a18.712,18.712,0,0,1-6.689,6.042,18.477,18.477,0,0,1-8.977,2.3,7.522,7.522,0,0,1-6.3-3.078c-.827-1.136-1.251-5.386-1.255-12.634h25.67v-.145c0-5.286-1.592-9.458-4.731-12.4-3.136-2.9-7.638-4.368-13.38-4.368s-10.248,1.469-13.385,4.368c-3.14,2.943-4.73,7.113-4.73,12.4,0,5.329,1.57,9.5,4.666,12.4,3.135,2.9,7.66,4.368,13.448,4.368A19.461,19.461,0,0,0,146.31,40a19.139,19.139,0,0,0,6.982-6.383l.081-.125Zm-23.3-8.166c.007-5.777.478-9.8,1.4-11.971.913-2.064,2.983-3.114,6.158-3.114,3.216,0,5.439,1.261,6.606,3.748.625,1.3.943,5.116.949,11.338Z" transform="translate(60.41 4.506)"/>
        <path id="パス_888" data-name="パス 888" d="M194.336,33.616l.082-.125-.759-.465-.078.115a18.7,18.7,0,0,1-6.686,6.042,18.5,18.5,0,0,1-8.98,2.3,7.509,7.509,0,0,1-6.3-3.078c-.825-1.132-1.246-5.381-1.251-12.634h25.661v-.145c0-5.291-1.59-9.462-4.731-12.4-3.135-2.9-7.637-4.368-13.382-4.368s-10.235,1.469-13.37,4.368c-3.14,2.94-4.733,7.112-4.733,12.4,0,5.329,1.571,9.5,4.668,12.4,3.133,2.9,7.652,4.368,13.435,4.368a19.445,19.445,0,0,0,9.438-2.4,19.124,19.124,0,0,0,6.984-6.383m-23.97-8.756c.006-5.778.477-9.808,1.393-11.971.911-2.064,2.981-3.114,6.155-3.114,3.218,0,5.442,1.261,6.608,3.748.622,1.3.941,5.108.946,11.338Z" transform="translate(81.293 4.506)"/>
        <path id="パス_889" data-name="パス 889" d="M296.736,45.68c-3.357,0-4.989-1.391-4.989-4.251V4.141c0-2.71-1.447-4.141-3.912-4.141H276.057V.914h.143c3.36,0,4.991,1.389,4.991,4.247V41.428c0,2.86-1.631,4.251-4.989,4.251h-.145v.913H296.88V45.68Z" transform="translate(140.424 -0.001)"/>
        <path id="パス_890" data-name="パス 890" d="M326.9,25.629c0-5.289-1.592-9.461-4.728-12.4-3.14-2.9-7.643-4.368-13.385-4.368s-10.244,1.469-13.382,4.368c-3.141,2.945-4.731,7.118-4.731,12.4,0,5.327,1.569,9.5,4.666,12.4,3.138,2.9,7.663,4.366,13.447,4.366a19.485,19.485,0,0,0,9.441-2.4,19.1,19.1,0,0,0,6.979-6.383l.082-.127-.757-.465-.078.115a18.665,18.665,0,0,1-6.686,6.044,18.488,18.488,0,0,1-8.98,2.3,7.513,7.513,0,0,1-6.3-3.076c-.83-1.136-1.249-5.386-1.257-12.634H326.9ZM308.787,9.775c3.215,0,5.441,1.26,6.608,3.746.627,1.308.947,5.123.952,11.339H301.232c.008-5.771.48-9.8,1.4-11.973.914-2.064,2.984-3.112,6.157-3.112" transform="translate(147.859 4.506)"/>
        <path id="パス_891" data-name="パス 891" d="M269.335,10.843a5.419,5.419,0,0,0,3.91-1.59,5.186,5.186,0,0,0,1.632-3.832,5.181,5.181,0,0,0-1.632-3.832,5.613,5.613,0,0,0-7.825,0,5.176,5.176,0,0,0-1.63,3.832,5.178,5.178,0,0,0,1.63,3.832,5.42,5.42,0,0,0,3.915,1.59" transform="translate(134.185 -0.001)"/>
        <path id="パス_892" data-name="パス 892" d="M281.728,41.077c-3.357,0-4.991-1.391-4.991-4.251V13.193c0-2.711-1.445-4.144-3.912-4.144H261.048v.916h.143c3.36,0,4.989,1.389,4.989,4.248V36.825c0,2.86-1.63,4.251-4.988,4.251h-.145v.913h20.823v-.913Z" transform="translate(132.789 4.602)"/>
        <path id="パス_893" data-name="パス 893" d="M136.281,12.985V12.07H125.05v-8.9h-6.706V4.44c0,5.814-1.967,7.629-6.017,7.629h-10.55v-8.9h-6.7V4.44c0,5.814-1.969,7.629-6.018,7.629H84.4v.916h1.835c3.358,0,4.991,1.389,4.991,4.248V29.465c0,10.506,4.8,15.832,14.263,15.832,3,0,5.095-1.252,6.229-3.725l.06-.133-.84-.367-.062.127a5.457,5.457,0,0,1-5.387,3.18c-2.5,0-3.707-2.055-3.707-6.285V12.985h8.165c3.358,0,4.552,1.389,4.552,4.248V29.465c0,10.506,4.8,15.832,14.263,15.832,3,0,5.095-1.252,6.229-3.725l.06-.133-.842-.367-.059.127a5.462,5.462,0,0,1-5.389,3.18c-2.494,0-3.707-2.046-3.707-6.253V12.985Z" transform="translate(42.93 1.61)"/>
      </g>
    </g>
  </g>
</svg>
