<svg xmlns="http://www.w3.org/2000/svg" xmlns:xlink="http://www.w3.org/1999/xlink" width="633" height="389" viewBox="0 0 633 389">
  <defs>
    <clipPath id="clip-path">
      <rect id="長方形_647" data-name="長方形 647" width="140.27" height="192.082" fill="none"/>
    </clipPath>
    <clipPath id="clip-_6">
      <rect width="633" height="389"/>
    </clipPath>
  </defs>
  <g id="_6" data-name="6" clip-path="url(#clip-_6)">
    <rect width="633" height="389" fill="#fff"/>
    <g id="グループ_916" data-name="グループ 916">
      <rect id="長方形_262" data-name="長方形 262" width="632.995" height="389" transform="translate(0 0)" fill="none"/>
    </g>
    <g id="グループ_1579" data-name="グループ 1579" transform="translate(243.363 98.179)">
      <g id="グループ_1401" data-name="グループ 1401" transform="translate(0 0)" clip-path="url(#clip-path)">
        <path id="パス_960" data-name="パス 960" d="M139.5,122.871a15.288,15.288,0,0,0-.673-2.49,15.3,15.3,0,0,0-1.531-2.074,16.1,16.1,0,0,0-1.542-2.045,20.244,20.244,0,0,0-2.041-1.549,23.109,23.109,0,0,0-2.012-1.6c-.706-.431-1.484-.8-2.277-1.194-.742-.366-1.488-.811-2.306-1.14-.771-.311-1.618-.518-2.454-.8-.793-.268-1.687-.279-2.537-.518-.717-.2-1.517-.746-2.563-1-.789-.192-1.716-.228-2.7-.416-.825-.156-1.719-.315-2.689-.445-.843-.116-1.748-.156-2.707-.235-.865-.076-1.766-.271-2.729-.311-.876-.036-1.8.072-2.754.072-.923,0-1.835-.232-2.769-.239-.836-.007-1.683.007-2.534,0s-1.679.152-2.537.163c-.829.011-1.672,0-2.534.04-.822.036-1.65.206-2.512.279-.818.065-1.654.119-2.516.224-.814.1-1.643.224-2.5.366-.807.134-1.629.315-2.479.489-.8.166-1.69.08-2.537.29-.8.2-1.618.416-2.458.655-.793.224-1.538.7-2.371.966-.785.253-1.676.271-2.5.565-.832.246-1.553.832-2.374,1.108s-1.632.576-2.443.88-1.7.416-2.5.749-1.524.836-2.313,1.2-1.625.623-2.4,1.01-1.6.695-2.36,1.111-1.433.984-2.182,1.426-1.549.785-2.284,1.252-1.488.89-2.2,1.379-1.441.966-2.143,1.477-1.252,1.216-1.94,1.748-1.375,1.05-2.049,1.6-1.408,1.013-2.067,1.585-1.26,1.191-1.9,1.781-1.31,1.129-1.933,1.734-1.165,1.278-1.774,1.9-1.089,1.35-1.683,1.991-1.4,1.071-1.976,1.726-1.136,1.307-1.7,1.973-1.064,1.375-1.614,2.059-.934,1.473-1.469,2.164a17.268,17.268,0,0,0-1.488,1.3c-.688.622-1.994.141-3.033-1.028A10.058,10.058,0,0,1,26.3,140.7a13.142,13.142,0,0,1-1.046-2.689,15.949,15.949,0,0,1-.206-2.877,20.545,20.545,0,0,1,.018-2.852c.094-.854.054-1.73.185-2.6.13-.847.362-1.687.528-2.544.166-.84.423-1.669.623-2.519.2-.832.185-1.73.413-2.573.224-.825.532-1.64.789-2.479.25-.814.442-1.665.724-2.494.275-.8.691-1.571,1-2.389.3-.8.666-1.574.992-2.389.315-.789.706-1.56,1.05-2.363.337-.785.767-1.538,1.129-2.335.355-.778.637-1.6,1.017-2.389s.521-1.665.912-2.45c.387-.767.767-1.549,1.173-2.327.395-.753,1.086-1.361,1.5-2.125s.677-1.589,1.108-2.353c.42-.746.992-1.419,1.433-2.179.431-.742.869-1.491,1.321-2.248.442-.735.731-1.571,1.187-2.316s.814-1.538,1.285-2.287c.46-.731,1-1.426,1.473-2.168.452-.7.908-1.426,1.386-2.161.452-.695.934-1.4,1.408-2.117.46-.7,1-1.365,1.477-2.085.467-.7,1.024-1.35,1.513-2.067.471-.7.934-1.419,1.426-2.132s1.032-1.361,1.527-2.07S54.4,70.57,54.9,69.864c.489-.688,1-1.368,1.509-2.063s1.184-1.241,1.7-1.936.818-1.524,1.339-2.211,1.122-1.3,1.654-1.987,1.05-1.361,1.589-2.041.992-1.4,1.538-2.078,1.136-1.3,1.694-1.962,1.321-1.136,1.886-1.8.89-1.52,1.466-2.175,1.231-1.205,1.77-1.813c.583-.659,1.176-1.256,1.723-1.86.586-.651,1.1-1.328,1.65-1.929.59-.641,1.3-1.133,1.868-1.734.59-.619,1.122-1.27,1.708-1.864s1.234-1.136,1.842-1.726,1.111-1.245,1.737-1.828c.6-.557,1.314-1.01,1.954-1.589.6-.539,1.017-1.332,1.672-1.907.608-.532,1.4-.894,2.067-1.466.612-.525,1.184-1.151,1.853-1.716.615-.525,1.173-1.165,1.846-1.73.623-.518,1.459-.829,2.132-1.386.63-.521,1.14-1.227,1.817-1.788.633-.521,1.317-1.028,1.994-1.585a16.444,16.444,0,0,1,2.23-1.473c.666-.376,1.469-.789,2.349-1.252.735-.387,1.5-.869,2.345-1.285.767-.376,1.589-.738,2.425-1.118.793-.366,1.687-.557,2.519-.908s1.679-.6,2.512-.919,1.636-.76,2.472-1.032c.869-.286,1.737-.525,2.577-.742.9-.232,1.755-.525,2.6-.659a16.693,16.693,0,0,1,2.668-.21c.554,0,.554.181,1.108.188.89,0,1.719-.123,2.5-.181.894-.072,1.737-.04,2.494-.177a17.855,17.855,0,0,0,2.436-.583,11.024,11.024,0,0,0,2.175-1.22,8.8,8.8,0,0,0,2.02-1.462,7.463,7.463,0,0,0,1.281-2.143,8.455,8.455,0,0,0,.615-2.407,4.762,4.762,0,0,0-.72-2.783,10.264,10.264,0,0,0-1.48-2.512c-.431-.481-1.636-.637-2.82-1.006-.927-.286-1.878-.832-2.812-1.028-1.607-.34-2.935-.525-2.939-.525-.767-.083-1.553,0-2.327-.054s-1.545-.13-2.32-.159-1.553-.014-2.324-.014c-.945,0-1.857-.051-2.729-.014-.952.04-1.842.319-2.7.391-.963.083-1.871.051-2.7.159-.992.13-1.9.174-2.689.319-1.082.2-1.951.471-2.62.637-.836.2-1.716.239-2.537.478s-1.567.746-2.382,1.017-1.618.561-2.418.861-1.582.662-2.371.992-1.661.481-2.439.84-1.48.872-2.248,1.256-1.527.771-2.284,1.176-1.578.691-2.316,1.118-1.491.858-2.219,1.307-1.386,1.017-2.107,1.484-1.506.84-2.211,1.325-1.3,1.144-1.991,1.643-1.477.887-2.161,1.4-1.27,1.165-1.944,1.69-1.263,1.165-1.926,1.7-1.509.88-2.164,1.43-1.354,1.071-2,1.632-1.118,1.332-1.759,1.9-1.4,1.006-2.034,1.578-1.328,1.093-1.954,1.669-1.089,1.365-1.712,1.947-1.336,1.086-1.951,1.669-1.136,1.307-1.752,1.893-1.249,1.14-1.85,1.716c-.579.554-.644.489-1.227,1.042-.5.471-1.256,1.032-2.009,1.8-.586.6-1.032,1.448-1.69,2.132-.623.648-1.469,1.115-2.092,1.766-.651.688-1.187,1.455-1.774,2.07-1.032,1.082-1.14.977-2.175,2.052-.547.557-.963,1.368-1.593,2.1-.532.619-1.075,1.3-1.661,2.027-.521.648-1.169,1.249-1.726,1.976-.514.67-1.028,1.379-1.567,2.106-.5.684-.981,1.422-1.506,2.154q-.749,1.042-1.52,2.139c-.492.706-.963,1.448-1.466,2.183-.485.706-1.017,1.4-1.509,2.128s-.927,1.469-1.412,2.2-.9,1.491-1.386,2.23-1.129,1.35-1.6,2.1-.992,1.437-1.459,2.183-.789,1.571-1.252,2.32-.771,1.585-1.227,2.338-1.151,1.365-1.6,2.121-.861,1.542-1.307,2.3-1.021,1.448-1.459,2.211-.561,1.723-1,2.49-.876,1.538-1.3,2.3c-.434.782-1.147,1.4-1.564,2.172s-.709,1.6-1.108,2.356a14.984,14.984,0,0,0-1.379,2.28c-.34.666-.713,1.48-1.144,2.4-.344.728-.706,1.538-1.086,2.411-.333.767-.561,1.636-.908,2.5-.319.785-.485,1.672-.807,2.534-.3.8-.775,1.571-1.068,2.436-.282.822-.485,1.69-.753,2.559-.261.832-.673,1.636-.919,2.512-.279.8-.264,1.679-.521,2.476s-.68,1.556-.916,2.36-.6,1.589-.814,2.4-.134,1.7-.326,2.519-.7,1.571-.865,2.389-.065,1.7-.21,2.526-.442,1.629-.557,2.458-.2,1.672-.29,2.5.036,1.694-.025,2.53-.319,1.661-.355,2.5S.007,138.2,0,139.035s.235,1.683.253,2.519.138,1.669.188,2.5.1,1.658.185,2.49c.221.825.431,1.614.7,2.385.282.8.594,1.571.919,2.32.344.778.59,1.582.974,2.309.391.746.677,1.549,1.108,2.255s1.194,1.216,1.661,1.9.818,1.469,1.31,2.135.941,1.379,1.448,2.03.959,1.364,1.473,2.012c.619.778,1.339,1.437,1.918,2.186.6.775,1.2,1.527,1.752,2.316.5.695,1.064,1.346,1.629,2.023.543.659.927,1.484,1.535,2.125.586.619,1.31,1.129,1.954,1.73.623.579,1.332,1.086,2.009,1.654.651.547,1.3,1.118,2.005,1.65.68.518,1.321,1.111,2.045,1.611.706.489,1.517.836,2.262,1.31.72.46,1.517.814,2.277,1.26.742.434,1.469.9,2.244,1.328.756.409,1.5.869,2.287,1.267.764.442,1.455.992,2.211,1.393.778.409,1.549.818,2.324,1.187.793.376,1.567.785,2.363,1.118s1.737.329,2.548.623,1.618.608,2.45.858,1.607.67,2.454.88,1.672.452,2.53.619c.84.163,1.7.279,2.57.4.847.123,1.716.2,2.591.29.843.087,1.7.264,2.57.322.854.054,1.734,0,2.62.022.858.025,1.73.007,2.62.007.851,0,1.716-.051,2.588-.112.847-.062,1.708-.159,2.57-.271s1.712-.181,2.566-.333,1.712-.239,2.555-.423,1.65-.528,2.487-.735,1.694-.391,2.523-.615,1.632-.586,2.45-.822c.84-.239,1.676-.452,2.487-.695s1.611-.405,2.378-.644c.8-.25,1.545-.608,2.313-.869.785-.264,1.614-.384,2.378-.673s1.473-.72,2.233-1.05c.742-.319,1.538-.55,2.287-.919.717-.355,1.383-.843,2.117-1.252.695-.391,1.4-.8,2.128-1.249.673-.423,1.292-.966,2-1.448.717-.55,1.549-.93,2.244-1.477s1.3-1.252,1.987-1.806,1.546-.945,2.226-1.506c.695-.579,1.4-1.129,2.067-1.7.688-.586,1.162-1.4,1.821-1.976.677-.6,1.379-1.144,2.027-1.734.666-.6,1.325-1.2,1.962-1.8.659-.619,1.466-1.06,2.092-1.672.648-.63,1.274-1.267,1.889-1.889.633-.644,1.285-1.256,1.886-1.889.623-.662,1.14-1.4,1.726-2.056.6-.673,1.115-1.408,1.679-2.074.583-.691,1.27-1.278,1.813-1.954.565-.709.937-1.546,1.459-2.244.539-.727,1.01-1.477,1.5-2.193.51-.749.97-1.5,1.43-2.237.481-.771,1.227-1.361,1.65-2.121.438-.789.521-1.745.9-2.519.391-.818.753-1.622,1.075-2.421.431-.778.858-1.535,1.227-2.3.384-.8.937-1.5,1.256-2.284.337-.825.543-1.676.8-2.483.275-.843.659-1.643.851-2.472.2-.861.362-1.726.471-2.566a23.789,23.789,0,0,0,.185-2.606,21.039,21.039,0,0,0-.282-2.588,19.64,19.64,0,0,0-.485-2.53m-23.624,10.018c-.395,1.184-1.151,1.6-1.889,2.823-.507.706-.865,1.545-1.444,2.262-.547.684-1.252,1.263-1.853,1.954-.579.662-1.046,1.448-1.669,2.114-.6.648-1.361,1.169-1.994,1.813s-1.231,1.3-1.878,1.933-1.365,1.169-2.02,1.784-1.256,1.3-1.922,1.9-1.18,1.393-1.853,1.983-1.564.956-2.24,1.531c-.7.6-1.285,1.31-1.969,1.882-.7.586-1.4,1.147-2.074,1.7-.713.583-1.368,1.194-2.041,1.734-.373.3-1.158.735-2.164,1.408-.615.413-1.278.981-2.117,1.466-.684.4-1.545.612-2.374,1.032-.724.366-1.488.753-2.32,1.115-.753.329-1.491.8-2.327,1.108-.778.293-1.6.543-2.45.811-.8.253-1.593.612-2.45.832-.814.214-1.665.384-2.53.561-.825.167-1.679.329-2.555.46-.836.127-1.694.264-2.573.351-.843.087-1.726-.13-2.61-.087-.851.043-1.708.065-2.6.065-.72,0-1.459.217-2.255.188-.713-.011-1.614-.308-2.671-.416a21.788,21.788,0,0,1-2.711-.072,21.389,21.389,0,0,1-2.624-.713,18.257,18.257,0,0,1-2.4-1.274,15.115,15.115,0,0,1-2.367-1.321,14.005,14.005,0,0,1-1.875-1.958c-.094-.116.014-.185-.065-.308a3.822,3.822,0,0,1-.93-2.219,7.216,7.216,0,0,1,.612-1.582c.478-.612,1.068-1.234,1.723-1.954.543-.6,1.158-1.205,1.835-1.864.59-.572,1.075-1.339,1.777-1.951.63-.543,1.321-1.089,2.045-1.661.662-.518,1.437-.948,2.182-1.484.684-.5,1.375-1.042,2.135-1.546.709-.467,1.488-.883,2.266-1.357.728-.445,1.441-.974,2.233-1.419.742-.423,1.444-.981,2.248-1.4.76-.4,1.687-.532,2.5-.93.775-.38,1.567-.76,2.389-1.14.785-.358,1.564-.771,2.392-1.126.793-.344,1.535-.854,2.371-1.191.8-.322,1.7-.434,2.548-.753.811-.3,1.64-.6,2.487-.9.818-.29,1.636-.623,2.494-.908.822-.275,1.625-.659,2.487-.93.829-.261,1.73-.348,2.6-.6.836-.246,1.672-.55,2.541-.789.771-.21,1.574-.572,2.468-.778.8-.185,1.665-.29,2.544-.467.822-.17,1.687-.253,2.555-.413.836-.148,1.65-.525,2.512-.662s1.716-.2,2.57-.322,1.716-.308,2.57-.409,1.745-.062,2.591-.145c.88-.083,1.752-.09,2.592-.148.894-.058,1.759-.036,2.581-.062.912-.025,1.763.062,2.566.087a3.982,3.982,0,0,1,2,.423,1.582,1.582,0,0,1,.405,1.951" transform="translate(0 0.003)"/>
        <path id="パス_961" data-name="パス 961" d="M131.11,121.463a9.149,9.149,0,0,0-1.285-2.45,11.359,11.359,0,0,0-1.839-2.034,15.966,15.966,0,0,0-2.2-1.632,23.166,23.166,0,0,0-2.447-1.245c-.843-.405-1.614-.952-2.458-1.267-.9-.34-1.831-.474-2.657-.728-.977-.3-1.857-.608-2.61-.818-.713-.2-1.556-.376-2.523-.615-.76-.188-1.589-.409-2.523-.59-.785-.152-1.6-.485-2.523-.615-.8-.112-1.672-.087-2.581-.167-.822-.072-1.69-.043-2.606-.083-.829-.036-1.7-.134-2.606-.134-.843,0-1.694.112-2.563.145-.847.033-1.708-.083-2.577-.018-.847.062-1.7.2-2.563.29-.843.09-1.708.069-2.573.188-.832.112-1.665.333-2.516.474-.832.138-1.679.286-2.53.452-.832.159-1.647.452-2.5.641-.832.181-1.712.2-2.559.405-.825.2-1.687.3-2.523.525s-1.661.463-2.5.7c-.822.239-1.636.554-2.468.811-.829.322-1.567.876-2.382,1.216s-1.618.731-2.425,1.093-1.65.648-2.45,1.032-1.607.746-2.4,1.155-1.5.945-2.277,1.375-1.65.677-2.414,1.129-1.56.851-2.313,1.325-1.393,1.1-2.128,1.6-1.535.887-2.259,1.4-1.328,1.18-2.038,1.716-1.375,1.1-2.07,1.661-1.538.912-2.219,1.488-1.317,1.184-1.987,1.777-1.231,1.274-1.886,1.882-1.281,1.2-1.918,1.824-1.151,1.339-1.774,1.976-1.466,1.042-2.078,1.7-1.093,1.4-1.694,2.067-1.274,1.231-1.86,1.907-1.122,1.375-1.7,2.067-1.013,1.466-1.578,2.164c-.956,1.173-1.173,1.524-1.73,1.69a5.546,5.546,0,0,1-2.83-.192,7.166,7.166,0,0,1-2.584-1.1,13.349,13.349,0,0,1-2.1-1.922,22.058,22.058,0,0,1-1.614-2.2,24.956,24.956,0,0,1-1.535-2.269,25.617,25.617,0,0,1-1.1-2.512,24.935,24.935,0,0,1-1.021-2.548,18.535,18.535,0,0,1-.344-2.722,14.18,14.18,0,0,1-.246-2.718c.058-.8.427-1.632.575-2.559.134-.807.29-1.654.489-2.555.185-.811.08-1.734.319-2.613.217-.811.561-1.621.825-2.487.25-.807.7-1.578.992-2.432.271-.8.492-1.65.8-2.494.293-.793.409-1.679.728-2.5.311-.793.88-1.5,1.216-2.32.326-.789.619-1.607.97-2.421.337-.785.709-1.571,1.071-2.378.351-.785.746-1.56,1.122-2.363.366-.778.623-1.621,1.01-2.418.373-.775.767-1.556,1.162-2.349.387-.771.8-1.545,1.2-2.331s.637-1.632,1.05-2.414.807-1.549,1.231-2.324.948-1.473,1.379-2.244.811-1.549,1.249-2.316,1.042-1.415,1.491-2.179c.438-.746.89-1.491,1.343-2.24s.7-1.611,1.158-2.36,1.14-1.343,1.611-2.088.7-1.621,1.173-2.363,1.1-1.368,1.589-2.1.952-1.469,1.444-2.2.93-1.484,1.426-2.215,1.013-1.43,1.52-2.154,1.017-1.43,1.531-2.15,1-1.433,1.517-2.146,1.089-1.372,1.618-2.081.9-1.513,1.441-2.215,1.249-1.256,1.788-1.954,1-1.451,1.553-2.143,1.155-1.328,1.708-2.012,1.053-1.412,1.618-2.092,1-1.466,1.567-2.143,1.379-1.144,1.958-1.813,1.1-1.39,1.687-2.056c.547-.623,1.1-1.267,1.679-1.915.557-.619,1.06-1.31,1.647-1.947.565-.619,1.122-1.263,1.716-1.889.575-.608,1.209-1.184,1.81-1.8s1.241-1.151,1.853-1.755c.594-.594,1.256-1.133,1.875-1.726.6-.583,1.039-1.35,1.661-1.933s1.375-1,2.012-1.564,1.3-1.079,1.947-1.632,1.1-1.321,1.766-1.864,1.495-.843,2.168-1.368,1.289-1.108,1.976-1.618,1.437-.908,2.135-1.4,1.26-1.162,1.969-1.632,1.48-.836,2.2-1.289,1.459-.869,2.2-1.3,1.466-.865,2.215-1.274,1.4-1.01,2.161-1.4,1.625-.547,2.4-.908,1.574-.651,2.363-.988,1.491-.854,2.291-1.165c.532-.206,1.441-.337,2.581-.644.742-.2,1.553-.619,2.519-.825.8-.17,1.7-.2,2.642-.355.825-.138,1.687-.366,2.61-.481.843-.1,1.745,0,2.66-.076.858-.072,1.737-.286,2.653-.329.865-.036,1.759-.181,2.675-.185.224,0,.224.17.449.17a4.917,4.917,0,0,0,2.128-.481,5.044,5.044,0,0,0,1.792-1.285,3.394,3.394,0,0,0,.713-2.081c0-1.22-.887-1.173-1.531-2.19a3.181,3.181,0,0,0-1.842-1.332,11.1,11.1,0,0,0-2.277-.72c-.677-.112-1.477-.112-2.4-.2-.007,0-1.017-.007-2.628-.119C115.6.959,114.711.821,113.723.8,112.9.778,112.011.7,111.081.72c-.851.022-1.752-.1-2.657-.029-.869.069-1.759.206-2.642.34s-1.723.442-2.581.648-1.7.518-2.552.764-1.708.489-2.548.775-1.672.6-2.5.923-1.745.431-2.559.782-1.632.717-2.436,1.1-1.545.89-2.331,1.3-1.571.829-2.345,1.267-1.593.8-2.353,1.256-1.43,1.071-2.175,1.553-1.451,1.024-2.186,1.527-1.585.836-2.306,1.354S75.5,15.364,74.8,15.9s-1.292,1.238-1.987,1.788-1.441,1.05-2.128,1.614-1.39,1.115-2.067,1.69-1.245,1.281-1.911,1.864-1.383,1.122-2.041,1.712S63.2,25.607,62.548,26.2s-1.209,1.325-1.857,1.929-1.4,1.111-2.038,1.719-1.321,1.2-1.962,1.81-1.176,1.321-1.806,1.922c-.709.68-1.441,1.328-2.15,2S51.393,37,50.687,37.663s-1.535,1.2-2.24,1.86c-.543.554-.952,1.332-1.56,2.005-.536.59-1.147,1.176-1.726,1.85-.528.615-1.071,1.267-1.632,1.947-.518.633-1.22,1.155-1.766,1.842-.51.644-.9,1.419-1.433,2.11-.5.659-1.042,1.314-1.56,2.012-.5.662-.89,1.419-1.4,2.114-.489.677-1.068,1.3-1.567,2.005-.481.684-.908,1.419-1.4,2.128-.478.691-1.115,1.289-1.6,2s-.9,1.433-1.379,2.154c-.46.7-.861,1.451-1.321,2.168S29.177,65.272,28.725,66s-.756,1.527-1.2,2.262-.84,1.477-1.281,2.215-1.079,1.336-1.506,2.078-.941,1.433-1.361,2.179-.525,1.661-.934,2.414-1.118,1.343-1.52,2.106c-.423.67-.88,1.426-1.379,2.259-.423.709-.6,1.632-1.068,2.447-.42.731-1.01,1.412-1.455,2.222-.409.746-.648,1.621-1.071,2.432-.4.756-1.013,1.433-1.422,2.24-.395.771-.724,1.593-1.122,2.4-.384.782-.742,1.589-1.126,2.4-.373.793-.691,1.618-1.06,2.432s-.963,1.506-1.317,2.324-.579,1.665-.919,2.483-.673,1.629-1,2.454-.623,1.658-.93,2.49-.615,1.665-.9,2.5-.344,1.755-.615,2.6-.84,1.6-1.086,2.45-.275,1.77-.5,2.624-.6,1.687-.793,2.544-.42,1.737-.579,2.6c-.166.883-.043,1.8-.166,2.671-.13.89-.4,1.748-.481,2.62-.083.894.058,1.788.025,2.66-.036.9-.279,1.784-.253,2.653.025.9.315,1.763.409,2.628.1.894.036,1.8.21,2.642.224.767.431,1.607.742,2.465.282.764.742,1.509,1.093,2.334.322.764.731,1.517,1.115,2.32.362.753.619,1.585,1.032,2.367.395.742.749,1.535,1.191,2.295.423.731,1.006,1.386,1.473,2.128.452.717.843,1.491,1.336,2.215.478.7,1.024,1.368,1.542,2.07s1.039,1.361,1.582,2.041.981,1.422,1.549,2.081,1.126,1.31,1.716,1.944,1.3,1.144,1.915,1.752,1.227,1.205,1.871,1.784,1.328,1.1,2,1.643,1.278,1.173,1.973,1.687,1.346,1.1,2.07,1.571,1.509.858,2.255,1.292,1.495.872,2.266,1.263c.76.442,1.643.63,2.4,1.035s1.506.883,2.284,1.26,1.531.843,2.32,1.187,1.665.543,2.468.854,1.65.55,2.468.829,1.549.88,2.378,1.122,1.7.42,2.541.623,1.763.094,2.613.261,1.7.3,2.563.427,1.69.489,2.552.572,1.745-.058,2.613-.014,1.73.029,2.6.029,1.745.275,2.61.235,1.737-.152,2.6-.235,1.716-.268,2.577-.391,1.719-.246,2.577-.409,1.719-.246,2.57-.449,1.661-.51,2.5-.749,1.7-.38,2.53-.655,1.567-.771,2.385-1.079,1.607-.637,2.411-.977,1.647-.561,2.439-.93,1.491-.883,2.269-1.281,1.65-.59,2.418-1.017c.749-.416,1.491-.876,2.24-1.325s1.5-.876,2.24-1.35,1.4-1.035,2.132-1.531c.68-.539,1.31-1.129,1.973-1.665s1.278-1.165,1.929-1.708c.67-.554,1.375-1.05,2.02-1.6.662-.565,1.274-1.169,1.915-1.726s1.422-1,2.052-1.567c.648-.579,1.241-1.205,1.864-1.781.644-.6,1.223-1.245,1.839-1.835.637-.6,1.158-1.3,1.763-1.9.623-.619,1.386-1.075,1.98-1.683.612-.626,1.267-1.191,1.846-1.81.6-.641,1.144-1.307,1.708-1.936.579-.652,1.147-1.3,1.694-1.94.565-.666.912-1.488,1.433-2.143.547-.684,1.086-1.346,1.589-2.02.525-.7,1.278-1.22,1.755-1.911.5-.724.869-1.513,1.314-2.222.467-.746.756-1.567,1.165-2.295.427-.771.963-1.451,1.328-2.2.384-.8.623-1.625.93-2.4.329-.822.724-1.589.966-2.385a24.138,24.138,0,0,0,.637-2.486,20,20,0,0,0,.148-2.563,18.548,18.548,0,0,0,.174-2.541,16.386,16.386,0,0,0-.257-2.555m-14.163,4.893a24.108,24.108,0,0,1-.6,2.512c-.279.811-.554,1.629-.912,2.421s-.717,1.564-1.136,2.324-.785,1.538-1.26,2.266-1.129,1.31-1.643,2.009-.9,1.473-1.451,2.143-1.155,1.281-1.73,1.926-1.118,1.317-1.719,1.94-1.238,1.209-1.853,1.81-1.383,1.053-2.016,1.632-1.2,1.252-1.842,1.813-1.256,1.205-1.911,1.752c-.673.565-1.4,1.057-2.059,1.593-.684.554-1.3,1.169-1.954,1.69-.695.554-1.48.956-2.135,1.469-.706.55-1.35,1.126-1.994,1.632-.717.557-1.466.988-2.092,1.491-.485.391-1.118.992-2.009,1.607-.626.434-1.354.908-2.179,1.408-.688.413-1.383.956-2.2,1.39-.724.384-1.582.615-2.407,1-.753.351-1.585.59-2.421.93-.775.311-1.571.626-2.414.919-.8.275-1.593.6-2.447.854-.811.239-1.589.691-2.45.9-.825.2-1.672.42-2.541.583-.836.159-1.716.2-2.6.326-.843.116-1.716.177-2.6.257-.851.08-1.716.275-2.606.315-.854.04-1.734-.159-2.62-.159-.778,0-1.567-.094-2.363-.13a19.744,19.744,0,0,1-2.555-.025c-.785-.1-1.611-.373-2.5-.561-.8-.17-1.679-.206-2.523-.452-.8-.232-1.64-.471-2.447-.778s-1.477-.883-2.24-1.267a20.488,20.488,0,0,1-2.23-1.234,16.07,16.07,0,0,1-2.1-1.469,12.51,12.51,0,0,1-1.7-1.915,10.467,10.467,0,0,1-1.372-2.186,10.424,10.424,0,0,1-.319-2.566c-.293-1.719-.568-2.179-.062-3.4A22.023,22.023,0,0,1,36.2,151c.423-.59.9-1.3,1.542-2.063.492-.6.937-1.346,1.571-2.03.543-.583,1.089-1.256,1.745-1.9.579-.568,1.372-.981,2.041-1.585.612-.55,1.169-1.22,1.857-1.8.637-.528,1.3-1.082,2.009-1.629.655-.51,1.4-.959,2.117-1.48.68-.489,1.317-1.086,2.052-1.582.7-.467,1.466-.872,2.215-1.343.713-.449,1.383-1.013,2.143-1.462.724-.431,1.582-.67,2.353-1.1.738-.409,1.43-.945,2.211-1.35.753-.395,1.643-.547,2.436-.934.764-.376,1.538-.753,2.338-1.122.771-.355,1.43-1,2.237-1.354.782-.34,1.622-.579,2.436-.912.785-.318,1.654-.456,2.472-.767.8-.308,1.582-.673,2.407-.974.807-.29,1.556-.767,2.392-1.05.807-.271,1.708-.29,2.544-.554.818-.261,1.636-.561,2.483-.811.825-.246,1.665-.467,2.515-.7.811-.217,1.694-.394,2.628-.6.84-.188,1.7-.5,2.617-.677.861-.167,1.755-.319,2.664-.478.876-.148,1.77-.279,2.675-.416.887-.138,1.755-.449,2.653-.568s1.8-.253,2.693-.358,1.828-.076,2.711-.163c.923-.09,1.824-.224,2.7-.29.934-.069,1.85.072,2.707.033.959-.043,1.857-.054,2.689-.054.242,0,.271-.243.51-.206a11.291,11.291,0,0,1,2.255.952,5.953,5.953,0,0,1,2.157,1.14,4.83,4.83,0,0,1,.872,2.269,14.653,14.653,0,0,1,.257,2.407c.014.308.145.322.083.623-.033.163-.206.1-.242.235" transform="translate(4.473 1.751)" fill="#c4a349"/>
      </g>
    </g>
  </g>
</svg>
