<svg xmlns="http://www.w3.org/2000/svg" xmlns:xlink="http://www.w3.org/1999/xlink" width="633" height="389" viewBox="0 0 633 389">
  <defs>
    <clipPath id="clip-path">
      <rect id="長方形_654" data-name="長方形 654" width="474.76" height="37.559"/>
    </clipPath>
    <clipPath id="clip-AM">
      <rect width="633" height="389"/>
    </clipPath>
  </defs>
  <g id="AM" clip-path="url(#clip-AM)">
    <rect width="633" height="389" fill="#fff"/>
    <g id="グループ_1520" data-name="グループ 1520">
      <rect id="長方形_267" data-name="長方形 267" width="632.995" height="389" transform="translate(0)" fill="none"/>
    </g>
    <g id="グループ_1488" data-name="グループ 1488" transform="translate(79 176)">
      <g id="グループ_1420" data-name="グループ 1420" transform="translate(0 0)">
        <g id="グループ_1419" data-name="グループ 1419" clip-path="url(#clip-path)">
          <path id="パス_989" data-name="パス 989" d="M383.124,0c10.329,0,18.258,8.138,18.258,18.779s-7.929,18.78-18.258,18.78-18.258-8.138-18.258-18.78S372.8,0,383.124,0m0,32.25c7.269,0,12.708-5.744,12.708-13.471,0-7.676-5.439-13.471-12.708-13.471S370.416,11.1,370.416,18.779c0,7.727,5.439,13.471,12.708,13.471" transform="translate(-5.399 0)"/>
          <path id="パス_990" data-name="パス 990" d="M52.85,31.75V20.119H64.133v-5.3H52.85V5.83H66.41V.529H47.292V37.051H67.919v-5.3Z" transform="translate(-0.7 -0.008)"/>
          <path id="パス_991" data-name="パス 991" d="M145.231,31.75V20.119h11.283v-5.3H145.231V5.83h13.559V.529H139.673V37.051H160.3v-5.3Z" transform="translate(-2.067 -0.008)"/>
          <path id="パス_992" data-name="パス 992" d="M121.414.529l-.043.141L113.237,25.8,104.326,3.248h-2.993L92.422,25.8,84.288.67,84.245.529H78.56L90.512,37.051H93.5l9.325-23.225,9.325,23.225h2.993L127.1.529Z" transform="translate(-1.162 -0.008)"/>
          <path id="パス_993" data-name="パス 993" d="M201.357.529V26.081L179.064.529h-2.993V37.051h5.558V11.5l22.293,25.552h2.993V.529Z" transform="translate(-2.605 -0.008)"/>
          <path id="パス_994" data-name="パス 994" d="M277.122.529,262.37,19.206,247.618.529h-2.993V37.051h5.558V12.544l10.69,13.307h2.994l10.688-13.307V37.051h5.56V.529Z" transform="translate(-3.62 -0.008)"/>
          <path id="パス_995" data-name="パス 995" d="M332.3.529v5.3H342.1V37.051h5.559V5.83h9.8V.529Z" transform="translate(-4.917 -0.008)"/>
          <path id="パス_996" data-name="パス 996" d="M475.867.529V15.112H456.141V.529h-5.56V37.051h5.56V20.413h19.727V37.051h5.56V.529Z" transform="translate(-6.667 -0.008)"/>
          <path id="パス_997" data-name="パス 997" d="M34.92,37.051,18.956.529H15.963L0,37.051H5.8l3.268-7.559h16.74l3.312,7.559Zm-23.5-12.86L17.46,10.583l6.026,13.608Z" transform="translate(0 -0.008)"/>
          <path id="パス_998" data-name="パス 998" d="M327.415,37.051,311.452.529h-2.993L292.5,37.051h5.8l3.268-7.559H318.3l3.312,7.559Zm-23.5-12.86,6.037-13.608,6.025,13.608Z" transform="translate(-4.328 -0.008)"/>
          <path id="パス_999" data-name="パス 999" d="M428.624.53H415.055V37.051h5.559V21.375h8.011c7.588,0,10.972-5.8,10.972-10.422S436.213.53,428.624.53m5.413,10.422c0,3.073-2.232,5.123-5.943,5.123h-7.481V5.83h7.481c3.71,0,5.943,2.049,5.943,5.122" transform="translate(-6.141 -0.008)"/>
        </g>
      </g>
    </g>
  </g>
</svg>
