<svg xmlns="http://www.w3.org/2000/svg" xmlns:xlink="http://www.w3.org/1999/xlink" width="633" height="389" viewBox="0 0 633 389">
  <defs>
    <clipPath id="clip-path">
      <rect id="長方形_694" data-name="長方形 694" width="366.86" height="207.04" fill="none"/>
    </clipPath>
    <clipPath id="clip-GLR">
      <rect width="633" height="389"/>
    </clipPath>
  </defs>
  <g id="GLR" clip-path="url(#clip-GLR)">
    <rect width="633" height="389" fill="#fff"/>
    <g id="グループ_906" data-name="グループ 906">
      <rect id="長方形_255" data-name="長方形 255" width="632.995" height="389" transform="translate(0 0)" fill="none"/>
    </g>
    <g id="グループ_1577" data-name="グループ 1577" transform="translate(-1657 -647.075)">
      <g id="グループ_1576" data-name="グループ 1576" transform="translate(1790 728)">
        <g id="グループ_1575" data-name="グループ 1575" transform="translate(0 0)" clip-path="url(#clip-path)">
          <path id="パス_1250" data-name="パス 1250" d="M58.171,85.412A76.1,76.1,0,0,0,70.693,94.4a.3.3,0,0,0,.3,0,75.7,75.7,0,0,0,12.536-8.983C89.257,80.307,96.1,72.33,96.1,63.32c0-17.1-24.73-62.7-24.986-63.157A.31.31,0,0,0,70.848,0a.328.328,0,0,0-.283.162C70.323.619,45.593,46.218,45.593,63.32c0,9.011,6.84,16.988,12.578,22.093" transform="translate(111.991 0)" fill="#008446"/>
          <path id="パス_1251" data-name="パス 1251" d="M27.685,54.34h-.007c-1.756,1.49-2.648,3.875-2.648,7.1V70.9h2.008V61.443c0-2.547.626-4.41,1.88-5.537a6.274,6.274,0,0,1,4.355-1.448,6.585,6.585,0,0,1,4.417,1.448c1.255,1.127,1.887,2.99,1.887,5.537V70.9h2V61.443c0-3.228-.892-5.613-2.648-7.1a8.522,8.522,0,0,0-5.623-1.839,8.495,8.495,0,0,0-5.623,1.835" transform="translate(61.484 128.969)"/>
          <path id="パス_1252" data-name="パス 1252" d="M0,61.908v0a9.268,9.268,0,0,0,9.626,9.4,8.741,8.741,0,0,0,7.279-3.57v.874a7.309,7.309,0,0,1-7.238,7.524A7.553,7.553,0,0,1,5.05,74.516,7.689,7.689,0,0,1,3.08,72.2l-.256-.415H.65l.342.771a9.609,9.609,0,0,0,8.8,5.516A9.265,9.265,0,0,0,18.9,68.461V61.576l-.007-.183a9.639,9.639,0,0,0-.9-3.66A9.226,9.226,0,0,0,9.519,52.5,9.251,9.251,0,0,0,0,61.908m9.526-7.466a7.465,7.465,0,0,1,.1,14.928A7.352,7.352,0,0,1,2,61.9a7.253,7.253,0,0,1,7.528-7.462" transform="translate(0 128.964)"/>
          <path id="パス_1253" data-name="パス 1253" d="M14.927,52.529a8.784,8.784,0,0,0-4.645,1.2c-2.416,1.559-2.755,3.826-2.755,6.031V70.9h2V59.877c0-2.419.494-3.608,1.87-4.521a6.674,6.674,0,0,1,3.574-.94l.525-.021V52.505Z" transform="translate(18.489 128.969)"/>
          <path id="パス_1254" data-name="パス 1254" d="M26.976,65.225a7.166,7.166,0,0,1-6.691,4.134,7.35,7.35,0,0,1-7.358-6.812H29.613l.069-1a9.279,9.279,0,0,0-9.4-9.049,9.4,9.4,0,1,0-.028,18.792,9.147,9.147,0,0,0,8.717-5.613l.194-.467H26.99ZM20.284,54.434h.028a7.379,7.379,0,0,1,7.255,6.176H12.981a7.224,7.224,0,0,1,7.3-6.176" transform="translate(26.597 128.962)"/>
          <path id="パス_1255" data-name="パス 1255" d="M33.992,65.225A7.166,7.166,0,0,1,27.3,69.358a7.362,7.362,0,0,1-7.372-6.812h16.7l.069-1A9.283,9.283,0,0,0,27.3,52.5a9.4,9.4,0,1,0-.035,18.792,9.156,9.156,0,0,0,8.724-5.613l.2-.467h-2.2ZM27.3,54.434h.021a7.369,7.369,0,0,1,7.255,6.176H20a7.219,7.219,0,0,1,7.3-6.176" transform="translate(43.83 128.962)"/>
          <path id="パス_1256" data-name="パス 1256" d="M37.048,50.7H35.6V75.341h2V50.7Z" transform="translate(87.453 124.529)"/>
          <path id="パス_1257" data-name="パス 1257" d="M60.821,50.7H59.369V75.341h2V50.7Z" transform="translate(145.829 124.529)"/>
          <path id="パス_1258" data-name="パス 1258" d="M37.974,61.908v0a9.258,9.258,0,0,0,9.619,9.4,8.754,8.754,0,0,0,7.286-3.57v3.149l2-.017-.007-9.3-.014-.183a9.507,9.507,0,0,0-.892-3.66,9.507,9.507,0,0,0-18,4.175M47.5,54.442A7.465,7.465,0,1,1,39.972,61.9,7.284,7.284,0,0,1,47.5,54.442" transform="translate(93.276 128.964)"/>
          <path id="パス_1259" data-name="パス 1259" d="M46.747,50.7l-1.438.01.007,15.972,0,.18a9.714,9.714,0,0,0,.892,3.66,9.469,9.469,0,1,0,8.378-13.583,8.737,8.737,0,0,0-7.282,3.574V50.695Zm.512,15.65A7.239,7.239,0,0,1,54.6,58.886a7.341,7.341,0,0,1,7.614,7.466,7.476,7.476,0,0,1-14.952,0" transform="translate(111.293 124.523)"/>
          <path id="パス_1260" data-name="パス 1260" d="M68.378,65.225a7.163,7.163,0,0,1-6.685,4.134,7.347,7.347,0,0,1-7.365-6.812H71.022l.062-1a9.426,9.426,0,1,0-9.418,9.743,9.131,9.131,0,0,0,8.71-5.613l.2-.467H68.385ZM61.693,54.434h.021a7.374,7.374,0,0,1,7.255,6.176H54.383a7.226,7.226,0,0,1,7.31-6.176" transform="translate(128.31 128.962)"/>
          <path id="パス_1261" data-name="パス 1261" d="M99.648,52.823s-5.247,6.266-5.979,7.148c-.743-.881-6.131-7.345-6.131-7.345l-2.651.014s6.944,8.3,7.49,8.945c-.546.653-7.5,9.021-7.5,9.021l2.672-.017s5.375-6.494,6.118-7.386c.74.892,6.142,7.386,6.142,7.386l2.606.017s-6.926-8.371-7.466-9.021L102.4,52.64l-2.585-.014Z" transform="translate(208.49 129.266)"/>
          <path id="パス_1262" data-name="パス 1262" d="M93.008,50.7H91.56v4h2v-4Zm0,6.681H91.56V75.341h2V57.378Z" transform="translate(224.9 124.528)"/>
          <path id="パス_1263" data-name="パス 1263" d="M96.927,54.34h0c-1.756,1.49-2.648,3.875-2.648,7.1V70.9h2V61.443c0-2.547.636-4.41,1.884-5.537a6.3,6.3,0,0,1,4.355-1.448,6.56,6.56,0,0,1,4.414,1.448c1.265,1.127,1.891,2.99,1.891,5.537V70.9h1.994V61.443c0-3.228-.885-5.613-2.641-7.1a9.526,9.526,0,0,0-11.247,0" transform="translate(231.579 128.969)"/>
          <path id="パス_1264" data-name="パス 1264" d="M100.674,61.908v0a9.268,9.268,0,0,0,9.626,9.4,8.75,8.75,0,0,0,7.279-3.57v.874a7.309,7.309,0,0,1-7.238,7.524,7.584,7.584,0,0,1-4.618-1.628,7.689,7.689,0,0,1-1.97-2.312l-.256-.415h-2.174l.342.771a9.624,9.624,0,0,0,8.8,5.516,9.265,9.265,0,0,0,9.107-9.615l-.007-6.885v-.183a9.639,9.639,0,0,0-.9-3.66,9.507,9.507,0,0,0-18,4.175m9.526-7.466a7.465,7.465,0,1,1-7.528,7.462,7.287,7.287,0,0,1,7.528-7.462" transform="translate(247.287 128.964)"/>
          <path id="パス_1265" data-name="パス 1265" d="M77.1,50.7H75.652V75.341h2V50.7Z" transform="translate(185.826 124.529)"/>
          <path id="パス_1266" data-name="パス 1266" d="M78.076,61.908v0a9.268,9.268,0,0,0,9.626,9.4,8.75,8.75,0,0,0,7.279-3.57v3.149l2-.017v-9.3l-.007-.183a9.638,9.638,0,0,0-.9-3.66,9.507,9.507,0,0,0-18,4.175M87.6,54.442A7.465,7.465,0,1,1,80.074,61.9,7.283,7.283,0,0,1,87.6,54.442" transform="translate(191.779 128.964)"/>
          <path id="パス_1267" data-name="パス 1267" d="M72.654,52.529a8.734,8.734,0,0,0-4.642,1.2c-2.423,1.559-2.762,3.826-2.762,6.031V70.9h1.994V59.877c0-2.419.491-3.608,1.877-4.521a6.661,6.661,0,0,1,3.57-.94l.525-.021V52.505Z" transform="translate(160.277 128.969)"/>
          <path id="パス_1268" data-name="パス 1268" d="M84.588,65.225A7.159,7.159,0,0,1,77.9,69.358a7.356,7.356,0,0,1-7.365-6.812H87.225l.069-1a9.43,9.43,0,1,0-9.425,9.743,9.131,9.131,0,0,0,8.71-5.613l.207-.467h-2.2ZM77.9,54.434h.028a7.361,7.361,0,0,1,7.248,6.176H70.593a7.219,7.219,0,0,1,7.3-6.176" transform="translate(168.11 128.962)"/>
          <rect id="長方形_693" data-name="長方形 693" width="1.68" height="14.261" transform="translate(120.674 140.641)"/>
          <path id="パス_1269" data-name="パス 1269" d="M45.9,40.689H37.4v1.462h3.415V54.956h1.676V42.151H45.9Z" transform="translate(91.857 99.944)"/>
          <path id="パス_1270" data-name="パス 1270" d="M57.47,47.815a6.973,6.973,0,0,0-7.106-7.123v0H46.406V54.959l3.909-.01h.048a6.974,6.974,0,0,0,7.106-7.127ZM50.315,53.6H48.041V42.036h2.274v.007a5.6,5.6,0,0,1,5.672,5.765v.017A5.611,5.611,0,0,1,50.315,53.6" transform="translate(113.988 99.943)"/>
          <path id="パス_1271" data-name="パス 1271" d="M50.195,42.151V40.689H42.007V40.7h-.1V54.956h.1v.007h8.188V53.494H43.573v-5.3h6.2V46.734h-6.2V42.151Z" transform="translate(102.936 99.945)"/>
          <path id="パス_1272" data-name="パス 1272" d="M39.252,40.69V52.158L31.434,40.69H29.08V54.951h1.673V42.522l8.5,12.429h1.666V40.69Z" transform="translate(71.431 99.949)"/>
          <path id="パス_1273" data-name="パス 1273" d="M88.089,40.754,85.335,51.583,82.487,40.872v-.014H80.959l.007.014L78.1,51.583,75.342,40.754H73.725l.066.266,3.553,13.552h1.517l2.862-11.147,2.855,11.147H86.1l3.626-13.818Z" transform="translate(181.091 100.106)"/>
          <path id="パス_1274" data-name="パス 1274" d="M34.393,40.662H32.834v9.315a3.609,3.609,0,0,1-3.688,3.729h-.01a3.617,3.617,0,0,1-3.688-3.729V40.662H23.889l.007,9.615a5.139,5.139,0,0,0,5.233,4.963h.031a5.131,5.131,0,0,0,5.226-4.963Z" transform="translate(58.679 99.879)"/>
          <path id="パス_1275" data-name="パス 1275" d="M63.457,54.952h1.666L60.156,40.691h-1.68l-4.97,14.261h1.669l1.5-4.428h5.285ZM57.125,49.18l2.188-6.467,2.195,6.467Z" transform="translate(131.428 99.95)"/>
          <path id="パス_1276" data-name="パス 1276" d="M70.86,54.951h1.884l-3.456-6.042a4.054,4.054,0,0,0,3.239-4.044h.007v-.031h-.007a4.052,4.052,0,0,0-3.792-4.123l.021.007-.366-.024h-3v0H63.84V54.951h1.552V49.006h2.247ZM65.392,42.1h2.976a2.625,2.625,0,0,1,2.675,2.433l.014.315-.014.318A2.623,2.623,0,0,1,68.368,47.6H65.392Z" transform="translate(156.811 99.948)"/>
          <path id="パス_1277" data-name="パス 1277" d="M65.942,54.951h1.891l-3.456-6.042a4.053,4.053,0,0,0,3.245-4.044v-.031a4.058,4.058,0,0,0-3.8-4.123l.021.007-.366-.024h-2.99v0H58.936V54.951h1.552V49.006h2.24ZM60.488,42.1h2.969a2.634,2.634,0,0,1,2.675,2.433l.021.315-.021.318A2.632,2.632,0,0,1,63.457,47.6H60.488Z" transform="translate(144.765 99.948)"/>
          <path id="パス_1278" data-name="パス 1278" d="M75.437,40.672A7.017,7.017,0,0,0,68.144,47.9a7.245,7.245,0,1,0,7.293-7.227M75.5,53.637A5.648,5.648,0,0,1,69.637,47.9,5.751,5.751,0,1,1,75.5,53.637" transform="translate(167.383 99.904)"/>
          <path id="パス_1279" data-name="パス 1279" d="M88.8,50.937a3.8,3.8,0,0,0-1.331-2.907,6.429,6.429,0,0,0-2.813-1.2,6.6,6.6,0,0,1-1.932-.736,1.819,1.819,0,0,1-.885-1.656A2.356,2.356,0,0,1,84.4,42.057H84.4a2.5,2.5,0,0,1,2.551,2.26l1.5-.024a3.906,3.906,0,0,0-4.044-3.64c-2.219,0-4.089,1.348-4.1,3.653a3.657,3.657,0,0,0,1.2,2.765A6.275,6.275,0,0,0,84.1,48.14a5.568,5.568,0,0,1,2.233.916A2.562,2.562,0,0,1,87.28,51a2.62,2.62,0,0,1-2.9,2.7,3.085,3.085,0,0,1-3.086-2.606l-1.486-.01c.055,2.4,2.157,3.937,4.517,3.94A4.182,4.182,0,0,0,88.8,50.937" transform="translate(196.024 99.859)"/>
        </g>
      </g>
    </g>
  </g>
</svg>
