<svg xmlns="http://www.w3.org/2000/svg" xmlns:xlink="http://www.w3.org/1999/xlink" width="633" height="389" viewBox="0 0 633 389">
  <defs>
    <clipPath id="clip-path">
      <rect id="長方形_655" data-name="長方形 655" width="345.28" height="80.005" transform="translate(0 0)" fill="none"/>
    </clipPath>
    <clipPath id="clip-LF">
      <rect width="633" height="389"/>
    </clipPath>
  </defs>
  <g id="LF" clip-path="url(#clip-LF)">
    <rect width="633" height="389" fill="#fff"/>
    <g id="グループ_1521" data-name="グループ 1521">
      <rect id="長方形_263" data-name="長方形 263" width="632.995" height="389" transform="translate(0 0)" fill="none"/>
    </g>
    <g id="グループ_1506" data-name="グループ 1506" transform="translate(143.858 154)">
      <g id="グループ_1422" data-name="グループ 1422" transform="translate(0 0)">
        <g id="グループ_1421" data-name="グループ 1421" clip-path="url(#clip-path)">
          <path id="パス_1000" data-name="パス 1000" d="M476.929,3.039H430.946c-.782,0-.673,1.783-.673,2.01v72.98c0,.226.084.753.867.753h10.323c.569,0,.867-.1.867-.673V45a1.027,1.027,0,0,1,.471-.381h26.545c.91,0,.981-.665.981-.868V33.9a.66.66,0,0,0-.753-.754H442.182V14.65l.544-.136h34.2a.775.775,0,0,0,.867-.866V3.793c0-.226-.084-.754-.867-.754" transform="translate(-132.516 -0.936)"/>
          <path id="パス_1001" data-name="パス 1001" d="M112.358,79.475a46.4,46.4,0,0,0,6.886.529l1.363-.012a39.143,39.143,0,0,0,35.61-23.486,41.416,41.416,0,0,0,3.236-16.288c0-10.317-3.45-19.88-9.712-26.926A39.041,39.041,0,0,0,119.945,0L119.7.012A38.769,38.769,0,0,0,85.173,21.29,42.521,42.521,0,0,0,80.78,40.583a41.134,41.134,0,0,0,6.252,22.176,37.685,37.685,0,0,0,25.326,16.716m27.529-59.194a29.312,29.312,0,0,1,7.3,19.622,31.129,31.129,0,0,1-1.941,10.735c-2.94,8.026-11.083,15.02-19.361,16.629a21.773,21.773,0,0,1-4.75.552h-.2A39.216,39.216,0,0,1,109.375,66c-6.423-2.253-11.906-8.251-14.33-14.713A31.322,31.322,0,0,1,92.991,40.1c0-8.155,3.113-15.635,8.539-20.52C107.051,14.66,112.908,12.1,119.8,12.1l.725-.013a25.852,25.852,0,0,1,19.365,8.2" transform="translate(-24.879 0)"/>
          <path id="パス_1002" data-name="パス 1002" d="M46.674,66.984H11.961V3.629c0-.206,0-.754-.754-.754H.772C-.012,2.875,0,3.4,0,3.629V77.8a.707.707,0,0,0,.755.754H46.56a.776.776,0,0,0,.868-.868V67.738c0-.206,0-.754-.754-.754" transform="translate(0 -0.885)"/>
          <path id="パス_1003" data-name="パス 1003" d="M375.883,3.039H329.9c-.782,0-.673,1.783-.673,2.01v72.98c0,.226.084.753.867.753h10.323c.569,0,.868-.1.868-.673V45a1.028,1.028,0,0,1,.471-.381H368.3c.91,0,.981-.665.981-.868V33.9a.66.66,0,0,0-.753-.754H341.136V14.65l.544-.136h34.2a.775.775,0,0,0,.867-.866V3.793c0-.226-.084-.754-.867-.754" transform="translate(-101.395 -0.936)"/>
          <path id="パス_1004" data-name="パス 1004" d="M273.165,67.05H236.539V44.773c0-.082.455-.129.472-.152h26.473c.91,0,.981-.664.981-.867V33.9a.661.661,0,0,0-.754-.756H236.539V14.578l.492-.063H271.24a.776.776,0,0,0,.868-.868V3.793c0-.227-.084-.754-.868-.754H225.259c-.782,0-.675,1.783-.675,2.01l-.005,72.786.069.2a.923.923,0,0,0,.585.567l.161.021H273a.887.887,0,0,0,.918-.965V67.807a.662.662,0,0,0-.755-.756" transform="translate(-69.167 -0.936)"/>
        </g>
      </g>
    </g>
  </g>
</svg>
