<svg xmlns="http://www.w3.org/2000/svg" xmlns:xlink="http://www.w3.org/1999/xlink" width="633" height="389" viewBox="0 0 633 389">
  <defs>
    <clipPath id="clip-path">
      <rect id="長方形_669" data-name="長方形 669" width="323.7" height="237.834"/>
    </clipPath>
    <clipPath id="clip-BY">
      <rect width="633" height="389"/>
    </clipPath>
  </defs>
  <g id="BY" clip-path="url(#clip-BY)">
    <rect width="633" height="389" fill="#fff"/>
    <g id="グループ_905" data-name="グループ 905">
      <rect id="長方形_254" data-name="長方形 254" width="632.995" height="389" transform="translate(0 0)" fill="none"/>
    </g>
    <g id="グループ_1528" data-name="グループ 1528" transform="translate(155 65.415)">
      <g id="グループ_1527" data-name="グループ 1527" transform="translate(0 0)" clip-path="url(#clip-path)">
        <path id="パス_1064" data-name="パス 1064" d="M102.6,0a73.207,73.207,0,1,0,73.21,73.216A73.29,73.29,0,0,0,102.6,0M170.53,51.316l-20.785,37.2L91.727,2.66a71.4,71.4,0,0,1,78.8,48.656M134.8,115.247c-1.565-1.61-5.063-5.22-7.336-7.563a24.594,24.594,0,0,0,4.686-14.775h-1.83a22.765,22.765,0,0,1-4.158,13.43c-7.861-8.114-14.812-15.273-19.416-20.028.522-.09,1-.211,1.553-.28,7.885-1.049,12.586-5.847,12.586-12.827a12.176,12.176,0,1,0-24.352,0c0,4.39,1.764,6.745,4.258,9.592.006.006.9.926,2.379,2.451C95.336,87.464,91.425,92.2,91.356,99.7A30.562,30.562,0,0,0,68.427,73.21a30.489,30.489,0,0,0-4.532-59.927A70.908,70.908,0,0,1,89.764,3l58.981,87.3Zm-9.788-7.466a19.443,19.443,0,0,1-14.893,6.748c-8.328,0-16.955-5.476-16.955-14.628,0-7.056,3.661-11.3,11.425-13.189,4.927,5.084,13.687,14.118,20.423,21.068M102.13,81.557c-2.325-2.669-3.769-4.577-3.769-8.353a10.35,10.35,0,1,1,20.7,0c0,2.871-1.064,9.7-10.994,11.012-1.019.136-1.93.338-2.84.531-.516-.534-3.1-3.19-3.1-3.19M61.941,15a28.652,28.652,0,0,1,0,57.274Zm0,59.146a28.653,28.653,0,0,1,0,57.277Zm-30.724-.929a71.327,71.327,0,0,1,28.9-57.328V130.523a71.3,71.3,0,0,1-28.9-57.307m32.678,59.921a30.532,30.532,0,0,0,27.612-30.353c0-.265-.012-.519-.018-.775,1.206,9.025,10.047,14.338,18.635,14.338a21.26,21.26,0,0,0,16.177-7.237c3.664,3.772,6.537,6.736,7.575,7.8L119.553,142.54a71.164,71.164,0,0,1-55.658-9.4m58.115,8.745,49.256-88.13a71.306,71.306,0,0,1-49.256,88.13" transform="translate(59.244 0)"/>
        <path id="パス_1065" data-name="パス 1065" d="M53.054,59.333H33.578v2.439H42.1V83.679h2.436V61.773h8.515Z" transform="translate(67.672 119.578)"/>
        <path id="パス_1066" data-name="パス 1066" d="M111.389,59.333H91.906v2.439h8.521V83.679h2.445V61.773h8.515Z" transform="translate(185.225 119.578)"/>
        <path id="パス_1067" data-name="パス 1067" d="M43.271,59.333V72.724a8.521,8.521,0,1,1-17.043,0V59.333H23.789V72.724a10.953,10.953,0,1,0,21.907,0V59.333Z" transform="translate(47.944 119.578)"/>
        <path id="パス_1068" data-name="パス 1068" d="M101.6,59.333V72.724a8.52,8.52,0,1,1-17.04,0V59.333H82.117V72.724a10.961,10.961,0,0,0,21.922,0V59.333Z" transform="translate(165.496 119.578)"/>
        <path id="パス_1069" data-name="パス 1069" d="M117.936,59.333V70.294H103.342V59.333h-2.455V83.679h2.455V72.724h14.594V83.679h2.439V59.333Z" transform="translate(203.325 119.578)"/>
        <path id="パス_1070" data-name="パス 1070" d="M71.507,71.506A12.175,12.175,0,1,0,83.683,59.333,12.186,12.186,0,0,0,71.507,71.506m2.439,0a9.741,9.741,0,1,1,9.737,9.749,9.755,9.755,0,0,1-9.737-9.749" transform="translate(144.113 119.578)"/>
        <path id="パス_1071" data-name="パス 1071" d="M11.136,71.512A6.7,6.7,0,0,0,7.3,59.333H0V83.682H7.3a6.69,6.69,0,0,0,3.839-12.17m-8.708-9.74H7.3a4.261,4.261,0,1,1,0,8.521H2.427ZM7.3,81.258H2.427v-8.53H7.367a4.266,4.266,0,0,1-.069,8.53" transform="translate(0 119.578)"/>
        <path id="パス_1072" data-name="パス 1072" d="M21.162,61.772V59.333h-14V83.682h14V81.257H9.6v-8.53H21.162V70.293H9.6V61.772Z" transform="translate(14.433 119.577)"/>
        <path id="パス_1073" data-name="パス 1073" d="M16.99,83.679l3.052-6.088H32.863l3.049,6.088h2.723L26.455,59.333,14.276,83.679ZM26.455,64.77l5.2,10.394H21.263Z" transform="translate(28.771 119.578)"/>
        <path id="パス_1074" data-name="パス 1074" d="M62.546,59.333l-8.6,11.92-8.6-11.92h-3L52.722,73.725v9.954h2.445V73.725L65.546,59.333Z" transform="translate(85.343 119.578)"/>
        <path id="パス_1075" data-name="パス 1075" d="M74.68,83.682s-2.623-2.822-4.291-4.6a11.415,11.415,0,0,0,1.839-6.35H69.783a9.493,9.493,0,0,1-1.1,4.5c-3.263-3.5-5.461-5.868-6.625-7.113a8.145,8.145,0,0,0,3.085-1.643,4.734,4.734,0,0,0,1.607-3.658,5.482,5.482,0,1,0-9.318,3.775l.338.413c-2.638,1.182-5.018,3.16-5.018,6.76a7.3,7.3,0,0,0,2.907,5.814,10.189,10.189,0,0,0,6.221,2.1,10.05,10.05,0,0,0,6.956-2.723c.781.865,2.521,2.723,2.521,2.723Zm-13.4-21.91a3.049,3.049,0,0,1,3.039,3.046c0,.929-.356,2.268-3.371,3.082-.244.066-.495.133-.745.217-.226-.247-.4-.449-.624-.739l-.268-.335c-.823-.983-1.082-1.447-1.082-2.225a3.044,3.044,0,0,1,3.052-3.046m.6,19.485a7.625,7.625,0,0,1-4.71-1.592,4.9,4.9,0,0,1-1.993-3.9,4.062,4.062,0,0,1,1.429-3.208,9.317,9.317,0,0,1,2.877-1.622c.621.666,3.959,4.246,7.692,8.253a7.655,7.655,0,0,1-5.295,2.069" transform="translate(106.315 119.578)"/>
        <path id="パス_1076" data-name="パス 1076" d="M82.923,59.333l-8.594,11.92-8.6-11.92h-3L73.111,73.725v9.954H75.55V73.725L85.938,59.333Z" transform="translate(126.428 119.578)"/>
        <path id="パス_1077" data-name="パス 1077" d="M31.391,73.736h1.562V82.23a6.984,6.984,0,0,1-13.967,0V73.736h1.559V82.23a5.423,5.423,0,1,0,10.846,0Z" transform="translate(38.264 148.605)"/>
        <path id="パス_1078" data-name="パス 1078" d="M37.388,73.71h1.565v15.5L26.55,77.344V89.209H24.994V73.71L37.388,85.585Z" transform="translate(50.373 148.553)"/>
        <rect id="長方形_668" data-name="長方形 668" width="1.556" height="15.502" transform="translate(93.887 222.308)"/>
        <path id="パス_1079" data-name="パス 1079" d="M45.583,73.71v1.571H40.161V89.209H38.623V75.281H33.19V73.71Z" transform="translate(66.89 148.553)"/>
        <path id="パス_1080" data-name="パス 1080" d="M47.617,75.271H40.251V80.7h7.367v1.562H40.251v5.4h7.367v1.565h-8.9V73.736h8.9Z" transform="translate(78.021 148.605)"/>
        <path id="パス_1081" data-name="パス 1081" d="M48.426,73.726a7.751,7.751,0,0,1,0,15.5H43v-15.5Zm0,13.934a6.194,6.194,0,1,0,0-12.387H44.56V87.66Z" transform="translate(86.657 148.585)"/>
        <path id="パス_1082" data-name="パス 1082" d="M53.233,89.2H51.5l7.768-15.478L67.019,89.2H65.264l-1.918-3.875H55.178Zm6.031-12.031L55.95,83.8h6.607Z" transform="translate(103.783 148.583)"/>
        <path id="パス_1083" data-name="パス 1083" d="M59.436,82.231V89.2H57.9V73.725h8.687a4.254,4.254,0,0,1,.13,8.506L71.06,89.2H69.242l-4.351-6.971Zm0-6.96V80.7h7.156a2.714,2.714,0,1,0,0-5.428Z" transform="translate(116.698 148.583)"/>
        <path id="パス_1084" data-name="パス 1084" d="M65.12,82.231V89.2H63.576V73.725h8.7a4.254,4.254,0,0,1,.127,8.506L76.741,89.2H74.914l-4.333-6.971Zm0-6.96V80.7h7.152a2.714,2.714,0,0,0,0-5.428Z" transform="translate(128.129 148.583)"/>
        <path id="パス_1085" data-name="パス 1085" d="M69.216,81.473A7.748,7.748,0,1,1,76.972,89.2a7.752,7.752,0,0,1-7.756-7.728m1.559,0a6.2,6.2,0,1,0,6.2-6.2,6.206,6.206,0,0,0-6.2,6.2" transform="translate(139.496 148.585)"/>
        <path id="パス_1086" data-name="パス 1086" d="M94.546,73.736h1.686l-5.7,15.493L85.946,77.889,81.336,89.229,75.658,73.736h1.673l4.083,11.142,4.532-11.142,4.523,11.142Z" transform="translate(152.479 148.606)"/>
        <path id="パス_1087" data-name="パス 1087" d="M86.909,74.6a8.818,8.818,0,0,1,3.793-.871,7.488,7.488,0,0,1,4.086,1.206A4.22,4.22,0,0,1,96.9,78.388H95.343a2.745,2.745,0,0,0-1.39-2.159,6.248,6.248,0,0,0-3.251-.953,7.063,7.063,0,0,0-3.076.694,2.582,2.582,0,0,0-1.583,2.4,1.654,1.654,0,0,0,1.272,1.649,16.085,16.085,0,0,0,3.691.73,15.36,15.36,0,0,1,4.306.874,3.394,3.394,0,0,1,2.358,3.326,3.761,3.761,0,0,1-2.442,3.341,10.642,10.642,0,0,1-4.526.944,9.311,9.311,0,0,1-4.589-1.155,4.478,4.478,0,0,1-2.373-3.9h1.544a2.877,2.877,0,0,0,1.625,2.545,7.525,7.525,0,0,0,3.793.938,8.826,8.826,0,0,0,3.836-.763c1.077-.51,1.565-1.176,1.565-1.951a1.9,1.9,0,0,0-1.384-1.921,15.794,15.794,0,0,0-3.893-.736,16.439,16.439,0,0,1-4.077-.817,3.2,3.2,0,0,1-2.25-3.106A4.094,4.094,0,0,1,86.909,74.6" transform="translate(168.767 148.585)"/>
      </g>
    </g>
  </g>
</svg>
