<svg xmlns="http://www.w3.org/2000/svg" xmlns:xlink="http://www.w3.org/1999/xlink" width="633" height="389" viewBox="0 0 633 389">
  <defs>
    <clipPath id="clip-path">
      <rect id="長方形_680" data-name="長方形 680" width="377.65" height="163.335"/>
    </clipPath>
    <clipPath id="clip-path-2">
      <rect id="長方形_679" data-name="長方形 679" width="377.65" height="163.336"/>
    </clipPath>
    <clipPath id="clip-path-3">
      <rect id="長方形_675" data-name="長方形 675" width="0.093" height="0.256"/>
    </clipPath>
    <clipPath id="clip-path-4">
      <rect id="長方形_676" data-name="長方形 676" width="0.062" height="0.137"/>
    </clipPath>
    <clipPath id="clip-path-5">
      <rect id="長方形_677" data-name="長方形 677" width="0.136" height="0.453"/>
    </clipPath>
    <clipPath id="clip-path-6">
      <rect id="長方形_678" data-name="長方形 678" width="0.054" height="0.318"/>
    </clipPath>
    <clipPath id="clip-H">
      <rect width="633" height="389"/>
    </clipPath>
  </defs>
  <g id="H" clip-path="url(#clip-H)">
    <rect width="633" height="389" fill="#fff"/>
    <g id="グループ_911" data-name="グループ 911">
      <rect id="長方形_267" data-name="長方形 267" width="632.995" height="389" transform="translate(0)" fill="none"/>
    </g>
    <g id="グループ_1554" data-name="グループ 1554" transform="translate(128 130)">
      <g id="グループ_1553" data-name="グループ 1553" clip-path="url(#clip-path)">
        <g id="グループ_1552" data-name="グループ 1552" transform="translate(0 -0.001)">
          <g id="グループ_1551" data-name="グループ 1551" clip-path="url(#clip-path-2)">
            <path id="パス_1154" data-name="パス 1154" d="M111.063,71.575a.852.852,0,0,0,.292-.476c.033-.11.01-.262.033-.383a.782.782,0,0,0-.076.309.758.758,0,0,1-.249.551" transform="translate(80.678 51.369)"/>
            <path id="パス_1155" data-name="パス 1155" d="M111.439,70.4a2.385,2.385,0,0,1-.152.4c.145-.133.145-.133.152-.4" transform="translate(80.841 51.142)"/>
            <path id="パス_1156" data-name="パス 1156" d="M111.588,69.963c.1-.174.23-.18.266-.323.06-.226-.026-.319.041-.68-.126.209-.014.471-.128.668-.064.112-.126.223-.18.335" transform="translate(81.059 50.095)"/>
            <g id="グループ_1541" data-name="グループ 1541" transform="translate(192.554 120.058)" opacity="0.4">
              <g id="グループ_1540" data-name="グループ 1540">
                <g id="グループ_1539" data-name="グループ 1539" clip-path="url(#clip-path-3)">
                  <path id="パス_1157" data-name="パス 1157" d="M111.627,69.541a.852.852,0,0,0-.093.255.984.984,0,0,1,.093-.255" transform="translate(-111.534 -69.541)"/>
                </g>
              </g>
            </g>
            <g id="グループ_1544" data-name="グループ 1544" transform="translate(192.065 121.947)" opacity="0.4">
              <g id="グループ_1543" data-name="グループ 1543">
                <g id="グループ_1542" data-name="グループ 1542" clip-path="url(#clip-path-4)">
                  <path id="パス_1158" data-name="パス 1158" d="M111.313,70.636a.269.269,0,0,0-.062.136,1.369,1.369,0,0,1,.062-.136" transform="translate(-111.251 -70.635)"/>
                </g>
              </g>
            </g>
            <g id="グループ_1547" data-name="グループ 1547" transform="translate(192.28 121.091)" opacity="0.4">
              <g id="グループ_1546" data-name="グループ 1546">
                <g id="グループ_1545" data-name="グループ 1545" clip-path="url(#clip-path-5)">
                  <path id="パス_1159" data-name="パス 1159" d="M111.511,70.14a1.407,1.407,0,0,0-.136.454c.047-.15.081-.307.136-.454" transform="translate(-111.375 -70.139)"/>
                </g>
              </g>
            </g>
            <g id="グループ_1550" data-name="グループ 1550" transform="translate(192.501 120.313)" opacity="0.4">
              <g id="グループ_1549" data-name="グループ 1549">
                <g id="グループ_1548" data-name="グループ 1548" clip-path="url(#clip-path-6)">
                  <path id="パス_1160" data-name="パス 1160" d="M111.557,69.689a1.376,1.376,0,0,0-.054.318,1.376,1.376,0,0,1,.054-.318" transform="translate(-111.503 -69.689)"/>
                </g>
              </g>
            </g>
            <path id="パス_1161" data-name="パス 1161" d="M180.736,70.29a.632.632,0,0,1-.142-.088c-.18-.273-.209-.176-.4-.128a.681.681,0,0,1-.278-.066c-.08-.028-.168-.154-.247-.161a5.481,5.481,0,0,0-1.051-.028,6.511,6.511,0,0,1-1.757-.012,1.211,1.211,0,0,0-.611.024c-.23-.133-.382-.028-.571.04a3.161,3.161,0,0,1-.915-.012l-.342.109a3.058,3.058,0,0,1-.791.019.971.971,0,0,0-.749.048,1.8,1.8,0,0,1-.827.074,1.629,1.629,0,0,0-.344-.034c-.169.012-.309.138-.573.034a.946.946,0,0,0-.632.105.4.4,0,0,1-.3.086,5.462,5.462,0,0,0-1.234-.047,5.641,5.641,0,0,1-.981-.012.378.378,0,0,0-.29.012c-.252.019-.509.05-.761.052a5.5,5.5,0,0,1-1.093-.069,1.354,1.354,0,0,0-.615.112,2.642,2.642,0,0,1-.616.048.472.472,0,0,0-.361.04.549.549,0,0,1-.442-.126.925.925,0,0,1-.3-.988.578.578,0,0,1,.392-.4c.126-.04.268-.033.394-.072a2.432,2.432,0,0,1,1.039-.114,2.916,2.916,0,0,0,.364-.043,1.438,1.438,0,0,1,.76.009,1.028,1.028,0,0,0,.363.014,2.306,2.306,0,0,1,.975-.034,7.057,7.057,0,0,1,.984.045,9.393,9.393,0,0,0,1.816-.059,2.444,2.444,0,0,1,.727,0,1.434,1.434,0,0,0,.682-.055,2.144,2.144,0,0,1,.392-.062,6.118,6.118,0,0,1,1.131.005,1.052,1.052,0,0,0,.533-.088.473.473,0,0,1,.387-.038,1.279,1.279,0,0,0,.506.028,3.708,3.708,0,0,1,.944-.055,2.952,2.952,0,0,0,.651-.062,2.274,2.274,0,0,1,1.191-.017c.252.036.506.052.761.078.375-.019.646-.1.974-.111a.971.971,0,0,0,.352-.116.819.819,0,0,1,.815-.019.692.692,0,0,0,.556.064c.223-.06.451-.095.675-.142a.236.236,0,0,1,.231.078.96.96,0,0,1,.088.114,2.284,2.284,0,0,0,.387.573.845.845,0,0,1,.076.123.366.366,0,0,1-.04.442,2.065,2.065,0,0,1-.294.268.818.818,0,0,1-.133.054c-.2.034-.349.2-.142.371a.207.207,0,0,1,.036.064c.057.147-.019.257-.168.223a2.549,2.549,0,0,1-.52-.161c-.209-.095-.345-.221-.578.04a.272.272,0,0,1-.088.021" transform="translate(118.751 49.44)" fill-rule="evenodd"/>
            <path id="パス_1162" data-name="パス 1162" d="M21.172,94.37c0-.086,0-.173,0-.255a1.011,1.011,0,0,1,.247-.777.66.66,0,0,0,.116-.224A1.225,1.225,0,0,1,22,92.476a2.237,2.237,0,0,1,.52-.33,1.356,1.356,0,0,1,.927-.078,4.786,4.786,0,0,0,1.547.188,3.458,3.458,0,0,1,.874.054,1.53,1.53,0,0,0,.252.005c.243.016.483.033.725.05.086.005.169.026.256.026a1.948,1.948,0,0,1,.682.09.124.124,0,0,0,.035.007,9.915,9.915,0,0,1,1.26.174,5.4,5.4,0,0,1,.573.1,2.607,2.607,0,0,0,.684.088,2.888,2.888,0,0,1,.47.043c.359.06.715.131,1.074.193a.932.932,0,0,0,.218.017,3.024,3.024,0,0,1,1.046.121,2.485,2.485,0,0,0,.394.057c.171.017.34.04.509.048a4.771,4.771,0,0,0,.542.017,3.074,3.074,0,0,1,.906.085c.245.06.5.085.751.136a4.749,4.749,0,0,1,.6.143,2.66,2.66,0,0,0,.929.157c.131-.009.264.021.4.022.231,0,.459,0,.691-.005a1.87,1.87,0,0,1,.218-.022c.433.029.868.072,1.305.095a4.772,4.772,0,0,0,.981.005,6.212,6.212,0,0,1,1.2-.028c.243.009.482-.012.725-.022.181-.007.363-.007.546-.012.252-.009.509-.022.763-.035.218-.014.437-.028.654-.036a1.263,1.263,0,0,0,.181-.007c.568-.147,1.16-.121,1.733-.236a1.28,1.28,0,0,1,.326-.022,1.434,1.434,0,0,0,.539-.06.736.736,0,0,1,.325-.031,4.554,4.554,0,0,0,1.082-.086c.29-.031.577-.093.863-.14a2.644,2.644,0,0,1,.832-.043.9.9,0,0,0,.256-.007c.337-.04.673-.085,1.01-.126a1.9,1.9,0,0,1,.219-.024,3.133,3.133,0,0,0,.646-.083c.394-.071.787-.143,1.177-.221.331-.067.675-.062,1.013-.1a4.2,4.2,0,0,0,.606-.11,1.161,1.161,0,0,1,.537-.052,1,1,0,0,0,.506-.033,2.059,2.059,0,0,1,.647-.085,2.341,2.341,0,0,0,.754-.114,1.529,1.529,0,0,1,.39-.083,7.993,7.993,0,0,1,1.236-.06,1.059,1.059,0,0,0,.256-.009,4.1,4.1,0,0,1,.8-.021,8.94,8.94,0,0,0,.981-.062A1.367,1.367,0,0,1,62.454,92a6.5,6.5,0,0,0,1.454-.007,3.618,3.618,0,0,1,.761.022c.328.04.654.052.982.083a1.861,1.861,0,0,1,.323.041c.321.071.637.154.958.223a.728.728,0,0,0,.287,0,.646.646,0,0,1,.426.029,1.2,1.2,0,0,0,.461.081,1.291,1.291,0,0,1,.326.041c.3.086.606.173.9.278a1.544,1.544,0,0,0,.571.1,1.279,1.279,0,0,1,.663.157,6.794,6.794,0,0,0,1.3.459c.33.088.644.216.965.328a2.051,2.051,0,0,0,.376.126,3.617,3.617,0,0,1,.737.2,4.175,4.175,0,0,0,.559.15c.451.1.9.2,1.354.3a.583.583,0,0,0,.14.038c.314,0,.628.067.941.083.255.012.508.035.761.067a9.864,9.864,0,0,0,1.2.074c.829.01,1.645-.1,2.47-.152a1.941,1.941,0,0,0,.214-.04,2.465,2.465,0,0,1,.468-.083,10.123,10.123,0,0,0,1.436-.221,1.677,1.677,0,0,1,.252-.031,4.375,4.375,0,0,0,1.207-.247,3.262,3.262,0,0,1,.672-.154,5.936,5.936,0,0,0,.86-.161c.378-.088.753-.186,1.133-.266s.742-.126,1.114-.192a2.512,2.512,0,0,0,.319-.071,3.908,3.908,0,0,1,.782-.171.569.569,0,0,0,.178-.041,2.05,2.05,0,0,1,.889-.154,1.139,1.139,0,0,0,.387-.086,3.331,3.331,0,0,1,.748-.155c.312-.031.622-.105.932-.155.29-.045.575-.1.865-.124.544-.045,1.089-.085,1.635-.109a3.627,3.627,0,0,0,.8-.043.155.155,0,0,1,.074,0,1.329,1.329,0,0,0,.822-.055.626.626,0,0,1,.394-.007.982.982,0,0,0,.47.009,8.265,8.265,0,0,1,2.213-.086,3.781,3.781,0,0,0,.542,0c.183,0,.364-.01.547-.017.461-.016.92-.031,1.383-.048a.163.163,0,0,1,.071,0,3.876,3.876,0,0,0,1.007.1,2.458,2.458,0,0,0,.254.012c.231.012.463.014.689.041a1.529,1.529,0,0,0,.72-.05,1.879,1.879,0,0,1,.936-.059,8.379,8.379,0,0,0,.906.066c.4.019.8-.019,1.2.036a2.283,2.283,0,0,0,.941-.052,1.013,1.013,0,0,1,.749.021.282.282,0,0,0,.138.038,5.474,5.474,0,0,0,.906-.041,4.175,4.175,0,0,1,.677-.143,2.16,2.16,0,0,1,.651.017,3.834,3.834,0,0,0,1.233,0,2.959,2.959,0,0,1,.58,0,3.774,3.774,0,0,0,.542.021c.29,0,.582-.009.872-.021.171-.007.34-.029.509-.041a1.582,1.582,0,0,1,.325-.012,1.347,1.347,0,0,0,.682-.079,1.016,1.016,0,0,1,.6-.076.464.464,0,0,0,.218-.005,3.5,3.5,0,0,1,.758-.1,1.878,1.878,0,0,0,.43-.067,12.156,12.156,0,0,1,1.286-.247.517.517,0,0,0,.074-.01,8.23,8.23,0,0,1,1.576-.245,2.386,2.386,0,0,0,.423-.1A4.757,4.757,0,0,1,124,90.7a.894.894,0,0,0,.178-.031,5.084,5.084,0,0,1,1.031-.211,1.656,1.656,0,0,0,.549-.181,1.916,1.916,0,0,1,.673-.14c.218-.009.435-.055.653-.067a4.09,4.09,0,0,0,1.243-.211c.711-.095,1.414-.243,2.125-.316.252-.028.5-.083.751-.133a3.22,3.22,0,0,1,.874-.041,1.116,1.116,0,0,0,.537-.069.889.889,0,0,1,.5-.038,2.228,2.228,0,0,0,.9-.062,1.477,1.477,0,0,1,.4-.038,4.555,4.555,0,0,1,.508.04,2.559,2.559,0,0,0,.761,0,1.787,1.787,0,0,1,.508.005,1.385,1.385,0,0,0,.506.005,3.083,3.083,0,0,1,1.193,0,2.7,2.7,0,0,0,.8.007.776.776,0,0,1,.109-.01c.366,0,.732-.016,1.093-.005a8.556,8.556,0,0,0,1.557-.136,1.675,1.675,0,0,1,.361-.019,1.686,1.686,0,0,0,.817-.15,1.906,1.906,0,0,1,.806-.2,4.71,4.71,0,0,0,.994-.223,1.158,1.158,0,0,1,.463-.055,1.051,1.051,0,0,0,.356-.047c.237-.055.47-.124.7-.178.594-.126,1.191-.25,1.785-.375.047-.009.093-.021.142-.026.725-.09,1.443-.2,2.167-.266a12.025,12.025,0,0,1,1.93-.055c.3.019.606.028.91.024a.687.687,0,0,1,.6.28,2.1,2.1,0,0,0,.779.592,2.221,2.221,0,0,1,.967.855c.069.114.154.219.23.328a.6.6,0,0,1,.131.406.577.577,0,0,0,.133.409.532.532,0,0,1,.116.375.932.932,0,0,0,.1.494.51.51,0,0,1,0,.456c-.035.079-.069.155-.1.237a.786.786,0,0,1-.542.5,7.568,7.568,0,0,0-1.231.425,5.038,5.038,0,0,1-.727.24.939.939,0,0,1-.678-.007,2.014,2.014,0,0,0-.316-.083c-.174-.045-.352-.092-.528-.133s-.331-.076-.5-.116a1.7,1.7,0,0,0-.891.048,3.586,3.586,0,0,1-1.041.166,1.944,1.944,0,0,0-.428.071,16.012,16.012,0,0,1-1.656.419,1.949,1.949,0,0,0-.28.079c-.142.033-.281.06-.423.09-.035.007-.076,0-.111.009l-1.312.3a2.426,2.426,0,0,1-.28.079,6.527,6.527,0,0,0-1.139.245,1.32,1.32,0,0,1-.287.047,1.949,1.949,0,0,0-.6.138,2.34,2.34,0,0,1-.82.148c-.28,0-.558.029-.836.031a1.18,1.18,0,0,1-.39-.055,1.9,1.9,0,0,0-1.114-.071,1.056,1.056,0,0,1-.361.019c-.314-.029-.627-.074-.939-.112a11.742,11.742,0,0,0-2-.095,1.952,1.952,0,0,1-.363,0,3.793,3.793,0,0,0-.839-.005c-.254.021-.506.043-.763.052a3.052,3.052,0,0,0-.789.119,1.2,1.2,0,0,1-.361.035,8.389,8.389,0,0,0-1.809.138c-.473.1-.958.143-1.44.214-.18.026-.363.052-.539.09q-1.067.225-2.136.461c-.285.062-.566.138-.851.2-.641.142-1.278.283-1.918.421-.169.036-.335.057-.5.09a2.523,2.523,0,0,0-.319.073,5.39,5.39,0,0,1-1.6.316,3.219,3.219,0,0,0-.748.155,7.038,7.038,0,0,1-1,.19,6.865,6.865,0,0,1-1.265.1,3.038,3.038,0,0,1-.685-.017.373.373,0,0,0-.145,0c-.287.048-.58.074-.86.15a3.91,3.91,0,0,1-1.158.079c-.5-.009-.994-.026-1.492-.036a.7.7,0,0,0-.18.017,1.849,1.849,0,0,1-.8.016.587.587,0,0,0-.181-.009,2.7,2.7,0,0,1-.8-.026,2.019,2.019,0,0,0-.653-.015.066.066,0,0,1-.036,0,3.052,3.052,0,0,0-1.084.022.589.589,0,0,1-.111,0c-.716-.064-1.428.052-2.146.012a4.914,4.914,0,0,0-.974.107,1.237,1.237,0,0,1-.4,0,4.444,4.444,0,0,0-1.265-.086c-.435.033-.872.073-1.307.079-.4.005-.8-.048-1.2-.045a9.521,9.521,0,0,0-1.455.038.453.453,0,0,1-.143.01,3.926,3.926,0,0,0-.944-.01,6.383,6.383,0,0,1-.908-.028,7.393,7.393,0,0,0-1.526.081,4.167,4.167,0,0,1-1.126.019,2.109,2.109,0,0,0-.83.074,1.1,1.1,0,0,1-.68-.009.89.89,0,0,0-.5-.016c-.621.143-1.26.093-1.885.2-.2.035-.409.06-.613.083-.278.031-.556.045-.83.09s-.521.107-.782.166c-.2.045-.4.093-.6.138-.235.055-.473.1-.708.166a3.679,3.679,0,0,1-.856.162,1.276,1.276,0,0,0-.356.071,4.549,4.549,0,0,1-.713.136c-.349.052-.691.138-1.034.209-.228.047-.452.091-.677.143-.166.038-.333.074-.5.128a3.715,3.715,0,0,1-1.246.214,2.857,2.857,0,0,0-.647.092,3.337,3.337,0,0,1-1.15.15.483.483,0,0,0-.214.028,5.706,5.706,0,0,1-1.766.217,1.1,1.1,0,0,0-.252.017,1.077,1.077,0,0,1-.47,0,1.211,1.211,0,0,0-.326-.019c-.363.016-.725.047-1.089.052a2.635,2.635,0,0,1-.506-.057,1.011,1.011,0,0,0-.432-.009,1.168,1.168,0,0,1-.611-.026,1.99,1.99,0,0,0-.647-.09.731.731,0,0,1-.316-.059,1.209,1.209,0,0,0-.642-.088.838.838,0,0,1-.561-.105.537.537,0,0,0-.235-.093,4.342,4.342,0,0,1-.855-.176,1.824,1.824,0,0,0-.4-.036,1.027,1.027,0,0,1-.585-.171,1.523,1.523,0,0,0-.533-.224,4.08,4.08,0,0,1-.58-.211.569.569,0,0,0-.459-.038.458.458,0,0,1-.452-.057c-.354-.245-.789-.312-1.15-.542a.943.943,0,0,0-.171-.059c-.192-.074-.387-.142-.573-.224a.815.815,0,0,0-.388-.076,2.422,2.422,0,0,1-.967-.138c-.287-.1-.573-.2-.863-.283-.188-.052-.383-.062-.573-.1a2.467,2.467,0,0,1-.423-.095,2.136,2.136,0,0,0-.787-.13c-.3,0-.6-.009-.908-.021a.541.541,0,0,1-.212-.041,1.773,1.773,0,0,0-.825-.095.8.8,0,0,0-.314.083,1,1,0,0,1-.39.071c-.338,0-.678.014-1.017.021a.847.847,0,0,0-.219.022,1.4,1.4,0,0,1-.682.035.85.85,0,0,0-.285.024,1.669,1.669,0,0,1-.654,0,.8.8,0,0,0-.5.055,2.708,2.708,0,0,1-.385.123,1,1,0,0,1-.464.017,1.267,1.267,0,0,0-.618.016c-.34.1-.694.114-1.038.186a3.159,3.159,0,0,1-.861.123.834.834,0,0,0-.214.05,2.376,2.376,0,0,1-.283.052c-.318.021-.632.035-.944.05a.283.283,0,0,0-.038,0c-.345.06-.692.109-1.031.185a1.577,1.577,0,0,1-.5.076,1.213,1.213,0,0,0-.5.086,3.489,3.489,0,0,1-.454.13,6.977,6.977,0,0,1-1.436.217,1.314,1.314,0,0,0-.326.054,1.136,1.136,0,0,1-.464.031,2.75,2.75,0,0,0-.83.086c-.625.088-1.25.152-1.882.188a14.5,14.5,0,0,0-1.816.128,5.808,5.808,0,0,1-1.051.073c-.4,0-.8.038-1.2.045-.23.005-.461-.021-.691-.024-.145,0-.29.01-.435.019a.531.531,0,0,1-.145.012,5.455,5.455,0,0,0-1.162-.052c-.5-.017-.989-.091-1.49-.081a8.469,8.469,0,0,1-1.015-.1c-.193-.022-.387-.045-.578-.059a7.172,7.172,0,0,1-.792-.105,5.494,5.494,0,0,0-1.053-.09,3.142,3.142,0,0,1-1.072-.173.652.652,0,0,0-.428-.028,1.34,1.34,0,0,1-.927-.074,2.736,2.736,0,0,0-.849-.171.707.707,0,0,0-.29.022.93.93,0,0,1-.777-.052,1.752,1.752,0,0,0-.989-.171,3.066,3.066,0,0,1-.9-.078,2.506,2.506,0,0,0-.58-.019,6.869,6.869,0,0,1-.943-.028,8.37,8.37,0,0,0-1.454-.091c-.145.009-.292-.012-.437-.01a.873.873,0,0,0-.323.029,4.5,4.5,0,0,1-.782.164c-.178.038-.359.064-.535.111a.711.711,0,0,1-.428,0,2.036,2.036,0,0,0-.684-.09.889.889,0,0,1-.456-.1c-.1-.048-.2-.1-.3-.145a1.433,1.433,0,0,1-.684-.675,3.2,3.2,0,0,1-.364-1.247.6.6,0,0,0-.022-.18,2.467,2.467,0,0,1-.067-.939" transform="translate(15.371 63.529)" fill-rule="evenodd"/>
            <path id="パス_1163" data-name="パス 1163" d="M220.987,83.256a1.636,1.636,0,0,0,.344-.005,7.342,7.342,0,0,0,.884-.221,2.993,2.993,0,0,1,1-.157.873.873,0,0,0,.287-.01,1.876,1.876,0,0,1,.646-.086,1.029,1.029,0,0,0,.528-.126.321.321,0,0,1,.131-.059,10.931,10.931,0,0,1,1.284-.233,3.353,3.353,0,0,0,.651-.078.962.962,0,0,0,.292-.138.666.666,0,0,1,.335-.124,11.7,11.7,0,0,0,2.2-.252,2.314,2.314,0,0,1,.723-.073.761.761,0,0,0,.421-.09,1.119,1.119,0,0,1,.454-.117.814.814,0,0,1,.523.116.68.68,0,0,0,.6.072,1.215,1.215,0,0,0,.585-.274.464.464,0,0,1,.368-.131.371.371,0,0,0,.145-.009,4.219,4.219,0,0,1,1.4-.1,1.989,1.989,0,0,1,.647.036.367.367,0,0,0,.214-.019.679.679,0,0,1,.426.007,1.132,1.132,0,0,0,.851-.088.789.789,0,0,1,.8,0,.547.547,0,0,0,.489.043.693.693,0,0,1,.321-.01.787.787,0,0,0,.4-.007.554.554,0,0,1,.426.022.721.721,0,0,0,.533,0,.8.8,0,0,1,.464-.057.358.358,0,0,0,.335-.1.64.64,0,0,1,.471-.154c.231.007.463,0,.692,0a.936.936,0,0,0,.219-.01,1.123,1.123,0,0,1,.5.009,1.26,1.26,0,0,0,.323,0c.157-.012.314-.034.473-.055a.968.968,0,0,1,.463.062,1.312,1.312,0,0,0,.387.074,1.917,1.917,0,0,1,.613.073.582.582,0,0,0,.394-.014,1.253,1.253,0,0,1,.787-.031.358.358,0,0,0,.283,0,.779.779,0,0,1,.492-.048c.354.021.7.007,1.06.019a2.7,2.7,0,0,1,.468.05,1.8,1.8,0,0,0,.651.031.567.567,0,0,1,.449.1.492.492,0,0,0,.58.029.536.536,0,0,1,.238-.074c.268-.01.534-.014.8-.005a1.23,1.23,0,0,1,.608.237c.192.121.38.257.568.394a1.048,1.048,0,0,1,.211.2,3.813,3.813,0,0,0,.471.5,2.485,2.485,0,0,1,.679.939.279.279,0,0,0,.029.066,1.606,1.606,0,0,1,.249,1.072.525.525,0,0,1-.164.387,1.262,1.262,0,0,0-.178.181.464.464,0,0,0-.057.575.731.731,0,0,1,.083.159.289.289,0,0,1-.2.4,3.935,3.935,0,0,1-1.367.162,1.419,1.419,0,0,0-1.141.364c-.238.193-.364.247-.71.009a7.257,7.257,0,0,0-.756-.432.54.54,0,0,0-.426-.031,1.054,1.054,0,0,1-.539,0,9.58,9.58,0,0,0-2.275-.214c-.376.017-.756-.01-1.131-.016-.121,0-.242,0-.364,0-.255,0-.511.007-.766,0-.4-.007-.8-.028-1.2-.031-.256,0-.509.024-.765.035-.485.022-.972,0-1.454.069-.228.033-.463,0-.7.012-.423.021-.846.043-1.269.085a5.114,5.114,0,0,1-.875.016.983.983,0,0,0-.6.109.707.707,0,0,1-.458.047,7.989,7.989,0,0,0-.91-.047,1.165,1.165,0,0,0-.312.083.964.964,0,0,1-.316.074c-.354-.047-.7.033-1.055,0a1.253,1.253,0,0,0-.29,0c-.409.066-.82.079-1.226.136a5.722,5.722,0,0,0-1.221.2,2.522,2.522,0,0,1-.43.079,3.812,3.812,0,0,0-1.081.314.561.561,0,0,1-.352.05,1.68,1.68,0,0,0-.361,0c-.083,0-.167.017-.254.021q-.616.047-1.234.088a.08.08,0,0,0-.035.005c-.535.186-1.108.126-1.652.268a3.685,3.685,0,0,1-.653.057c-.459.028-.92.05-1.381.081-.242.016-.482.041-.723.076a7.576,7.576,0,0,1-.908.012c-.34.007-.68.019-1.02.029a.7.7,0,0,1-.18.016,5.51,5.51,0,0,0-1.338.043,4.8,4.8,0,0,0-.684.083.934.934,0,0,1-.109.022c-.67,0-1.326.147-1.994.169a6.975,6.975,0,0,0-.9.114c-.577.1-1.16.112-1.742.167-.4.04-.8.083-1.2.121-.107.012-.218.012-.325.022-.181.016-.363.035-.544.054-.362.036-.723.073-1.086.107-.095.01-.2,0-.292.016a7.977,7.977,0,0,1-1.234.086.455.455,0,0,0-.071.005c-.485.054-.967.119-1.45.155a12.127,12.127,0,0,1-1.417.079,3.455,3.455,0,0,0-.977.088,1.5,1.5,0,0,1-.506.031,3.151,3.151,0,0,0-.687.009c-.28.038-.561.038-.837.067-.328.036-.651-.043-.979,0s-.653.059-.982.071c-.628.024-1.26.035-1.892.053-.449.014-.9.038-1.347.048-.242.005-.485-.009-.727-.012-.1,0-.193-.005-.29-.005s-.219.009-.328,0a2.317,2.317,0,0,0-.974.04.324.324,0,0,1-.109.009,7.186,7.186,0,0,0-1.8.242,1.132,1.132,0,0,1-.5.021.322.322,0,0,0-.143-.021c-.435.093-.874-.036-1.307.036a1.3,1.3,0,0,1-.817-.123,1.009,1.009,0,0,0-.634-.09,3.05,3.05,0,0,1-.763.022c-.23-.017-.463.009-.694.009-.278,0-.556-.01-.837-.016a.9.9,0,0,0-.216.007,3.719,3.719,0,0,1-.908.048c-.328.009-.654.028-.982.038a2.127,2.127,0,0,1-.362.012,1.4,1.4,0,0,0-.68.095,1.448,1.448,0,0,1-.748.09c-.312-.041-.63-.052-.944-.064-.159-.005-.318.007-.475.014a2.642,2.642,0,0,1-.328.024,4.4,4.4,0,0,0-.977.064,7.2,7.2,0,0,1-.944.043,5.2,5.2,0,0,0-.834.081,1.768,1.768,0,0,1-.58.01.605.605,0,0,0-.283.016,2.138,2.138,0,0,1-.684.081,4.185,4.185,0,0,0-.941.11,2,2,0,0,1-.357.057,7.055,7.055,0,0,0-1.16.107,1.019,1.019,0,0,1-.218.01,1.092,1.092,0,0,0-.5.078.649.649,0,0,1-.5.01.665.665,0,0,0-.532.031.482.482,0,0,1-.209.053,7.024,7.024,0,0,0-1.227.152c-.578.06-1.15.2-1.737.2a.866.866,0,0,0-.178.026,12.535,12.535,0,0,1-1.871.3,1.5,1.5,0,0,0-.35.081,1.026,1.026,0,0,1-.5.062,2.1,2.1,0,0,0-.689.052c-.369.067-.739.147-1.107.219a.845.845,0,0,1-.143.021,11.828,11.828,0,0,0-2.586.349,1.753,1.753,0,0,1-.326.036c-.254.017-.511.016-.763.043a5.023,5.023,0,0,1-1.017.055,1.726,1.726,0,0,0-.642.117,1.539,1.539,0,0,1-.421.088,1.774,1.774,0,0,0-.573.107,2.53,2.53,0,0,1-.748.145c-.171.016-.338.035-.508.047-.266.026-.533.04-.8.071a3.3,3.3,0,0,0-1.269.293.7.7,0,0,1-.35.062c-.159,0-.316.026-.471.04a1.493,1.493,0,0,1-.288.028,1.849,1.849,0,0,0-.718.093,1.21,1.21,0,0,1-.357.066,3.381,3.381,0,0,0-.722.088,2.8,2.8,0,0,1-.8.06.482.482,0,0,0-.25.021,3.354,3.354,0,0,1-.922.193c-.276.054-.554.088-.829.131a.654.654,0,0,1-.181.024,3.474,3.474,0,0,0-.97.117,8.26,8.26,0,0,1-1.447.157c-.325.016-.651.081-.974.121-.193.024-.387.04-.577.069a3.269,3.269,0,0,0-.533.1,2.753,2.753,0,0,1-.5.1,8.709,8.709,0,0,0-.974.126,7.123,7.123,0,0,0-.753.124.339.339,0,0,1-.18-.01.829.829,0,0,0-.463.024,3.725,3.725,0,0,1-.963.192,2.224,2.224,0,0,0-.319.06,2.494,2.494,0,0,1-.254.045c-.337.035-.677.036-1.01.1-.371.078-.746.1-1.12.148a1.138,1.138,0,0,1-.216.019,4.116,4.116,0,0,0-1.326.205,1.734,1.734,0,0,1-.9.064.609.609,0,0,0-.485.112,1.06,1.06,0,0,1-.875.138.94.94,0,0,0-.666.074,1.811,1.811,0,0,1-.925.152,3.236,3.236,0,0,0-.578.012c-.266.029-.533.047-.8.083a1.892,1.892,0,0,0-.388.1,2.675,2.675,0,0,1-.742.164,1.583,1.583,0,0,0-.359.066,2.2,2.2,0,0,1-.756.095,1.512,1.512,0,0,0-.606.088.852.852,0,0,1-.392.059,3.366,3.366,0,0,0-1.044.093,2.111,2.111,0,0,1-.578.045,2.511,2.511,0,0,0-.691.052,2.571,2.571,0,0,1-.542.036,14.248,14.248,0,0,0-2.545.123,1.3,1.3,0,0,1-1.114-.328,2.5,2.5,0,0,0-.784-.459c-.078-.028-.157-.06-.235-.1a.843.843,0,0,1-.4-.4,2.3,2.3,0,0,1-.186-1.7A.567.567,0,0,0,121.6,94a1.724,1.724,0,0,1,.426-1.1,4.078,4.078,0,0,1,.287-.376,1.551,1.551,0,0,1,1.077-.618.678.678,0,0,1,.425.064,1.023,1.023,0,0,0,.6.1c.228-.012.459-.031.689-.055a1.465,1.465,0,0,1,.433.024,6.313,6.313,0,0,0,.723.093,1.65,1.65,0,0,0,.577-.057,3.649,3.649,0,0,1,.537-.074c.326-.035.653-.057.977-.105a1.52,1.52,0,0,1,.433-.007,1.986,1.986,0,0,0,.506,0c.226-.028.452-.09.68-.121a2.974,2.974,0,0,1,.943-.029.974.974,0,0,0,.63-.1,1.467,1.467,0,0,1,.421-.109c.18-.029.359-.043.542-.06.2-.022.409-.04.615-.055a2.34,2.34,0,0,0,.328-.031.832.832,0,0,1,.432,0,.5.5,0,0,0,.354-.022.932.932,0,0,1,.464-.059,1.031,1.031,0,0,0,.325-.029,1.293,1.293,0,0,1,.72.024.466.466,0,0,0,.48-.069.974.974,0,0,1,.685-.192,2.383,2.383,0,0,0,.9-.053.66.66,0,0,1,.254,0,2.277,2.277,0,0,0,.725-.052,3.227,3.227,0,0,1,.577-.067.942.942,0,0,0,.489-.116,1.118,1.118,0,0,1,.737-.121,8.336,8.336,0,0,0,.908.036,1.306,1.306,0,0,1,.217,0,.942.942,0,0,0,.53-.093,1.852,1.852,0,0,1,.452-.126,6.567,6.567,0,0,1,1.633-.128,3.523,3.523,0,0,0,1-.162c.154-.029.311-.057.464-.09a2.288,2.288,0,0,0,.421-.109,1.888,1.888,0,0,1,.782-.145,2.259,2.259,0,0,0,.646-.086,4.888,4.888,0,0,0,1.074-.34.434.434,0,0,1,.513.041.539.539,0,0,0,.646.024,1.55,1.55,0,0,1,.7-.185c.288-.021.577-.062.87-.06a.975.975,0,0,0,.677-.223.693.693,0,0,1,.442-.143c.3-.009.608-.019.908-.045a1.664,1.664,0,0,0,.356-.073.647.647,0,0,1,.594.055.326.326,0,0,0,.311.05.772.772,0,0,1,.5-.019.532.532,0,0,0,.357-.031c.124-.045.252-.085.375-.142a1.286,1.286,0,0,1,.782-.1.987.987,0,0,0,.672-.093.771.771,0,0,1,.316-.064,5.035,5.035,0,0,1,.511-.01.569.569,0,0,0,.433-.152.867.867,0,0,1,.656-.266,1.216,1.216,0,0,0,.357-.064.691.691,0,0,1,.53.055c.119.057.243.107.368.155a.408.408,0,0,0,.416-.045.879.879,0,0,1,.439-.157,1.58,1.58,0,0,0,.476-.159,1.632,1.632,0,0,1,.875-.2,4.61,4.61,0,0,0,.618-.007,1.249,1.249,0,0,0,.309-.093,2.492,2.492,0,0,1,.337-.135,4.75,4.75,0,0,0,.849-.2.315.315,0,0,1,.071-.009,7.51,7.51,0,0,0,1.849-.378.783.783,0,0,1,.432-.022.744.744,0,0,0,.425-.035,5,5,0,0,1,.711-.145,1.141,1.141,0,0,0,.451-.129.5.5,0,0,1,.452-.04.584.584,0,0,0,.318.021.451.451,0,0,1,.411.078.4.4,0,0,0,.5.029,1.048,1.048,0,0,1,.7-.155,1.054,1.054,0,0,0,.594-.147,1.439,1.439,0,0,1,.846-.148,1.323,1.323,0,0,0,.613-.066,1.889,1.889,0,0,1,.537-.079,9.774,9.774,0,0,0,1.348-.055,2.836,2.836,0,0,0,.319-.069,1.926,1.926,0,0,1,1.074-.064.719.719,0,0,0,.326-.007,4.945,4.945,0,0,1,.9-.138,1.142,1.142,0,0,0,.25-.047,1.271,1.271,0,0,1,.5-.062.287.287,0,0,0,.109,0,1.33,1.33,0,0,1,.82,0,.5.5,0,0,0,.28-.052.6.6,0,0,1,.428-.017.753.753,0,0,0,.428,0,3.866,3.866,0,0,1,.83-.116,1.314,1.314,0,0,0,.39-.076.959.959,0,0,1,.5-.035c.155.022.314.035.47.053a.577.577,0,0,0,.475-.138.719.719,0,0,1,.47-.154,5.566,5.566,0,0,0,1.117-.1,1.287,1.287,0,0,1,.9.048,1.53,1.53,0,0,0,.247.053,1.933,1.933,0,0,1,.345.1.59.59,0,0,0,.527.022.954.954,0,0,1,.6-.05c.2.045.4.06.606.112a.68.68,0,0,0,.561-.091,1.616,1.616,0,0,1,.794-.226c.071-.009.155.014.216-.017a.694.694,0,0,1,.658,0c.055.028.142,0,.212-.021a.376.376,0,0,0,.128-.071.345.345,0,0,1,.409-.012.541.541,0,0,0,.449.062c.262-.052.528-.069.8-.095a1.769,1.769,0,0,1,.853.119,1.35,1.35,0,0,0,.925.066,1.311,1.311,0,0,1,.756,0c.152.047.3.086.456.135a.52.52,0,0,0,.516-.086,1.149,1.149,0,0,1,.754-.212c.39-.007.779-.005,1.167-.01a.489.489,0,0,1,.3.1.575.575,0,0,0,.376.109c.387-.007.777-.01,1.165.005a1.233,1.233,0,0,0,.827-.211.634.634,0,0,1,.444-.133,4.786,4.786,0,0,0,.9-.076,1.746,1.746,0,0,1,.471-.04,5.456,5.456,0,0,0,1.267-.028,1.515,1.515,0,0,1,.217.005,1.689,1.689,0,0,0,.183.021,8.08,8.08,0,0,1,1.412.107,1.041,1.041,0,0,0,.318-.047,4.2,4.2,0,0,0,.411-.154.28.28,0,0,1,.307.05c.005.007.017.014.026.022a.47.47,0,0,0,.378.183.777.777,0,0,0,.542-.174.329.329,0,0,1,.461-.036.846.846,0,0,0,.49.109,1.8,1.8,0,0,1,.29.009,1.269,1.269,0,0,0,.539-.064,2.978,2.978,0,0,1,.425-.088c.236-.043.48-.072.715-.129a.732.732,0,0,0,.274-.171.364.364,0,0,1,.432-.079.746.746,0,0,0,.392.066.371.371,0,0,1,.145.009,1.665,1.665,0,0,0,.863,0,.621.621,0,0,1,.321.028.992.992,0,0,0,.571-.007,1.706,1.706,0,0,1,.5-.053,1.22,1.22,0,0,0,.672-.121,1.032,1.032,0,0,1,.742-.085,2.743,2.743,0,0,0,.943.007c.216-.026.435-.038.653-.043a.848.848,0,0,0,.419-.095,1.04,1.04,0,0,1,.53-.095,4.551,4.551,0,0,0,.685-.06,8.3,8.3,0,0,1,1.664-.171.434.434,0,0,0,.406-.188c.252-.325.344-.311.5.066,0,.012.017.019.064.073" transform="translate(88.257 58.677)" fill-rule="evenodd"/>
            <path id="パス_1164" data-name="パス 1164" d="M177.663,83.317c.028.471.057.944.079,1.416a1.614,1.614,0,0,1-.009.2,2.76,2.76,0,0,0,0,.338c.016.086.076.205.157.167.066-.029.169-.143.233-.174.276-.123.485-.078.5.226a3.814,3.814,0,0,1-.022.73.625.625,0,0,0,.029.482.293.293,0,0,1,.016.212,1.681,1.681,0,0,1-.5.784,5.5,5.5,0,0,0-.428.394.853.853,0,0,1-.5.274.336.336,0,0,1-.347-.152.817.817,0,0,1-.1-.193c-.083-.266-.159-.535-.242-.8.043-.09-.019-.218-.071-.33a1.064,1.064,0,0,1-.131-.754.892.892,0,0,0,.009-.682,6.061,6.061,0,0,1-.09-.906,1.539,1.539,0,0,0-.028-.9,6.243,6.243,0,0,0,.029-1.281c0-.093.031-.19.035-.288a1.177,1.177,0,0,0,.014-.58c0-.036-.021-.074-.017-.107a1.211,1.211,0,0,0-.148-.927.415.415,0,0,1,.007-.247,2.234,2.234,0,0,1,.217-.447,1.454,1.454,0,0,0,.171-.894,1.452,1.452,0,0,1,.117-.748,2.7,2.7,0,0,0,.114-.456c.017-.085.024-.169.047-.252a2.516,2.516,0,0,0,.107-.936.659.659,0,0,1,.06-.316c.1-.259.218-.514.34-.765a7.073,7.073,0,0,0,.335-.844,11.9,11.9,0,0,1,.459-1.264,11.763,11.763,0,0,0,.575-1.687,3.525,3.525,0,0,1,.157-.4,3.309,3.309,0,0,1,.2-.392,1.232,1.232,0,0,1,.818-.668.68.68,0,0,1,.718.432.368.368,0,0,1-.028.243c-.23.433-.357.9-.547,1.352-.154.356-.285.722-.423,1.084a1.225,1.225,0,0,0-.078.28,2.891,2.891,0,0,1-.283.823c-.181.4-.359.8-.508,1.209a2.739,2.739,0,0,0-.116.642,1.613,1.613,0,0,1-.176.625,3.849,3.849,0,0,0-.278.9c-.033.116-.038.242-.079.356a1.107,1.107,0,0,0-.054.711.483.483,0,0,1,0,.18.617.617,0,0,0-.022.145,1.665,1.665,0,0,1-.166.879.5.5,0,0,0,.095.546c.081.093.192.185.278.1a2,2,0,0,0,.18-.217c.081-.1.142-.285.228-.383a1.1,1.1,0,0,1,.753-.4c.1-.009.193-.031.29-.04a1.105,1.105,0,0,0,.542-.193.708.708,0,0,1,.48-.123,4.225,4.225,0,0,0,1.012-.109c.131-.022.262-.055.392-.088a1.289,1.289,0,0,0,.269-.1,2.415,2.415,0,0,1,1.177-.335,1.794,1.794,0,0,0,.779-.159,1.6,1.6,0,0,1,.68-.095,3.171,3.171,0,0,0,.827-.119.481.481,0,0,1,.432-.014.4.4,0,0,0,.39-.126,1.47,1.47,0,0,0,.373-.7c.047-.262.071-.53.128-.791a.325.325,0,0,1,.029-.105,2.5,2.5,0,0,0,.259-.791.855.855,0,0,1,.059-.174,2.256,2.256,0,0,0,.328-.865c.083-.407.119-.851.185-1.248a1.448,1.448,0,0,1,.028-.18,16.559,16.559,0,0,0,.478-2.108c.016-.071.048-.2.055-.275a5.231,5.231,0,0,1,.356-1.367,1.456,1.456,0,0,0,.159-.782.671.671,0,0,1,.245-.47.769.769,0,0,1,.209-.164c.055-.019.269.014.328.005.371-.055.475.047.661.352a.482.482,0,0,1,.031.516,2.15,2.15,0,0,0-.247.832,5.15,5.15,0,0,1-.283.941,2,2,0,0,0-.148,1.034,3.848,3.848,0,0,0-.216,1.017,2.046,2.046,0,0,1-.249.63.5.5,0,0,0-.091.273,9.592,9.592,0,0,1-.133.969,1.789,1.789,0,0,1-.128.454q-.156.484-.314.969a.477.477,0,0,0-.019.071c-.1.5-.206,1-.283,1.5-.048.3.035.373.321.4a1.977,1.977,0,0,1,.319.022.409.409,0,0,1,.347.409,1.751,1.751,0,0,0,.131.713.51.51,0,0,1-.028.49,5.061,5.061,0,0,1-.337.477.586.586,0,0,1-.169.138.25.25,0,0,1-.333-.024c-.043-.04-.071-.136-.111-.181-.2-.214-.635.045-.647.281a3.221,3.221,0,0,1-.352.986,1.272,1.272,0,0,0-.11.454c0,.157-.017.411-.021.57a1.2,1.2,0,0,1-.073.4,2.089,2.089,0,0,0,.088,1.457.377.377,0,0,0,.076.124c.273.205.219.39.271.622a3.209,3.209,0,0,1,.057,1.269.2.2,0,0,1-.005.073c-.142.25-.186.556-.432.749a2.068,2.068,0,0,0-.416.452,1.076,1.076,0,0,1-.138.169.219.219,0,0,1-.324.033,1,1,0,0,1-.237-.223,2.833,2.833,0,0,1-.371-.811c0-.269,0-.274-.016-.5a3.455,3.455,0,0,0-.166-.535,2.207,2.207,0,0,0-.074-.794,2.388,2.388,0,0,1,.086-.791,1.335,1.335,0,0,0,.1-.863,7.814,7.814,0,0,0,.038-.837.543.543,0,0,1,.117-.293.558.558,0,0,0,.192-.571,2.9,2.9,0,0,1,.133-1.044.64.64,0,0,0,.029-.142c.119-.269.038-.539-.423-.494a1.533,1.533,0,0,1-.3-.062.555.555,0,0,0-.376.074,4.923,4.923,0,0,1-.922.2,3.7,3.7,0,0,0-.86.155,2.031,2.031,0,0,1-.492.007.773.773,0,0,0-.452.212,1.051,1.051,0,0,1-.439.171,3.742,3.742,0,0,0-.941.273.336.336,0,0,1-.14.041c-.318-.047-.582.171-.936.24-.059.01-.205.166-.266.161-.477-.048-.523.043-.727.3-.057.073-.209.057-.311.048a1.612,1.612,0,0,1-.651-.154c-.174-.1-.307.066-.368.25a1.247,1.247,0,0,0-.071.392c-.01.375,0,.753,0,1.129l-.024,0" transform="translate(127.933 49.486)" fill-rule="evenodd"/>
            <path id="パス_1165" data-name="パス 1165" d="M49,88.784a1.252,1.252,0,0,1,.192-.594,2.48,2.48,0,0,1,.211-.3,15.594,15.594,0,0,0,1.034-1.319c.254-.34.513-.677.746-1.031.259-.4.575-.754.868-1.127a5.362,5.362,0,0,0,.578-.879,2.128,2.128,0,0,1,.178-.28,13.742,13.742,0,0,0,.794-1.176,5.077,5.077,0,0,1,.6-.775,9.434,9.434,0,0,0,.836-1.146c.378-.552.729-1.12,1.114-1.666a8.117,8.117,0,0,1,.644-.739,2.7,2.7,0,0,0,.287-.33c.378-.635.836-1.222,1.167-1.889a6.175,6.175,0,0,1,.414-.642c.192-.281.387-.556.578-.839a3.014,3.014,0,0,0,.2-.35c.1-.2.192-.418.3-.622a1.245,1.245,0,0,0,.155-.52.914.914,0,0,1,.311-.6.621.621,0,0,1,.746-.035.821.821,0,0,1,.413.761,2.283,2.283,0,0,0,.15.931,2,2,0,0,1,.078.463,2.433,2.433,0,0,0,.174.889.756.756,0,0,1,.055.281c.045.482.085.967.131,1.448a2.356,2.356,0,0,0,.059.283,1.13,1.13,0,0,1,.017.542.679.679,0,0,0,.041.428.975.975,0,0,1,.055.642.464.464,0,0,0,.04.318c.045.1.088.2.135.3a.627.627,0,0,1,.062.456.706.706,0,0,0,.105.558c.036.064.076.124.116.186a.515.515,0,0,1,.067.487,1,1,0,0,0,.131.937.541.541,0,0,1,.079.449.955.955,0,0,0-.01.357A9.737,9.737,0,0,1,63,84.131a.442.442,0,0,0,.028.178,1.981,1.981,0,0,1,.1.716c.026.323.079.649.133.97a.455.455,0,0,0,.123.219.657.657,0,0,1,.18.635,1.08,1.08,0,0,0,.026.323c.038.216.078.432.112.647a.777.777,0,0,1,.012.252,1.161,1.161,0,0,0,.059.609,1.963,1.963,0,0,1,.088.751,6.418,6.418,0,0,0,.026.946.645.645,0,0,1-.361.691,2.805,2.805,0,0,0-.378.283.338.338,0,0,1-.464.024.935.935,0,0,1-.43-.943,1.265,1.265,0,0,0-.019-.5.64.64,0,0,1-.007-.287.934.934,0,0,0-.112-.666.705.705,0,0,1-.1-.489,1.087,1.087,0,0,0-.092-.568c-.073-.193-.145-.388-.231-.575a1.084,1.084,0,0,1-.045-.815,2.03,2.03,0,0,0,.085-.967c-.076-.466-.095-.939-.142-1.41-.007-.085-.022-.169-.036-.254-.029-.154-.062-.307-.091-.461a1.591,1.591,0,0,0-.041-.18.409.409,0,0,0-.444-.3c-.218.019-.432.06-.649.093a.808.808,0,0,1-.212.045,7.816,7.816,0,0,1-.9-.1,1.33,1.33,0,0,0-.577-.016,3.732,3.732,0,0,1-.83.079.93.93,0,0,0-.357.047,4.1,4.1,0,0,1-.775.2,4.093,4.093,0,0,0-.955.44c-.117.06-.221.149-.333.221a.86.86,0,0,0-.352.449,1.3,1.3,0,0,1-.216.376c-.169.223-.293.249-.53.111a2.834,2.834,0,0,1-.347-.264c-.157-.128-.235-.124-.369.026-.095.109-.2.214-.287.33a2.664,2.664,0,0,0-.18.313,2.511,2.511,0,0,1-.131.254c-.138.185-.276.368-.428.54a5.928,5.928,0,0,1-.532.551,1.453,1.453,0,0,0-.461.678,3.043,3.043,0,0,1-.34.641,6.52,6.52,0,0,1-.951,1.283,1.494,1.494,0,0,1-.218.19.638.638,0,0,1-.948-.285,2.721,2.721,0,0,1-.1-.38m11.444-7.1a.142.142,0,0,0,0-.038c.148,0,.294.005.437,0a.219.219,0,0,0,.236-.226,2.148,2.148,0,0,0-.026-.471c-.121-.608-.176-1.226-.318-1.832a2.642,2.642,0,0,1-.059-1.048,1.486,1.486,0,0,0-.04-.578c-.052-.235-.086-.476-.129-.713a2.877,2.877,0,0,0-.092-.426,2.173,2.173,0,0,1-.143-.637,1.147,1.147,0,0,0-.111-.382.133.133,0,0,0-.237-.016c-.043.06-.069.128-.107.192-.064.117-.129.231-.2.344-.114.173-.238.338-.354.508-.159.228-.318.461-.475.691-.18.261-.371.514-.53.784a3.189,3.189,0,0,1-.457.611.894.894,0,0,0-.228.28,2.949,2.949,0,0,1-.5.756c-.262.35-.539.691-.8,1.034a1.541,1.541,0,0,0-.183.273,1.661,1.661,0,0,1-.345.509,2.582,2.582,0,0,0-.366.623.135.135,0,0,0,.017.133.248.248,0,0,0,.159.057.349.349,0,0,0,.138-.04c.1-.038.2-.09.3-.119a4.833,4.833,0,0,1,1.355-.243.609.609,0,0,0,.212-.047,3.276,3.276,0,0,1,1.687-.114c.385.055.77.091,1.155.136" transform="translate(35.591 52.174)" fill-rule="evenodd"/>
            <path id="パス_1166" data-name="パス 1166" d="M163.188,70.808a7.593,7.593,0,0,0-.411.851,6.58,6.58,0,0,1-.319.931,5.708,5.708,0,0,1-.259.675.314.314,0,0,0-.017.18.864.864,0,0,1-.114.489,3.431,3.431,0,0,0-.307,1.193,1.9,1.9,0,0,1-.086.387c-.1.314-.2.623-.3.936-.016.047-.023.1-.041.14-.2.418-.285.874-.456,1.3-.045.114-.085.226-.119.344-.085.28-.155.559-.243.839-.124.382-.255.758-.394,1.134-.06.159-.148.306-.214.463-.1.237-.2.47-.278.711a1.2,1.2,0,0,1-.2.423A9.347,9.347,0,0,0,158.6,83a3.174,3.174,0,0,0-.456.906,1.248,1.248,0,0,1-.181.312,2.036,2.036,0,0,0-.394.849.358.358,0,0,1-.212.281,2.176,2.176,0,0,0-.789.837.843.843,0,0,1-.38.376,1.251,1.251,0,0,1-.737.143,4.729,4.729,0,0,1-1.05-.309.759.759,0,0,1-.242-.154,7.473,7.473,0,0,1-.59-.692,13.51,13.51,0,0,1-.924-1.4,3.1,3.1,0,0,1-.152-.326c-.107-.245-.212-.489-.318-.734a3.342,3.342,0,0,1-.337-1.181,3.041,3.041,0,0,0-.109-.794.693.693,0,0,1-.009-.287.935.935,0,0,0-.026-.432,4.458,4.458,0,0,1-.126-1.046,1.737,1.737,0,0,1,.066-.468.89.89,0,0,0,.01-.394,1.042,1.042,0,0,1,.045-.678,1.1,1.1,0,0,0,.007-.613,1.733,1.733,0,0,1-.017-.611.634.634,0,0,0-.031-.287.941.941,0,0,1,.017-.535c.052-.162.071-.331.112-.5a5.276,5.276,0,0,1,.142-.528,1.226,1.226,0,0,0,.081-.461.95.95,0,0,1,.019-.29c.135-.466.166-.955.323-1.419.123-.366.183-.754.274-1.131a2.559,2.559,0,0,1,.081-.278c.131-.368.259-.732.392-1.1a3.769,3.769,0,0,1,.209-.5.7.7,0,0,1,1.044-.3,1.411,1.411,0,0,1,.328.28.509.509,0,0,1,.121.442,1.22,1.22,0,0,1-.261.634A5.3,5.3,0,0,0,153.815,72a.329.329,0,0,0-.019.071c-.012.489-.226.937-.287,1.424-.036.3-.152.584-.166.889a.855.855,0,0,1-.092.276A2.953,2.953,0,0,0,153.1,76.2a1.6,1.6,0,0,1-.017.573,6.073,6.073,0,0,0-.1.83.822.822,0,0,0,.064.318,1.357,1.357,0,0,1,.04.791,2.635,2.635,0,0,0,0,1.228,3,3,0,0,1,.031.4c.019.29.036.582.057.872a.556.556,0,0,0,.029.143,5.052,5.052,0,0,1,.273,1.089,1.554,1.554,0,0,0,.276.708.2.2,0,0,1,.033.064,2.275,2.275,0,0,0,.549.932,5.292,5.292,0,0,1,.3.456.817.817,0,0,0,.537.35.448.448,0,0,0,.351-.054,1.465,1.465,0,0,0,.459-.407,1.336,1.336,0,0,1,.174-.235,2.813,2.813,0,0,0,.582-.827c.271-.489.549-.97.853-1.442a5.488,5.488,0,0,0,.6-1.077.887.887,0,0,1,.149-.252,3.686,3.686,0,0,0,.5-1c.105-.283.209-.57.3-.856.15-.487.288-.979.433-1.466.048-.15.114-.3.166-.445q.137-.394.264-.792c.016-.045.019-.1.038-.14a3.275,3.275,0,0,0,.29-1.084.072.072,0,0,1,.01-.036A4.984,4.984,0,0,0,160.7,73.7c.119-.382.228-.768.345-1.152.152-.511.307-1.022.461-1.533.048-.152.1-.3.152-.451a1.411,1.411,0,0,0,.1-.533.856.856,0,0,1,.1-.418,1.593,1.593,0,0,0,.136-.528c.021-.18.076-.352.114-.532a6.281,6.281,0,0,0,.126-.641.856.856,0,0,0-.057-.356,2.041,2.041,0,0,1-.055-.685.491.491,0,0,1,.226-.4.789.789,0,0,1,.856,0c.079.059.148.126.224.186a.857.857,0,0,1,.264.989.8.8,0,0,0,0,.565,1.481,1.481,0,0,1,.05.321c.017.133.033.266.045.4a.992.992,0,0,0,.245.559c.064.072.124.148.192.219a.659.659,0,0,1,.186.388,1.07,1.07,0,0,0,.162.439c.124.223.235.452.344.682a.834.834,0,0,1,.048.537c-.035.181-.166.224-.335.076-.223-.124-.337-.188-.561-.311a1.848,1.848,0,0,0-.39-.159c-.233-.036-.354-.112-.318-.492,0,0-.026-.093-.186-.057" transform="translate(110.1 48.193)" fill-rule="evenodd"/>
            <path id="パス_1167" data-name="パス 1167" d="M62.525,85.494a1.455,1.455,0,0,0-.028-.8c-.033-.2-.007-.411-.035-.615a2.8,2.8,0,0,1,.043-1.084,1.845,1.845,0,0,0,.026-.47,5.863,5.863,0,0,1,.185-1.55,1.757,1.757,0,0,0,.043-.288,1.458,1.458,0,0,1,.021-.216,6.3,6.3,0,0,0,.136-.711q.23-1.2.508-2.386c.073-.318.212-.62.307-.931a4.758,4.758,0,0,0,.193-.775,4.831,4.831,0,0,1,.2-.737.857.857,0,0,0,.031-.466.477.477,0,0,1,.1-.413c.095-.126.181-.259.285-.38a.531.531,0,0,1,.749-.1,2.276,2.276,0,0,1,.3.269.533.533,0,0,1,.136.506c-.033.152-.073.306-.105.461a5.082,5.082,0,0,0-.092.535,1.032,1.032,0,0,1-.116.38,3.307,3.307,0,0,0-.426,1.3,1.4,1.4,0,0,1-.067.28c-.088.28-.186.554-.262.834a2.449,2.449,0,0,0-.1.83,1.211,1.211,0,0,1-.11.6,1.006,1.006,0,0,0-.086.347,1.408,1.408,0,0,1-.126.494,2.046,2.046,0,0,0-.166.924,1.8,1.8,0,0,1-.048.615.525.525,0,0,0,.019.356.355.355,0,0,1,0,.318,1.953,1.953,0,0,0-.162.96c0,.316.022.63.035.946a.767.767,0,0,0,.114.416c.09.138.221.173.337.059a1.884,1.884,0,0,1,.634-.418.632.632,0,0,0,.231-.174c.219-.273.44-.547.637-.837a1.385,1.385,0,0,1,.385-.426,1.458,1.458,0,0,0,.456-.463c.316-.49.644-.972.967-1.457a2.089,2.089,0,0,0,.148-.29c.109-.259.2-.521.325-.772.085-.173.221-.318.306-.49s.095-.35.174-.513c.145-.294.313-.575.471-.863a.457.457,0,0,0,.05-.095,15.109,15.109,0,0,1,.92-1.9c.256-.549.561-1.074.848-1.611.045-.085.107-.162.159-.245a10.49,10.49,0,0,0,.594-.915,10.813,10.813,0,0,1,.57-1.05,1.941,1.941,0,0,0,.149-.7c.017-.074.007-.148.022-.219a.523.523,0,0,1,.589-.421,1.22,1.22,0,0,1,.623.176c.06.043.162.031.245.043.123.021.185.088.147.2a.563.563,0,0,0,.033.454.538.538,0,0,1,.028.249c0,.059-.041.121-.031.176a6.945,6.945,0,0,1-.007,1.088c0,.254.021.508.019.763a.5.5,0,0,1-.572.508c-.205-.022-.411-.034-.618-.057a.422.422,0,0,0-.385.162,2.7,2.7,0,0,0-.288.373c-.186.33-.347.668-.523,1-.09.171-.178.344-.269.515q-.285.531-.57,1.058a3.8,3.8,0,0,1-.23.411,1.929,1.929,0,0,0-.321.691,1.7,1.7,0,0,1-.319.649,1.291,1.291,0,0,0-.212.376,6.166,6.166,0,0,1-.551,1.186c-.29.5-.565,1.019-.846,1.531a.83.83,0,0,1-.114.183c-.375.416-.639.918-1.043,1.31a.987.987,0,0,0-.2.261,3,3,0,0,1-.4.559,4.063,4.063,0,0,1-.537.539,3,3,0,0,0-.406.466,10.738,10.738,0,0,1-1.2,1.317,1.33,1.33,0,0,1-.459.285.765.765,0,0,1-.889-.237.866.866,0,0,1-.261-.551A3.24,3.24,0,0,0,62.6,85.8c-.035-.1-.054-.209-.078-.307" transform="translate(45.35 51.676)" fill-rule="evenodd"/>
            <path id="パス_1168" data-name="パス 1168" d="M75.84,71.723a.753.753,0,0,0,.451-.074,1.956,1.956,0,0,1,.877-.188,3.164,3.164,0,0,0,.886-.183,1.046,1.046,0,0,1,.6-.055,1.454,1.454,0,0,0,.651.005A2.05,2.05,0,0,1,80,71.222c.287.041.58.062.87.091a2.841,2.841,0,0,0,.9-.057.354.354,0,0,1,.39.126.786.786,0,0,0,.527.3.667.667,0,0,1,.509.368c.1.188.252.356.375.537.143.207.142.292-.028.483a4.925,4.925,0,0,0-.649.877.762.762,0,0,1-.136.171.276.276,0,0,1-.3.088.6.6,0,0,0-.426,0,.183.183,0,0,1-.254-.136,4.127,4.127,0,0,1-.148-.785.409.409,0,0,0-.546-.4,1.739,1.739,0,0,0-.848.542,2.256,2.256,0,0,0-.38.616,1.673,1.673,0,0,1-.463.691,2.982,2.982,0,0,0-.582.741c-.261.44-.521.875-.775,1.319a2.943,2.943,0,0,0-.226.5,2.094,2.094,0,0,1-.288.546,2.25,2.25,0,0,0-.421,1.145.422.422,0,0,1-.119.3,1.434,1.434,0,0,0-.325.6,5,5,0,0,1-.285.628,1.628,1.628,0,0,0-.262.86,1.437,1.437,0,0,1-.09.425c-.057.211-.124.42-.178.63a3.911,3.911,0,0,0-.067.43c-.033.252-.05.506-.093.756-.09.527-.193,1.05-.292,1.576-.021.107-.047.212-.059.323-.038.385-.076.77-.112,1.158a.4.4,0,0,0-.005.143,1.329,1.329,0,0,1-.019.611.294.294,0,0,0,0,.145c.029.192.067.383.1.575a.327.327,0,0,0,.04.1.239.239,0,0,0,.335.117,3.211,3.211,0,0,0,.278-.169.776.776,0,0,1,.454-.117.259.259,0,0,1,.268.311c-.017.181-.036.364-.071.542a1.115,1.115,0,0,1-.789.955.462.462,0,0,1-.216.024,4.052,4.052,0,0,1-.565-.133,1.582,1.582,0,0,0-.554-.155.254.254,0,0,1-.242-.2c-.076-.231-.147-.463-.2-.7-.064-.259-.105-.525-.166-.784a1.948,1.948,0,0,1-.066-.863,1.087,1.087,0,0,0,.009-.29,3.065,3.065,0,0,1,.054-.616c.095-.575.183-1.151.252-1.73a6.29,6.29,0,0,1,.319-1.524,1.135,1.135,0,0,0,.038-.14c.076-.382.126-.768.228-1.141a9.076,9.076,0,0,1,.285-1.2c.116-.278.214-.565.356-.836a3.692,3.692,0,0,0,.2-.509c.064-.181.126-.364.186-.551a3.331,3.331,0,0,1,.387-.777c.142-.226.23-.482.349-.722a3.715,3.715,0,0,1,.281-.508,1.564,1.564,0,0,0,.3-.656,1.74,1.74,0,0,1,.42-.836,5,5,0,0,0,.668-1,1.709,1.709,0,0,1,.247-.314c.168-.2.344-.409.513-.615a.636.636,0,0,0,.095-.157.167.167,0,0,0-.1-.205.347.347,0,0,0-.145-.01c-.264.033-.532.055-.792.111a8.1,8.1,0,0,1-1.076.174c-.2.014-.388.042-.58.043a2.179,2.179,0,0,0-.6.126c-.349.107-.7.212-1.041.326a1.584,1.584,0,0,0-.326.159c-.164.105-.318.224-.48.33a.548.548,0,0,1-.732-.055.976.976,0,0,1-.3-.718.527.527,0,0,1,.152-.364,1.538,1.538,0,0,1,.456-.359c.216-.111.426-.233.644-.345a1.844,1.844,0,0,1,.268-.109,2.862,2.862,0,0,1,.38-.111,6.338,6.338,0,0,0,.982-.226.475.475,0,0,1,.155,0" transform="translate(52.885 51.718)" fill-rule="evenodd"/>
            <path id="パス_1169" data-name="パス 1169" d="M40.234,90.046c-.01-.123-.031-.312-.04-.508a2.549,2.549,0,0,1,.005-.325c.01-.268.028-.535.045-.8.01-.147.028-.292.04-.435a1.751,1.751,0,0,0,.031-.325,1.5,1.5,0,0,1,.123-.71c.069-.2.11-.4.167-.6a1,1,0,0,1,.1-.271,2.813,2.813,0,0,0,.361-1.1,1.659,1.659,0,0,1,.135-.489.386.386,0,0,0,.05-.135,5.738,5.738,0,0,1,.421-1.352.677.677,0,0,0,.048-.136,4.631,4.631,0,0,1,.5-1.279.154.154,0,0,0,.016-.035,5.19,5.19,0,0,1,.447-1.11,6.036,6.036,0,0,0,.337-.678,3.917,3.917,0,0,1,.218-.687,5.135,5.135,0,0,0,.447-1.153,1.6,1.6,0,0,1,.24-.445,1.9,1.9,0,0,0,.294-.582.815.815,0,0,1,.1-.233c.283-.456.487-.951.722-1.429a.976.976,0,0,0,.083-.2,2.617,2.617,0,0,1,.449-.865,4.485,4.485,0,0,0,.459-.827,5.491,5.491,0,0,1,.571-1.01.941.941,0,0,1,.352-.311.373.373,0,0,1,.414.017c.181.142.354.293.521.452a.3.3,0,0,1,.054.371,2.928,2.928,0,0,1-.537.9,3.5,3.5,0,0,0-.729,1.079c-.1.221-.231.426-.337.644a3.1,3.1,0,0,0-.192.471,1.291,1.291,0,0,1-.186.43,2.559,2.559,0,0,0-.4.855,1.629,1.629,0,0,1-.256.521,2.02,2.02,0,0,0-.261.435,12.109,12.109,0,0,0-.552,1.222,2.874,2.874,0,0,1-.361.87,1.274,1.274,0,0,0-.1.309,2.815,2.815,0,0,1-.159.444,4.464,4.464,0,0,0-.349.8,1.718,1.718,0,0,1-.112.268,3.3,3.3,0,0,0-.335.879,1.388,1.388,0,0,1-.167.364,1.554,1.554,0,0,0-.174.552,2.006,2.006,0,0,1-.224.765.611.611,0,0,0-.081.275,1.861,1.861,0,0,1-.147.6,2.343,2.343,0,0,0-.162.634,1.011,1.011,0,0,1-.085.314,15.192,15.192,0,0,0-.487,1.6.687.687,0,0,0-.005.319,4.261,4.261,0,0,1,.06,1.015,5.861,5.861,0,0,0,.035.836.785.785,0,0,0,.147.368,6.387,6.387,0,0,0,.444.477.309.309,0,0,0,.269.088,1.37,1.37,0,0,0,.863-.233.8.8,0,0,1,.231-.1c.338-.133.682-.255,1.012-.406a8.834,8.834,0,0,0,1.619-1.043,2.85,2.85,0,0,1,.426-.274.77.77,0,0,0,.364-.342.533.533,0,0,1,.312-.287.354.354,0,0,0,.126-.073.568.568,0,0,1,.594-.176.388.388,0,0,0,.338-.105c.1-.085.2-.173.3-.264a.363.363,0,0,1,.4-.1c.243.078.489.148.732.216a.561.561,0,0,1,.383.311c.066.129.145.25.209.383a.383.383,0,0,1-.181.552,2.1,2.1,0,0,1-.382.105c-.128.035-.262.055-.385.1a.555.555,0,0,1-.352.047.406.406,0,0,0-.342.085,2.276,2.276,0,0,1-.647.331.364.364,0,0,0-.128.067c-.575.387-1.188.711-1.732,1.146a4.6,4.6,0,0,1-.918.589c-.449.211-.889.444-1.345.641a5.541,5.541,0,0,1-1.2.432,2.45,2.45,0,0,1-1.219-.079.828.828,0,0,1-.28-.167,2.743,2.743,0,0,1-.7-1.093,3.016,3.016,0,0,0-.159-.4,1.647,1.647,0,0,1-.2-1.019" transform="translate(29.195 52.279)" fill-rule="evenodd"/>
            <path id="パス_1170" data-name="パス 1170" d="M96.815,70.048a3.046,3.046,0,0,1-.107.383,4.024,4.024,0,0,1-.214.421c-.217.378-.439.756-.659,1.133a.963.963,0,0,0-.152.516.651.651,0,0,1-.031.252c-.171.464-.333.937-.532,1.39-.128.288-.309.551-.459.829a2.218,2.218,0,0,0-.159.364,4.8,4.8,0,0,1-.535,1.11,4.523,4.523,0,0,0-.551,1.186c-.078.266-.171.53-.268.792a.929.929,0,0,1-.164.283,3.377,3.377,0,0,0-.52.994,5.482,5.482,0,0,1-.387.861.913.913,0,0,0-.105.269,4.979,4.979,0,0,1-.508,1.319,1.953,1.953,0,0,0-.1.23c-.078.192-.152.385-.223.577a1.758,1.758,0,0,0-.088.316,1.791,1.791,0,0,1-.278.706,1.093,1.093,0,0,0-.218.608.31.31,0,0,1-.034.14,3.685,3.685,0,0,0-.249.8,2.522,2.522,0,0,1-.2.47,1.727,1.727,0,0,0-.28.924.72.72,0,0,1-.069.281c-.083.2-.174.4-.261.6a1.13,1.13,0,0,0-.088.2,12.934,12.934,0,0,0-.34,1.564,3.37,3.37,0,0,1-.168.851,1.02,1.02,0,0,0,.007.784.266.266,0,0,1,.034.173c-.1.306-.123.651-.411.868-.069.052-.133.11-.2.154a2.925,2.925,0,0,0-.606.464c-.148.157-.24.15-.409.017-.154-.117-.3-.243-.454-.366a.3.3,0,0,1-.14-.314,2.362,2.362,0,0,0,.021-.653,1.049,1.049,0,0,1,.276-.8.654.654,0,0,0,.183-.463.685.685,0,0,1,.073-.28,5.51,5.51,0,0,0,.409-1.241,1.13,1.13,0,0,1,.043-.176c.235-.47.318-.989.508-1.478.167-.44.266-.906.407-1.357.161-.5.337-.987.5-1.481.041-.116.079-.23.114-.345.1-.314.18-.632.285-.941a2.046,2.046,0,0,1,.214-.42,2.788,2.788,0,0,0,.218-.458,5.256,5.256,0,0,1,.582-1.4.543.543,0,0,0,.067-.129l.632-1.55a3.2,3.2,0,0,1,.207-.463,3.182,3.182,0,0,0,.373-.946,2.575,2.575,0,0,1,.373-.865,5.162,5.162,0,0,0,.551-1.1,5.18,5.18,0,0,1,.549-1.108,3.041,3.041,0,0,0,.456-.986,1.908,1.908,0,0,1,.119-.3,8.453,8.453,0,0,0,.515-1.514,1.853,1.853,0,0,1,.254-.6,3.749,3.749,0,0,0,.461-.941,1.022,1.022,0,0,1,.4-.558c.124-.093.245-.2.375-.285a.356.356,0,0,1,.442.009,4.3,4.3,0,0,1,.366.3.507.507,0,0,1,.155.4" transform="translate(62.968 50.317)" fill-rule="evenodd"/>
            <path id="パス_1171" data-name="パス 1171" d="M166.756,87.113a.466.466,0,0,1,0-.121.7.7,0,0,0-.116-.654.251.251,0,0,1-.014-.247,2.51,2.51,0,0,0,.064-1.253,1.15,1.15,0,0,1,.007-.288.964.964,0,0,0-.142-.7.379.379,0,0,1-.007-.5.468.468,0,0,0,.059-.483,2.459,2.459,0,0,1-.13-.9c0-.178-.031-.361-.048-.54a1.048,1.048,0,0,1-.017-.29,1.8,1.8,0,0,0-.062-.754,1.555,1.555,0,0,1-.021-.8,2.932,2.932,0,0,0,.057-.615c.007-.167.035-.335.047-.5a2.035,2.035,0,0,0,.021-.325,2.339,2.339,0,0,1,.157-1.108.51.51,0,0,0,.033-.354.252.252,0,0,1-.019-.071,2.816,2.816,0,0,0,.028-.575,1.225,1.225,0,0,1,.057-.571,7.289,7.289,0,0,0,.257-1.322,4.578,4.578,0,0,1,.223-.913c.121-.387.344-.723.463-1.107a.424.424,0,0,1,.09-.157,5.723,5.723,0,0,1,.675-.713,2.08,2.08,0,0,1,.708-.366.534.534,0,0,1,.689.411.36.36,0,0,1-.074.34,1.531,1.531,0,0,1-.245.216,1.131,1.131,0,0,0-.471.584c-.074.23-.161.457-.245.685-.067.181-.138.363-.211.544s-.159.38-.224.575a1.124,1.124,0,0,0-.057.354,5.6,5.6,0,0,1-.116,1.088,1.79,1.79,0,0,0-.022.359,1.316,1.316,0,0,1-.095.571,1.71,1.71,0,0,0-.112.641,12.484,12.484,0,0,1-.136,1.41,2.978,2.978,0,0,0,.022,1.265.255.255,0,0,1,.014.072,4.983,4.983,0,0,0,.06.975,6.631,6.631,0,0,0,.072.977.83.83,0,0,1,.009.254,4.084,4.084,0,0,0,.121,1.157.936.936,0,0,1,.031.285,2.508,2.508,0,0,0,.04.546,1.56,1.56,0,0,1,0,.359,2.828,2.828,0,0,0-.017.4,2.426,2.426,0,0,1,.005.8.639.639,0,0,0,.036.25,4.682,4.682,0,0,0,.119.456,1.905,1.905,0,0,0,.141.294.89.89,0,0,1,0,.927,3.33,3.33,0,0,1-.3.407.271.271,0,0,1-.362.064c-.235-.128-.477-.247-.7-.394a.9.9,0,0,1-.344-.644" transform="translate(120.794 51.476)" fill-rule="evenodd"/>
            <path id="パス_1172" data-name="パス 1172" d="M84.509,71.589a1.067,1.067,0,0,1,.247.085,1.388,1.388,0,0,1,.651.753,1.329,1.329,0,0,0,.252.44,1.2,1.2,0,0,1,.2.3,5.216,5.216,0,0,0,.521.917,1.027,1.027,0,0,1,.154.287,2.284,2.284,0,0,0,.639,1.081,4.839,4.839,0,0,1,.8,1.207c.055.107.1.223.147.335a2.181,2.181,0,0,0,.613.846,1.077,1.077,0,0,1,.371.532,1.843,1.843,0,0,0,.5.706.275.275,0,0,0,.463-.131.387.387,0,0,0,.017-.109,1.581,1.581,0,0,1,.231-.72.568.568,0,0,1,.354-.3.264.264,0,0,1,.337.136.646.646,0,0,1,.057.174c.062.357.112.716.188,1.074a1.307,1.307,0,0,1-.028.611c-.045.176-.081.356-.126.53a1.97,1.97,0,0,1-.083.24c-.078.176-.167.349-.243.528a.645.645,0,0,1-.42.373.4.4,0,0,1-.409-.081c-.34-.309-.678-.622-1.012-.937a1.676,1.676,0,0,1-.259-.306,3.231,3.231,0,0,0-.426-.544.98.98,0,0,1-.185-.266,1.291,1.291,0,0,0-.476-.54.628.628,0,0,1-.28-.368,2.187,2.187,0,0,0-.164-.361c-.088-.173-.18-.345-.269-.518-.035-.062-.062-.131-.1-.19-.2-.281-.392-.558-.585-.836-.069-.1-.133-.2-.2-.3a4.611,4.611,0,0,0-.276-.378.473.473,0,0,1-.15-.394.442.442,0,0,0-.142-.357,4.222,4.222,0,0,1-.7-1.141,3.387,3.387,0,0,0-.564-1.013,2.068,2.068,0,0,1-.266-.433c-.264-.513-.007-.927.635-.932" transform="translate(60.852 52.004)" fill-rule="evenodd"/>
            <path id="パス_1173" data-name="パス 1173" d="M42.327,81.154a.356.356,0,0,1,.109-.3c.174-.152.352-.3.535-.435.136-.1.287-.185.43-.273a.83.83,0,0,1,.221-.124,1.236,1.236,0,0,0,.558-.331.976.976,0,0,1,.266-.183,8.292,8.292,0,0,0,.953-.537,2.353,2.353,0,0,1,.627-.29.728.728,0,0,0,.223-.117,1.987,1.987,0,0,1,.8-.34.5.5,0,0,0,.309-.18.439.439,0,0,1,.525-.136.307.307,0,0,0,.361-.1.743.743,0,0,1,.128-.128.248.248,0,0,1,.164-.06,2.132,2.132,0,0,0,.433.017.317.317,0,0,1,.188.091.359.359,0,0,0,.368.095.448.448,0,0,1,.319.028c.112.041.231.072.347.107a.376.376,0,0,1,.173.672,1.048,1.048,0,0,1-.29.217,4.889,4.889,0,0,1-.609.235.5.5,0,0,0-.3.19.308.308,0,0,1-.378.128,1.356,1.356,0,0,0-1.122.147.7.7,0,0,1-.262.124,3.128,3.128,0,0,0-.988.452c-.116.062-.238.121-.359.176a3.032,3.032,0,0,0-.772.478,3.028,3.028,0,0,1-.385.271q-.319.215-.637.423a.954.954,0,0,1-.223.128,1.563,1.563,0,0,0-.585.356.293.293,0,0,1-.4.041c-.2-.14-.388-.29-.571-.449a.5.5,0,0,1-.155-.394" transform="translate(30.746 56.384)" fill-rule="evenodd"/>
            <path id="パス_1174" data-name="パス 1174" d="M45.439,75.351c.1-.007.2-.021.312-.024.366-.007.727-.021,1.091-.016a1.843,1.843,0,0,0,.54-.04.578.578,0,0,1,.319-.014,2.682,2.682,0,0,0,.974.045,2.718,2.718,0,0,1,.29-.007,1.2,1.2,0,0,0,.608-.05.418.418,0,0,1,.281.017,1.215,1.215,0,0,1,.59.518.3.3,0,0,1-.035.4,1.584,1.584,0,0,1-.155.15,1.09,1.09,0,0,0-.33.425c-.085.2-.19.237-.375.121a.859.859,0,0,0-.767-.091.625.625,0,0,1-.426-.01c-.066-.028-.155-.074-.207-.048-.266.126-.549.014-.82.079a.655.655,0,0,1-.281-.021,2.32,2.32,0,0,0-.974-.057.489.489,0,0,1-.18.012.884.884,0,0,0-.561.117,1.012,1.012,0,0,1-.416.116c-.221.019-.293.107-.306.326,0,.109.009.218,0,.326a.293.293,0,0,1-.471.243,2.106,2.106,0,0,1-.407-.3c-.155-.15-.293-.323-.435-.489a.73.73,0,0,1-.095-.82,1.082,1.082,0,0,1,.8-.675c.283-.055.566-.128.849-.2a1.1,1.1,0,0,1,.585-.038" transform="translate(31.322 54.648)" fill-rule="evenodd"/>
            <path id="パス_1175" data-name="パス 1175" d="M42.574,68.4a1.025,1.025,0,0,0-1.436-.514,5.73,5.73,0,0,1-.741.29.91.91,0,0,0-.287.154c-.219.128-.432.268-.658.387a4.344,4.344,0,0,0-.849.494,2.7,2.7,0,0,0-.918.634,2.006,2.006,0,0,0-.325.338.625.625,0,0,1-.3.256,1.252,1.252,0,0,0-.43.328,5.393,5.393,0,0,1-.856.839.48.48,0,0,0-.126.131,20.132,20.132,0,0,1-1.73,1.866c-.116.128-.212.264-.314.4-.223.3-.442.611-.665.915-.007.01-.022.074-.033.078-.045.014-.1.048-.131.035a.249.249,0,0,1-.105-.135.817.817,0,0,1,.016-.231.588.588,0,0,0-.383-.668c-.119-.059-.249-.095-.375-.143a.393.393,0,0,0-.435.095c-.071.066-.154.271-.228.335s-.121.021-.18-.048-.155-.276-.19-.338a.364.364,0,0,0-.323-.231,3.727,3.727,0,0,1-.463-.129.306.306,0,0,0-.407.136c-.167.254-.34.5-.5.761a.366.366,0,0,0-.054.205,8.19,8.19,0,0,0-.033.944.629.629,0,0,1-.038.249,2.143,2.143,0,0,0,.064,1.215.617.617,0,0,1,.035.321c-.041.2-.062.407-.1.611a1.219,1.219,0,0,1-.088.312,1.39,1.39,0,0,0-.1.891c.036.161.1.288.022.433a2.438,2.438,0,0,1-.124.228c-.129.192-.1.312.057.506.11.135.057.294.066.47a2.182,2.182,0,0,1-.148.855.97.97,0,0,0-.069.463,1.794,1.794,0,0,1-.047.615c-.036.154-.041.312-.071.466-.019.093.043.081.007.167s-.138.178-.181.252c0,.243.363.278.095.689a.181.181,0,0,0-.009.11,2.83,2.83,0,0,1-.057,1.05,1.234,1.234,0,0,1-.173.741.6.6,0,0,0,0,.43.567.567,0,0,1-.052.521.522.522,0,0,0-.026.423.94.94,0,0,1,.059.319c-.014.218-.052.435-.074.651-.024.242-.055.482-.06.723a1.539,1.539,0,0,1-.062.5,1.162,1.162,0,0,0-.054.468,1.05,1.05,0,0,1-.1.677.557.557,0,0,0-.052.318c0,.608-.107,1.208-.093,1.816,0,.047-.022.095-.024.145a3.3,3.3,0,0,0-.012.433,4.545,4.545,0,0,1-.005.906,7.914,7.914,0,0,1-.152,1.191.549.549,0,0,0-.007.219,2.215,2.215,0,0,1-.043.615,1.527,1.527,0,0,0,0,.4.971.971,0,0,1-.031.5,1.625,1.625,0,0,0-.078.575,3.21,3.21,0,0,1-.014.364,2.511,2.511,0,0,0,.392,1.561c.142.264.345.276.563.062a.487.487,0,0,0,.052-.052c.133-.142.268-.28.4-.426a.6.6,0,0,0,.133-.211,1.8,1.8,0,0,0,.1-.718,2.476,2.476,0,0,1,.145-1.108,3.1,3.1,0,0,0,.092-.352c.05-.238.085-.48.15-.713a1.324,1.324,0,0,0,.041-.5,1.963,1.963,0,0,1,.126-1.107,1.453,1.453,0,0,0,.079-.28,4.446,4.446,0,0,1,.185-.57l.005-.031a1.9,1.9,0,0,0-.012-.628c-.033-.057.047-.185.128-.16s.1.124.114.171,0,.513,0,.68a.449.449,0,0,1-.007.18,2.311,2.311,0,0,0-.047.578.532.532,0,0,1-.026.18c-.074.257-.162.508-.226.767a1.95,1.95,0,0,0-.054,1.076,3.019,3.019,0,0,1,.119.6c.021.2.069.383.095.577a3.185,3.185,0,0,1,.022.361c0,.231,0,.463-.012.692a1.152,1.152,0,0,0,.237.715.585.585,0,0,0,.953.009c.121-.154.254-.3.373-.449.138-.169.205-.09.205-.09s.11.117.147.145a2.9,2.9,0,0,0,.849.461c.055.017.129.121.178.155.565.421.516.35,1.172.173A2.856,2.856,0,0,0,35.6,99.2a.769.769,0,0,1,.347-.257.925.925,0,0,0,.445-.361c.064-.088.145-.164.214-.249.281-.349.563-.7.846-1.048a2.9,2.9,0,0,1,.262-.3A9.005,9.005,0,0,0,38.455,96a.469.469,0,0,0,.059-.133,1.677,1.677,0,0,1,.363-.582,2.016,2.016,0,0,0,.224-.288c.349-.554.692-1.112,1.036-1.669a.577.577,0,0,0,.048-.1c.1-.193.2-.388.3-.58.14-.257.285-.509.421-.767a1.111,1.111,0,0,0,.112-.269,1.7,1.7,0,0,1,.292-.621,1.261,1.261,0,0,0,.171-.357c.078-.281.135-.566.2-.851a1.9,1.9,0,0,1,.085-.276,1.78,1.78,0,0,0,.138-.675c.005-.7.01-1.407.005-2.111a1.722,1.722,0,0,0-.349-1.127.86.86,0,0,1-.057-.1,2.843,2.843,0,0,0-.71-.822c-.174-.131-.357-.249-.54-.371a7.445,7.445,0,0,1-1.165-.737.28.28,0,0,0-.34-.048.492.492,0,0,1-.485-.024.529.529,0,0,0-.24-.071A4.619,4.619,0,0,0,36.9,83.4a1.6,1.6,0,0,1-.29.028c-.231.007-.457.009-.689,0a.163.163,0,0,1-.143-.212,2.259,2.259,0,0,1,.152-.328c.178-.318.387-.622.54-.95.221-.475.582-.868.765-1.364a.078.078,0,0,1,.019-.028,3.306,3.306,0,0,0,.471-.9c.123-.3.249-.608.38-.908a1.53,1.53,0,0,1,.135-.216c.288-.449.584-.894.863-1.35a1.284,1.284,0,0,0,.159-.44,1.258,1.258,0,0,1,.256-.554,3.98,3.98,0,0,0,.259-.4,8.4,8.4,0,0,1,.628-1.148,1.662,1.662,0,0,0,.121-.226.858.858,0,0,1,.131-.214,4.191,4.191,0,0,0,.527-.786,1.735,1.735,0,0,0,.219-.537,3.268,3.268,0,0,1,.449-1.07,1.637,1.637,0,0,0,.124-.221c.145-.371.287-.748.428-1.12.016-.045.021-.095.033-.14.045-.164.085-.33.135-.49a2.84,2.84,0,0,0,.123-.9,1.374,1.374,0,0,0-.116-.53M29.942,84.446c-.116-.081,0-.4,0-.4.112-.073.183.072.193.2s-.081.283-.193.2m.193,8.256a.6.6,0,0,1-.164.016c-.038-.01-.055-.164.028-.186,0,0,.1-.059.136,0a.272.272,0,0,1,0,.171m.052-8.943c-.033-.029-.143.059-.143-.1,0-.124.014-.582.143-.661a.4.4,0,0,1,.093.022c.085.057.038.547-.093.742m.323-1.749c-.04.126-.043.3-.111.482l-.028.181h-.079s-.076,0-.1-.033a1.21,1.21,0,0,1-.038-.285h0a.635.635,0,0,1,.107-.471c.019-.035.107-.312.145-.309.161-.01.157.186.161.252a.52.52,0,0,0-.06.183m.071-.767c-.079.092-.124.057-.124.057s-.148-.447,0-.584c0,0,.1.024.124.1s.081.331,0,.423m.024-.663c-.066.059-.152-.052-.173-.138-.01-.045,0-.23,0-.249a2.791,2.791,0,0,1,.311-.918c.159-.067.1.142.124.252a1.284,1.284,0,0,1-.262,1.053m5.951,4.444a4.178,4.178,0,0,1,.937-.071c.1.005.2-.005.293-.009a2.184,2.184,0,0,1,1.464.357c.095.073.214.116.314.181.214.136.43.275.634.426a.924.924,0,0,1,.319.577,3.253,3.253,0,0,0,.131.418c.014.045.112.15.1.193-.109.516.19.742-.022,1.058a5,5,0,0,0-.178,1.217,4.2,4.2,0,0,0-.307,1.041c-.235.387-.489.829-.677,1.195-.083.161-.143.335-.228.5-.1.192-.219.376-.326.565-.085.148-.166.3-.252.444a2.96,2.96,0,0,1-.183.313c-.181.259-.373.511-.556.768a1.923,1.923,0,0,0-.216.337,4.139,4.139,0,0,1-.533.822c-.28.368-.535.749-.815,1.119a7.273,7.273,0,0,1-1.537,1.644,4.4,4.4,0,0,0-.42.349,1.135,1.135,0,0,1-.482.247,3.984,3.984,0,0,0-.42.117.67.67,0,0,1-.684-.124c-.18-.143-.356-.293-.525-.449a4.231,4.231,0,0,0-.644-.589.99.99,0,0,1-.238-.226c-.145-.167-.121-.288.064-.423.031-.021.064-.038.095-.055a.635.635,0,0,0,.314-.684,1.134,1.134,0,0,0-.287-.694.794.794,0,0,1-.219-.666c.012-.181-.017-.364-.007-.546.024-.387.064-.773.1-1.158.007-.073.028-.145.028-.218a12.908,12.908,0,0,1,.216-2.137.62.62,0,0,0,0-.252,1.871,1.871,0,0,1,.073-.97,2.2,2.2,0,0,0,.059-.972,4.08,4.08,0,0,1-.028-.582,1.006,1.006,0,0,1,.048-.285c.093-.311.174-.435.532-.371a.849.849,0,0,0,.148,0,.644.644,0,0,0,.708-.243c.264-.269.532-.535.8-.8a.994.994,0,0,1,.454-.292,1.034,1.034,0,0,0,.516-.385.875.875,0,0,1,.52-.373.1.1,0,0,0,.035-.014,1.843,1.843,0,0,1,.882-.294m4.751-15.217a2.761,2.761,0,0,1-.176.4,12.1,12.1,0,0,1-.508,1.12,1.331,1.331,0,0,0-.069.129c-.154.342-.307.687-.457,1.031a3.011,3.011,0,0,1-.371.708,11.661,11.661,0,0,1-.594,1.124,5.916,5.916,0,0,1-.682,1.158.977.977,0,0,0-.164.283,3.7,3.7,0,0,1-.363.754.507.507,0,0,0-.052.095c-.3.735-.773,1.372-1.115,2.086a.808.808,0,0,0-.092.2,1.627,1.627,0,0,1-.285.627,1.624,1.624,0,0,0-.167.321,3.456,3.456,0,0,1-.654,1.086,1.2,1.2,0,0,0-.193.47c-.022.114-.06.111-.114.217-.086.176-.192.338-.276.513a1.4,1.4,0,0,1-.328.476.627.627,0,0,0-.188.344.8.8,0,0,1-.1.271c-.193.309-.4.613-.59.92-.091.143-.174.292-.261.44a3.327,3.327,0,0,1-.651.868,1.247,1.247,0,0,1-.268.188.246.246,0,0,1-.366-.249c.005-.059.021-.119.045-.262-.026-.209-.045-.5-.1-.784a.919.919,0,0,1,.043-.6.625.625,0,0,0,.029-.43,1.868,1.868,0,0,1,0-.97.594.594,0,0,0,.022-.181,6.521,6.521,0,0,0,.009-1.2.8.8,0,0,1,.076-.5.6.6,0,0,0,.083-.463.869.869,0,0,1,.031-.252.883.883,0,0,0,.033-.394.593.593,0,0,1,.1-.458,1.755,1.755,0,0,0,.249-.829.955.955,0,0,1,.23-.563.509.509,0,0,0,.164-.318,1.219,1.219,0,0,1,.433-.815,1.887,1.887,0,0,0,.44-.616.812.812,0,0,1,.131-.219,6.753,6.753,0,0,1,1.015-1.091,1.93,1.93,0,0,0,.368-.4,4.131,4.131,0,0,1,.394-.475,4.447,4.447,0,0,0,.732-.9,1.819,1.819,0,0,1,.5-.52,4.5,4.5,0,0,0,1.065-.989,1.368,1.368,0,0,1,.442-.366,2.357,2.357,0,0,0,.777-.584A.742.742,0,0,1,40,69.945a2.126,2.126,0,0,0,.67-.269,1.063,1.063,0,0,1,.435-.143.2.2,0,0,1,.2.276" transform="translate(19.874 49.238)"/>
            <path id="パス_1176" data-name="パス 1176" d="M127.077,87.725a.775.775,0,0,0-.463-.482c-.186-.081-.363-.193-.544-.292a3.056,3.056,0,0,0-.325-.169c-.454-.169-.91-.333-1.367-.5a.33.33,0,0,0-.28.017,3.126,3.126,0,0,1-.288.159c-.335.135-.673.271-1.015.394a1.553,1.553,0,0,1-.53.119,3.587,3.587,0,0,0-.887.183.571.571,0,0,0-.25.143,1.1,1.1,0,0,1-.846.266.84.84,0,0,0-.525.107.211.211,0,0,1-.136.043,1.6,1.6,0,0,0-.715.074.335.335,0,0,1-.18-.009.874.874,0,0,0-.754.18.858.858,0,0,1-.687.169.72.72,0,0,0-.459.076,2.179,2.179,0,0,0-.266.117,1.566,1.566,0,0,1-.972.205.522.522,0,0,1-.5-.3,17.56,17.56,0,0,1-.873-1.759.891.891,0,0,0-.138-.255,3.432,3.432,0,0,1-.537-1.186.287.287,0,0,1,.019-.247,2.028,2.028,0,0,1,.635-.739,1.911,1.911,0,0,0,.385-.323c.138-.138.257-.3.4-.433a2.151,2.151,0,0,1,.383-.326,1.6,1.6,0,0,0,.558-.568,2.477,2.477,0,0,1,.494-.627.992.992,0,0,0,.145-.162,10.134,10.134,0,0,1,.918-1.265.111.111,0,0,0,.021-.031c.133-.157.257-.319.4-.47a1.844,1.844,0,0,0,.325-.437,1.64,1.64,0,0,1,.266-.387,3.553,3.553,0,0,0,.5-.713c.1-.169.19-.338.3-.5a5.312,5.312,0,0,0,.573-1.136,2.687,2.687,0,0,1,.383-.739,1.387,1.387,0,0,0,.245-.523c.06-.223.136-.44.2-.663a3.551,3.551,0,0,0,.129-.492,13.969,13.969,0,0,0,.3-1.756c0-.022.012-.047.012-.071.01-.155.023-.312.029-.471a4.545,4.545,0,0,1,.031-.687,1.82,1.82,0,0,0-.1-1.141,2.268,2.268,0,0,1-.167-.742,2.407,2.407,0,0,0-.076-.537,12.175,12.175,0,0,0-.625-1.749,3.31,3.31,0,0,0-.468-.737c-.309-.369-.658-.711-1-1.062a1,1,0,0,0-.226-.18,7.143,7.143,0,0,0-1.742-.729.7.7,0,0,0-.216-.019c-.183.014-.363.036-.546.05a.527.527,0,0,0-.437.287c-.053.093-.1.2-.231.224-.109-.029-.185-.157-.34-.086a1.955,1.955,0,0,1-.651.331,1.72,1.72,0,0,0-.506.283c-.283.23-.546.482-.825.715a.783.783,0,0,0-.292.527c-.012.1.038.219.017.314s-.1.14-.148.205c-.112.159-.238.306-.357.458-.076.1-.048.171-.167.135-.09-.026-.3-.129-.4-.043s.045.252.073.356a.134.134,0,0,1-.159.181c-.06-.01-.176-.1-.235-.114a.154.154,0,0,0-.181.133.678.678,0,0,0,.007.145c.145.409-.06.625-.483.727a.492.492,0,0,0-.337.35c-.04.142-.093.278-.123.421a.7.7,0,0,1-.247.435c-.095.19-.233.214-.357.311a.757.757,0,0,0-.264.293c-.01.216-.161.238-.292.314a.271.271,0,0,0-.171.261.663.663,0,0,1-.174.615.218.218,0,0,0-.034.1c.01.249-.105.318-.218.449a.489.489,0,0,0-.1.193.724.724,0,0,1-.145.489,1.5,1.5,0,0,1-.228.68.332.332,0,0,0-.052.249c.074.2-.038.288-.136.4-.161.193-.129.335-.029.554.038.074.159.223.128.287a.453.453,0,0,0,.01.559,2.558,2.558,0,0,1,.059.447c.007.107-.081.268-.052.369a.761.761,0,0,1,.071.533,4.557,4.557,0,0,0,.207,1.362,1.618,1.618,0,0,1,.145.561,1.287,1.287,0,0,0,.207.5,1.1,1.1,0,0,1,.155.243,1.207,1.207,0,0,0,.292.456c.076.069.157.135.138.237a.544.544,0,0,0,.218.511,1.341,1.341,0,0,1,.335.642.979.979,0,0,0,.091.2.586.586,0,0,1,.086.383.462.462,0,0,0,.131.363,1.21,1.21,0,0,1,.352.44c.081.157.045.25-.121.321a4.785,4.785,0,0,0-.48.216c-.131.076-.33.359-.489.116a.384.384,0,0,0-.205.047.213.213,0,0,0-.133.268c.009.035.066.052.081.086a.259.259,0,0,1-.06.33,4.31,4.31,0,0,1-.44.331c-.095.073-.209.123-.309.188-.171.114-.344.231-.508.354-.207.19-.283.126-.433.009-.133-.1-.221-.04-.356.045-.054.035-.155.019-.209.047-.13.067-.119.214-.112.364s-.155.238-.259.345a4.731,4.731,0,0,1-.342.33c-.188.15-.387.293-.589.425a.781.781,0,0,0-.361.442c-.014.045-.055.088-.052.136.014.254-.112.3-.28.176a.308.308,0,0,0-.319.126.819.819,0,0,0-.069.085.229.229,0,0,1-.323.055,1.14,1.14,0,0,0-.167-.073c-.054.064-.111.1-.126.154a4.949,4.949,0,0,1-.35.72c-.06.138-.114.311-.249.385-.176.095-.121.268-.105.457a3.428,3.428,0,0,1-.066.96.48.48,0,0,0,.09.38,2.816,2.816,0,0,1,.3.583,1.134,1.134,0,0,0,.176.316,5.2,5.2,0,0,0,.661.817.339.339,0,0,1,.107.148,1.045,1.045,0,0,0,.659.587,7.935,7.935,0,0,0,.83.276,1.589,1.589,0,0,0,.794.054,3.086,3.086,0,0,1,.8-.052,2.048,2.048,0,0,0,.433-.031c.306-.057.613-.15.925-.19a6.483,6.483,0,0,0,.962-.186,2.222,2.222,0,0,1,.323-.064,10.864,10.864,0,0,0,1.569-.309c.335-.1.682-.169,1.024-.255a3.27,3.27,0,0,1,.932-.142.772.772,0,0,0,.319-.057,6.159,6.159,0,0,1,.965-.192.308.308,0,0,1,.321.124c.05.055.092.116.14.171a6.636,6.636,0,0,0,.5.577,1.867,1.867,0,0,1,.426.537.772.772,0,0,0,.123.18c.23.268.464.527.7.794q.453.523.9,1.051c.031.036.054.079.083.119.131.19.259.382.4.566.162.212.326.421.5.625a4.872,4.872,0,0,0,.4.425.752.752,0,0,1,.235.318.5.5,0,0,0,.274.321.483.483,0,0,1,.242.306c.022.083.059.161.088.242a3.256,3.256,0,0,0,1.2,1.518c.138.1.266.211.4.321.2.174.4.359.6.53a.458.458,0,0,0,.5.116,3.906,3.906,0,0,0,.565-.328.469.469,0,0,0,.2-.477,1.042,1.042,0,0,0-.409-.858c-.086-.083-.186-.155-.273-.242a1.769,1.769,0,0,1-.24-.269c-.185-.285-.345-.589-.549-.858a11.52,11.52,0,0,0-.81-1.031,3.609,3.609,0,0,1-.634-.97.788.788,0,0,0-.2-.3,4.115,4.115,0,0,1-.894-1.141.821.821,0,0,0-.2-.261,1.528,1.528,0,0,1-.464-.594,1.691,1.691,0,0,0-.186-.273c-.271-.357-.549-.71-.82-1.069-.117-.157-.228-.318-.33-.482a.185.185,0,0,1,.126-.3,1.491,1.491,0,0,1,.288-.041,1.728,1.728,0,0,0,.794-.24.945.945,0,0,1,.559-.136,1.213,1.213,0,0,0,.326-.01,4.651,4.651,0,0,0,.975-.283,2.126,2.126,0,0,1,.927-.287.237.237,0,0,0,.033-.009l1-.193a.411.411,0,0,1,.145-.007,1.067,1.067,0,0,0,.634-.121.6.6,0,0,1,.387-.071,1.19,1.19,0,0,0,.578-.033,2.177,2.177,0,0,1,.789-.076.546.546,0,0,0,.318-.053,3.383,3.383,0,0,0,.573-.445,1.4,1.4,0,0,1,.387-.318.673.673,0,0,0,.409-.6.5.5,0,0,1,.212-.438.367.367,0,0,0,.145-.387,3.135,3.135,0,0,0-.138-.451M116.96,77.56c-.057-.06-.06-.15.074-.2,0,0,.128.01.128.081s-.145.171-.2.116M113.4,66.34a.352.352,0,0,1,.218-.1s.033.079,0,.121a.337.337,0,0,1-.218.121c-.066,0-.047-.092,0-.138m-.906,23.068a2.157,2.157,0,0,1-.779.174.75.75,0,0,1-.109-.007,1.147,1.147,0,0,0-.875.143.6.6,0,0,1-.207.071,1.241,1.241,0,0,0-.478.164.815.815,0,0,1-.278.072c-.069.01-.154-.019-.214.009-.361.147-.758.18-1.107.359a.481.481,0,0,1-.344.083.921.921,0,0,0-.661.143.492.492,0,0,0-.093.055c-.216.178-.388.112-.641.055-.209-.045-.283-.214-.205-.473a.873.873,0,0,1,.174-.312,3.278,3.278,0,0,1,.88-.754c.3-.162.584-.344.87-.525.338-.212.687-.407,1.032-.609a.1.1,0,0,0,.029-.022q.71-.544,1.417-1.084a3.857,3.857,0,0,1,.475-.335.425.425,0,0,1,.647.245.778.778,0,0,1,.05.174.921.921,0,0,0,.2.423,2.066,2.066,0,0,1,.216.375c.119.254.233.508.34.765.2.456.117.644-.34.811m.523-8.542c-.038.086-.022.218-.081.293-.079.1-.05.221-.166.309a.461.461,0,0,0-.121.131c-.085.162-.157.361-.245.518a.556.556,0,0,1-.081.119c-.048.055-.167.012-.209-.043a.689.689,0,0,1-.085-.157c-.045-.1-.081-.2-.123-.306a5.81,5.81,0,0,0-.454-1.069A4.542,4.542,0,0,0,111,79.6a5.371,5.371,0,0,1-.345-1.226c-.041-.2-.062-.407-.095-.609a1.574,1.574,0,0,0-.036-.214,3.488,3.488,0,0,1-.136-1.333c.012-.254.019-.511.043-.765a7.525,7.525,0,0,1,.772-2.564c.19-.382.363-.768.559-1.146.107-.2.243-.39.371-.583s.262-.376.387-.571a8.3,8.3,0,0,1,1.01-1.24c.354-.368.708-.735,1.067-1.095a3.078,3.078,0,0,1,.392-.325c.313-.223.635-.444.953-.66a.973.973,0,0,1,1.1-.078,1.9,1.9,0,0,1,.3.207,3.378,3.378,0,0,1,1.11,1.877c.04.2.043.409.064.615.021.242.047.483.064.727a1.25,1.25,0,0,1-.14.7,1.019,1.019,0,0,0-.133.487,1.752,1.752,0,0,1-.066.319.562.562,0,0,1-.06.171c-.067.361.021.452-.04.678-.038.145-.166.15-.266.325a.981.981,0,0,0-.093.255,1.345,1.345,0,0,0-.054.318,1.185,1.185,0,0,1-.085.459c-.055.147-.09.3-.136.454-.007.269-.007.269-.152.4a1.083,1.083,0,0,0-.062.138,3.807,3.807,0,0,1-.033.382.859.859,0,0,1-.293.478,5.38,5.38,0,0,0-.884,1.152,2.216,2.216,0,0,1-.716.71,1.081,1.081,0,0,0-.546.773.294.294,0,0,1-.212.268.307.307,0,0,0-.252.345.474.474,0,0,1-.078.233c-.071.116-.152.223-.23.331a.722.722,0,0,1-.371.278,1.037,1.037,0,0,0-.654.592" transform="translate(74.779 46.76)"/>
            <path id="パス_1177" data-name="パス 1177" d="M141.774,65.594a.689.689,0,0,0-.894.076,3.39,3.39,0,0,0-.311.357c-.205.285-.407.575-.6.868-.135.2-.25.414-.376.621-.055.093-.121.185-.174.28-.228.4-.452.8-.677,1.2-.017.033-.04.06-.059.091a18.748,18.748,0,0,0-1.143,2.115,1.4,1.4,0,0,1-.266.428,1.841,1.841,0,0,0-.333.518,2.816,2.816,0,0,1-.385.7.677.677,0,0,0-.155.287,3.566,3.566,0,0,1-.539,1.07,1.532,1.532,0,0,0-.126.262,1.84,1.84,0,0,1-.1.233,4.826,4.826,0,0,0-.4.972,1.032,1.032,0,0,1-.224.409,1.6,1.6,0,0,0-.349.508.681.681,0,0,1-.121.18.2.2,0,0,1-.29.029.816.816,0,0,1-.162-.147c-.162-.2-.319-.4-.478-.6a.648.648,0,0,1-.159-.323.621.621,0,0,0-.218-.366c-.159-.152-.3-.312-.454-.475a.833.833,0,0,1-.2-.38,1.065,1.065,0,0,0-.18-.349,2.633,2.633,0,0,0-.3-.323,1.006,1.006,0,0,1-.287-.454,2.481,2.481,0,0,0-.169-.362c-.107-.219-.218-.433-.33-.649a2.75,2.75,0,0,0-.159-.288,3.837,3.837,0,0,1-.4-.73,3.1,3.1,0,0,1-.274-.67.394.394,0,0,0-.064-.129c-.219-.351-.439-.7-.654-1.051-.083-.135-.167-.269-.237-.409a4.713,4.713,0,0,0-.663-1.041.881.881,0,0,1-.178-.275,4.352,4.352,0,0,0-.659-1.043,1.294,1.294,0,0,0-.653-.447.517.517,0,0,0-.654.249.584.584,0,0,0-.066.525,2.251,2.251,0,0,0,.188.433,5.6,5.6,0,0,0,.532.775c.022.028.1.164.114.193a.152.152,0,0,1-.128.214c-.085.007-.257-.04-.338-.028a.777.777,0,0,0-.665.675A2.611,2.611,0,0,0,126.775,71a5.79,5.79,0,0,1,.78,1.467.137.137,0,0,0,.012.034,7.458,7.458,0,0,1,.364,1.1,4.18,4.18,0,0,0,.205.583c.081.2.185.4.262.6a1.734,1.734,0,0,1,.116.456.808.808,0,0,0,.167.433,1.359,1.359,0,0,1,.247.482c.114.347.224.7.347,1.038q.143.391.311.775c.15.343.307.687.463,1.029.069.157.136.312.214.459a3.63,3.63,0,0,1,.388.823,1.135,1.135,0,0,0,.135.255,3.184,3.184,0,0,1,.411,1.046,1.284,1.284,0,0,0,.243.525.446.446,0,0,0,.547.162c.06-.019.114-.048.171-.066a.208.208,0,0,1,.259.249,1.457,1.457,0,0,1-.117.266,3.62,3.62,0,0,0-.351,1.145,6.216,6.216,0,0,1-.192.735,2.87,2.87,0,0,0-.247.948.47.47,0,0,1-.069.2,4.326,4.326,0,0,0-.316,1.155,3.431,3.431,0,0,1-.188.96,2.343,2.343,0,0,0-.188.886,2.03,2.03,0,0,1-.11.64c-.18.449-.142.937-.3,1.386a.321.321,0,0,0,0,.109,1.086,1.086,0,0,1-.148.661.418.418,0,0,0-.062.316,1.209,1.209,0,0,1-.042.577,1.336,1.336,0,0,0-.04.288,1.621,1.621,0,0,1-.131.673.962.962,0,0,0-.04.212c-.029.254-.057.506-.081.761a1.933,1.933,0,0,0-.014.435,1.829,1.829,0,0,1-.054.754,1.512,1.512,0,0,0,.081,1.067c.2.428.551.388.842.2a.5.5,0,0,0,.148-.159,3.058,3.058,0,0,0,.266-.435,2.1,2.1,0,0,0,.254-.868,2.66,2.66,0,0,1,.152-.891,1.012,1.012,0,0,0,.059-.356.878.878,0,0,1,.079-.461.559.559,0,0,0,.029-.461.562.562,0,0,1,.045-.487.424.424,0,0,0,.019-.388.912.912,0,0,1-.029-.535,11.119,11.119,0,0,1,.192-1.259,1.537,1.537,0,0,0,0-.287,1.2,1.2,0,0,1,.1-.5c.083-.266.148-.535.216-.806q.122-.492.237-.989a.776.776,0,0,0,.036-.249,1.457,1.457,0,0,1,.109-.606,4.97,4.97,0,0,0,.226-.765,2.163,2.163,0,0,1,.171-.627,1.125,1.125,0,0,0,.067-.209c.085-.4.159-.808.257-1.21a2.8,2.8,0,0,1,.211-.578,4.071,4.071,0,0,0,.328-.925,1.69,1.69,0,0,1,.066-.243c.192-.447.376-.894.585-1.334a2.037,2.037,0,0,1,.311-.444.156.156,0,0,1,.243.06.233.233,0,0,1,.029.067,4.846,4.846,0,0,0,.414,1.067,1.1,1.1,0,0,0,.266.338.37.37,0,0,0,.615-.093.7.7,0,0,0,.036-.06.654.654,0,0,1,.376-.321.282.282,0,0,0,.193-.426c-.052-.124-.136-.237-.174-.361a.791.791,0,0,0-.216-.371.537.537,0,0,1-.176-.35,1.044,1.044,0,0,0-.231-.528,1,1,0,0,1-.212-.5,4.272,4.272,0,0,0-.29-1.05.478.478,0,0,1,.017-.42c.124-.264.228-.537.354-.8.117-.24.252-.471.373-.708a2.3,2.3,0,0,0,.2-.43,3.038,3.038,0,0,1,.34-.76c.054-.095.121-.185.167-.283.254-.523.508-1.048.751-1.576a1.737,1.737,0,0,1,.387-.568,1.016,1.016,0,0,0,.337-.589.476.476,0,0,1,.074-.205,5.76,5.76,0,0,0,.535-.991,10.906,10.906,0,0,0,1.022-1.928,1.833,1.833,0,0,1,.5-.711.86.86,0,0,0,.211-.292,2.793,2.793,0,0,1,.678-.939,1.993,1.993,0,0,0,.25-.262.807.807,0,0,0-.071-1.179m-12.188,8.221c-.1-.219-.207-.551-.3-.775a1.472,1.472,0,0,0-.174-.477,3.126,3.126,0,0,1-.264-.867c-.041-.143-.076-.276-.123-.414s-.185-.442-.036-.649c.052.021.117.029.128.059.183.606.644,1.354.766,1.966a5.011,5.011,0,0,0,.186,1c.01.043.052.117-.016.164a.136.136,0,0,1-.171-.01m.4.753s-.193.048-.205-.078c0,0,.057-.15.148-.105s.057.183.057.183m3.689,4.63c-.028.052-.05.107-.081.162a2.751,2.751,0,0,0-.337.839,2.243,2.243,0,0,1-.19.471.657.657,0,0,1-.085.119.209.209,0,0,1-.376-.05.923.923,0,0,1-.079-.242,1.774,1.774,0,0,1-.036-.252,2.155,2.155,0,0,0-.178-.739.821.821,0,0,1-.069-.281,2.3,2.3,0,0,0-.228-.8,1.474,1.474,0,0,1-.142-.6,1.2,1.2,0,0,0-.067-.354,6.257,6.257,0,0,1-.287-1.2c-.01-.086-.014-.169-.021-.257.007-.047-.036-.24-.029-.287a.112.112,0,0,1,.173-.062,2.067,2.067,0,0,1,.287.332,1.286,1.286,0,0,0,.33.464,2.308,2.308,0,0,1,.6.767,4.882,4.882,0,0,1,.523.958,2.86,2.86,0,0,0,.257.338c.19.231.154.4.033.673" transform="translate(91.779 47.554)"/>
            <path id="パス_1178" data-name="パス 1178" d="M157.033,72.919a1.439,1.439,0,0,1-.06-.54,1.413,1.413,0,0,0-.078-.917c-.014-.035-.009-.074-.021-.109-.047-.162-.091-.326-.152-.483-.071-.2-.162-.38-.24-.571a.737.737,0,0,0-.338-.413,2.858,2.858,0,0,0-.521-.257,1.016,1.016,0,0,1-.658-.632,2.914,2.914,0,0,0-.28-.464,5.961,5.961,0,0,0-1.089-1.067,2.429,2.429,0,0,0-1.328-.539c-.409-.055-.823-.064-1.231-.123a.92.92,0,0,0-.591.123,4.07,4.07,0,0,1-.525.252,5.762,5.762,0,0,0-1.347.637,3.592,3.592,0,0,1-.344.2,9.341,9.341,0,0,0-2.122,1.53,2.516,2.516,0,0,1-.288.218,13.763,13.763,0,0,0-1.421,1.082,11.922,11.922,0,0,1-.96.782,4.087,4.087,0,0,0-.8.787,3.9,3.9,0,0,1-.359.411c-.293.276-.582.554-.9.8a7.537,7.537,0,0,0-1.146,1.267,4.627,4.627,0,0,1-.39.475c-.086.086-.162.181-.242.273q-.515.59-1.031,1.183a.95.95,0,0,0-.167.233.428.428,0,0,1-.311.28.185.185,0,0,0-.162.209.725.725,0,0,1-.2.535c-.257.323-.392.725-.661,1.043a1.146,1.146,0,0,0-.117.264c-.073.169-.152.331-.219.5a8.738,8.738,0,0,1-.364.908.623.623,0,0,0-.024.143,2.855,2.855,0,0,1-.209.844.92.92,0,0,0-.047.249c-.028.167-.054.337-.078.5a1.763,1.763,0,0,0-.031.252c-.016.4-.026.8-.04,1.257a1.7,1.7,0,0,0,.064.844.7.7,0,0,1,.024.218,1.146,1.146,0,0,0,.207.647c.059.091.088.2.142.3a3.236,3.236,0,0,0,.254.44,2.355,2.355,0,0,1,.5.794.55.55,0,0,0,.059.1,4.982,4.982,0,0,0,1.9,1.657,1.743,1.743,0,0,0,.381.116,1.448,1.448,0,0,1,.28.074,2.139,2.139,0,0,0,.987.216,12.085,12.085,0,0,0,1.347-.019,11.175,11.175,0,0,0,1.271-.083.274.274,0,0,1,.3.155.816.816,0,0,1,.083.2,2.252,2.252,0,0,0,.371.706c.133.174.271.345.406.52a1.545,1.545,0,0,0,.575.54,1.077,1.077,0,0,1,.221.192,1.819,1.819,0,0,0,.718.418,2.506,2.506,0,0,0,1.1.157.523.523,0,0,1,.147,0,1.1,1.1,0,0,0,.632-.128c.142-.074.28-.148.413-.235a3.6,3.6,0,0,1,.658-.392.671.671,0,0,0,.233-.166c.359-.4.713-.8,1.067-1.2.136-.154.262-.318.409-.464a2.918,2.918,0,0,0,.411-.506c.169-.266.354-.521.539-.779.262-.364.537-.72.794-1.086.167-.238.3-.5.475-.735a6.332,6.332,0,0,0,.751-1.452c.2-.52.385-1.048.615-1.559a8.8,8.8,0,0,0,.485-1.293c.028-.093.078-.18.109-.271.052-.174.1-.349.148-.523l.083-.316a5.158,5.158,0,0,0,.207-1.034,2.994,2.994,0,0,1,.083-.426,4.716,4.716,0,0,0,.159-.637,8.353,8.353,0,0,0,.257-1.126.167.167,0,0,1,.024-.067c.1-.207.2-.413.293-.627a3.748,3.748,0,0,0,.211-.578,3.449,3.449,0,0,1,.24-.687.933.933,0,0,0,.107-.307,3.987,3.987,0,0,1,.186-.739,1.364,1.364,0,0,0,.06-.285,4.411,4.411,0,0,0,.045-.979.727.727,0,0,1,.038-.288,1.041,1.041,0,0,0,.016-.432m-13.407,3.047a1.463,1.463,0,0,0-.293.42c-.086.226-.193.445-.269.675a2.647,2.647,0,0,0-.11.532.85.85,0,0,1-.164.473,1.121,1.121,0,0,0-.221.753c0,.205,0,.413,0,.62h0c0,.147,0,.292,0,.439a1.517,1.517,0,0,0,.2.91.641.641,0,0,1,.081.311,5.725,5.725,0,0,1-.045,1.309,2.183,2.183,0,0,1-.121.376c-.047.112-.117.214-.162.326a.666.666,0,0,0-.009.533.721.721,0,0,1,.031.5,1.57,1.57,0,0,0-.029.325,4.714,4.714,0,0,1-.026.544,3.76,3.76,0,0,0,.04,1.051,6.972,6.972,0,0,0,.178.927,3.58,3.58,0,0,1,.088.575c.017.2-.041.273-.221.311a6.811,6.811,0,0,1-1.376.1c-.509,0-.982-.162-1.478-.207a.944.944,0,0,1-.613-.363c-.311-.357-.629-.71-.92-1.081a4.9,4.9,0,0,1-.623-1.11,1.058,1.058,0,0,1-.1-.532,1.08,1.08,0,0,0-.1-.566.77.77,0,0,1-.031-.6.252.252,0,0,0,.017-.069c.021-.584.2-1.15.2-1.735a.9.9,0,0,1,.06-.318c.2-.523.39-1.05.6-1.564a2.711,2.711,0,0,1,.311-.533,2.348,2.348,0,0,0,.371-.665,1.233,1.233,0,0,1,.28-.421c.328-.357.658-.715.969-1.089.178-.212.3-.468.478-.684a12.107,12.107,0,0,1,1.92-1.991,4.872,4.872,0,0,0,.571-.561c.274-.292.544-.582.842-.855s.568-.521.87-.765c.266-.209.487-.475.742-.7a2.75,2.75,0,0,1,.471-.337,3.438,3.438,0,0,0,.884-.694,3.368,3.368,0,0,1,.92-.706,8.645,8.645,0,0,0,.894-.558,2.388,2.388,0,0,1,.57-.316,4.3,4.3,0,0,1,.782-.29,1.118,1.118,0,0,0,.319-.169,3.9,3.9,0,0,1,.378-.212.9.9,0,0,1,.675-.055,2.034,2.034,0,0,0,.829.085.744.744,0,0,1,.513.142c.148.107.3.209.445.318a.594.594,0,0,1,.128.126.159.159,0,0,1-.078.262.778.778,0,0,1-.252.014,1.989,1.989,0,0,0-.616.031,1.154,1.154,0,0,1-.218.028,2.128,2.128,0,0,0-.766.188c-.515.2-.994.454-1.5.661a5,5,0,0,0-1.067.627c-.347.264-.691.535-1.036.806-.076.059-.136.138-.209.2a2.258,2.258,0,0,1-.318.245,2.579,2.579,0,0,0-.518.4,12.6,12.6,0,0,1-1.119.932.517.517,0,0,0-.112.088,5.075,5.075,0,0,1-.6.632,1.371,1.371,0,0,0-.235.364,2.687,2.687,0,0,1-.618.8,1.256,1.256,0,0,0-.357.5,1.348,1.348,0,0,1-.135.3m.489,2.572c-.192,0-.09-.3-.09-.342a2.035,2.035,0,0,1,.079-.468,3.207,3.207,0,0,1,.344-.539,6.317,6.317,0,0,0,.252-.623c.055-.088.261-.3.309-.383a2.661,2.661,0,0,1,.206-.3c.057-.071.228-.242.287-.3s.043-.205.069-.242a1.511,1.511,0,0,1,.193-.228.111.111,0,0,1,.126,0,.12.12,0,0,1,0,.159c-.067.093-.173.242-.287.378s-.067.275-.161.354a3.282,3.282,0,0,0-.274.368,1.457,1.457,0,0,1-.224.442,2.905,2.905,0,0,0-.3.414.715.715,0,0,0-.114.3,2.969,2.969,0,0,1-.2.319.378.378,0,0,0-.093.25c-.009.1.071.435-.126.435m9.43,3.2a7.111,7.111,0,0,0-.435,1.236,1.7,1.7,0,0,1-.1.276c-.264.584-.544,1.164-.789,1.756a7.241,7.241,0,0,1-.54,1.072,3.964,3.964,0,0,1-.321.439,7.684,7.684,0,0,0-.708.927,2.048,2.048,0,0,1-.167.238c-.637.782-1.238,1.594-1.942,2.313a1.829,1.829,0,0,1-.9.594,1.09,1.09,0,0,1-.5.033,1,1,0,0,0-.249.031.637.637,0,0,1-.527-.071,1.818,1.818,0,0,1-.849-.768,2.3,2.3,0,0,0-.228-.331c-.043-.057-.09-.112-.13-.174a.518.518,0,0,1,.173-.832c.161-.111.319-.226.482-.33a1.822,1.822,0,0,1,.354-.185,1.6,1.6,0,0,0,.454-.292c.278-.238.563-.466.846-.694a.72.72,0,0,1,.209-.142,5.578,5.578,0,0,0,.81-.489.843.843,0,0,0,.242-.214,3.56,3.56,0,0,1,.72-.666c.271-.2.54-.414.806-.627a.572.572,0,0,0,.105-.1c.344-.426.73-.813,1.107-1.208a1.042,1.042,0,0,1,.178-.181,1.891,1.891,0,0,0,.563-.651,5.747,5.747,0,0,1,.6-.729c.162-.18.344-.342.516-.511a.411.411,0,0,1,.088-.067.125.125,0,0,1,.185.1.685.685,0,0,1-.055.245m1.233-6.174c-.057.4-.155.784-.192,1.184a4,4,0,0,1-.216.842,1.573,1.573,0,0,1-.373.622,1.689,1.689,0,0,0-.416.635,1.58,1.58,0,0,1-.178.314c-.143.228-.285.454-.433.673a3,3,0,0,1-.233.281c-.245.285-.494.566-.741.849-.154.173-.3.349-.463.514-.459.487-.827,1.051-1.328,1.5a.584.584,0,0,0-.142.164,2.259,2.259,0,0,1-.728.7c-.164.123-.319.261-.477.392-.047.04-.085.09-.133.124-.476.338-.882.76-1.343,1.119-.183.138-.385.254-.58.375-.413.254-.832.5-1.245.756-.083.052-.155.119-.235.173a.986.986,0,0,1-.25.145,1.978,1.978,0,0,0-.59.275c-.136.1-.269.047-.352-.123a.448.448,0,0,1-.038-.212,2.705,2.705,0,0,0-.14-.785,3.25,3.25,0,0,1-.093-1.581c.021-.095.021-.193.034-.29a5.341,5.341,0,0,1,.11-.606,6.5,6.5,0,0,0,.216-1.219,3.107,3.107,0,0,1,.112-.642,2.009,2.009,0,0,0,.067-.285,2.664,2.664,0,0,1,.328-.917,3.354,3.354,0,0,0,.228-.653,2.126,2.126,0,0,1,.1-.309c.2-.426.4-.858.623-1.274a12.328,12.328,0,0,1,.756-1.284c.337-.475.656-.963.977-1.45a3.061,3.061,0,0,1,.53-.644,1.972,1.972,0,0,0,.271-.294,5.791,5.791,0,0,1,1.24-1.12.8.8,0,0,1,.337-.117.48.48,0,0,0,.373-.307c.211-.489.2-.575-.18-.963-.026-.024-.052-.05-.076-.078-.2-.221-.186-.368.073-.527a3.84,3.84,0,0,1,.552-.276c.53-.212,1.063-.413,1.6-.622a1.423,1.423,0,0,1,.5-.1c.278-.01.556-.036.834-.057v.007c.147,0,.293,0,.438,0a.485.485,0,0,1,.482.375c.1.313.188.628.269.944a2.994,2.994,0,0,1,.052.433c.026.266.05.53.076.8.041.413.079.822.121,1.231a5.51,5.51,0,0,1-.114,1.3" transform="translate(98.734 48.523)"/>
            <path id="パス_1179" data-name="パス 1179" d="M0,0H21.33V38.368H60.668V0H82V96.957H60.668V58.037H21.33v38.92H0Z" transform="translate(0 0.001)"/>
            <path id="パス_1180" data-name="パス 1180" d="M335.488,2.987h-6.029V0H256.287V2.987H219.615A48.08,48.08,0,0,0,202.041,0H157.717V2.987H137.228V0H64.058V2.987H58.041v90.98h6.017v3.04h73.865v-3.04h19.8v2.988h21.333V93.967h35.535l2,2.988h24.931l-2.042-2.988h16.812v3.04H330.15v-3.04h5.338Z" transform="translate(42.162 0.001)"/>
          </g>
        </g>
      </g>
    </g>
  </g>
</svg>
