<svg xmlns="http://www.w3.org/2000/svg" xmlns:xlink="http://www.w3.org/1999/xlink" width="633" height="389" viewBox="0 0 633 389">
  <defs>
    <clipPath id="clip-path">
      <rect id="長方形_673" data-name="長方形 673" width="431.6" height="144.702"/>
    </clipPath>
    <clipPath id="clip-MT">
      <rect width="633" height="389"/>
    </clipPath>
  </defs>
  <g id="MT" clip-path="url(#clip-MT)">
    <rect width="633" height="389" fill="#fff"/>
    <rect id="長方形_263" data-name="長方形 263" width="632.995" height="389" fill="none"/>
    <g id="グループ_1536" data-name="グループ 1536" transform="translate(101 129.477)">
      <g id="グループ_1535" data-name="グループ 1535" transform="translate(0 0)">
        <g id="グループ_1534" data-name="グループ 1534" clip-path="url(#clip-path)">
          <path id="パス_1118" data-name="パス 1118" d="M17.628,5.809,17.4,10.879a13.251,13.251,0,0,1,4.549-4.494,11.482,11.482,0,0,1,5.9-1.509c4.279,0,7.66,1.98,10.146,6A16.188,16.188,0,0,1,42.6,6.385a11.588,11.588,0,0,1,5.753-1.509,12.032,12.032,0,0,1,6.863,1.98,9.866,9.866,0,0,1,3.39,4.906,40.552,40.552,0,0,1,.73,9.5v37.8H43.692V24.408c0-4.624-.152-7.42-.462-8.529A2.029,2.029,0,0,0,41.1,14.243a2.077,2.077,0,0,0-2.226,1.637c-.343,1.03-.528,3.9-.528,8.529V59.058H22.7V25.176a63.9,63.9,0,0,0-.4-9.34,2.058,2.058,0,0,0-2.145-1.593,2.616,2.616,0,0,0-1.81.862,2.841,2.841,0,0,0-.834,1.934c-.11.887-.11,2.569-.11,5.117v36.9H1.715V5.809Z" transform="translate(2.058 5.851)"/>
          <path id="パス_1119" data-name="パス 1119" d="M51.127,45.055a12.662,12.662,0,0,1-.486,4.5c-.233.7-.849,1.093-1.905,1.093a1.923,1.923,0,0,1-1.914-1.23,18.532,18.532,0,0,1-.442-4.9V20.463a18.082,18.082,0,0,1,.442-5.057A2.017,2.017,0,0,1,48.8,14.244a1.713,1.713,0,0,1,1.846,1.162c.35.642.486,2.33.486,5.057ZM66.52,16.14A13.672,13.672,0,0,0,63.636,10.8a14.454,14.454,0,0,0-6.047-4.314,26.891,26.891,0,0,0-9.3-1.612A20.593,20.593,0,0,0,37.583,7.389a15.018,15.018,0,0,0-5.891,6.729c-1.014,2.792-1.509,6.553-1.509,11.6v13.6a46.347,46.347,0,0,0,.869,10.095,14.828,14.828,0,0,0,2.985,5.825,11.98,11.98,0,0,0,5.792,3.509,29.923,29.923,0,0,0,9.158,1.2,23.782,23.782,0,0,0,8.45-1.375,14.884,14.884,0,0,0,6.14-4.2,16.756,16.756,0,0,0,3.045-6.329,57.118,57.118,0,0,0,.7-10.517V24.489a30.075,30.075,0,0,0-.8-8.348" transform="translate(36.214 5.85)"/>
          <path id="パス_1120" data-name="パス 1120" d="M65.937,5.809,65.748,10.7A12.413,12.413,0,0,1,70,6.3a12.228,12.228,0,0,1,5.869-1.428,11.517,11.517,0,0,1,6.806,1.98,8.4,8.4,0,0,1,3.306,4.906,41.566,41.566,0,0,1,.865,9.987V59.058H70.559V22.222c0-3.685-.026-5.937-.321-6.817-.163-.746-.882-1.162-1.923-1.162-1.181,0-1.96.466-2.158,1.454-.343.887-.409,3.267-.409,7.391V59.058H49.491V5.809Z" transform="translate(59.38 5.851)"/>
          <path id="パス_1121" data-name="パス 1121" d="M103.977,11.659,97.356,32.911l8.5,32H90.382l-5.15-23.215-.046,23.215H68.978V0H85.186l.046,27.21,5.15-15.551Z" transform="translate(82.761 0)"/>
          <path id="パス_1122" data-name="パス 1122" d="M123.784,33.323H102.71V44.841a16.146,16.146,0,0,0,.563,4.716,2.072,2.072,0,0,0,2.011,1.093,2.379,2.379,0,0,0,2.488-1.507c.473-.88.581-2.666.581-5.295V36.755h15.432v4.008a45.144,45.144,0,0,1-.513,7.5,15.165,15.165,0,0,1-3.04,5.656,13.352,13.352,0,0,1-5.748,4.569,22.285,22.285,0,0,1-8.85,1.465,24.643,24.643,0,0,1-9.043-1.465,14.81,14.81,0,0,1-6.155-4.019,15.681,15.681,0,0,1-3.082-5.794,37.514,37.514,0,0,1-.759-9.006V24.185c0-4.576.557-8.3,1.839-11.028a13.506,13.506,0,0,1,6.228-6.126,21.612,21.612,0,0,1,9.9-2.156,21.911,21.911,0,0,1,11.27,2.684,13.4,13.4,0,0,1,6.146,6.751c1.293,2.842,1.806,6.857,1.806,12.051Zm-16.2-8.619V20.8a28.456,28.456,0,0,0-.381-5.4,1.96,1.96,0,0,0-1.923-1.162c-1.142,0-1.874.416-2.114,1.049-.3.706-.46,2.556-.46,5.511v3.9Z" transform="translate(103.897 5.85)"/>
          <path id="パス_1123" data-name="パス 1123" d="M141.718,5.3,137.01,43.773a105.836,105.836,0,0,1-1.857,12.491,12.514,12.514,0,0,1-2.431,5.513,10.473,10.473,0,0,1-4.78,3.174,35.128,35.128,0,0,1-9.813,1.027h-9.866V57.385a18.981,18.981,0,0,0,4.947-.354,1.609,1.609,0,0,0,1.087-1.716c0-.4-.374-2.248-1.043-5.53L104.334,5.3h14.789l5.273,36,2.545-36Z" transform="translate(125.182 6.359)"/>
          <path id="パス_1124" data-name="パス 1124" d="M147.658,2.088v8.421h4.481v8.423h-4.481V47.318c0,3.612.249,5.447.535,5.922.431.4,1.962.539,4.644.539V62.4h-6.569a49.636,49.636,0,0,1-7.928-.48,8.8,8.8,0,0,1-4.147-2.112,6.5,6.5,0,0,1-2.255-3.878,62.636,62.636,0,0,1-.513-9.978V18.932h-3.469V10.509h3.469V2.088Z" transform="translate(153.524 2.506)"/>
          <path id="パス_1125" data-name="パス 1125" d="M157.245,8.48H140.553V0h16.692Zm0,56.428H140.553V11.659h16.692Z" transform="translate(168.638 0)"/>
          <path id="パス_1126" data-name="パス 1126" d="M166.671,5.809l-.235,5.071a13.119,13.119,0,0,1,4.571-4.494,11.348,11.348,0,0,1,5.847-1.509c4.367,0,7.728,1.98,10.194,6a14.941,14.941,0,0,1,4.624-4.494A11.432,11.432,0,0,1,197.4,4.876a11.63,11.63,0,0,1,6.813,1.98,9.083,9.083,0,0,1,3.377,4.906,38.568,38.568,0,0,1,.807,9.5v37.8H192.757V24.408a49.973,49.973,0,0,0-.438-8.529,2.1,2.1,0,0,0-2.176-1.637,2.021,2.021,0,0,0-2.189,1.637c-.359,1.03-.568,3.9-.568,8.529V59.058H171.714V25.176a68.11,68.11,0,0,0-.356-9.34,2.079,2.079,0,0,0-2.154-1.593,2.64,2.64,0,0,0-1.821.862,3.007,3.007,0,0,0-.821,1.934,49.535,49.535,0,0,0-.125,5.117v36.9H150.824V5.809Z" transform="translate(180.961 5.851)"/>
          <path id="パス_1127" data-name="パス 1127" d="M195.487,24.7V20.8c0-2.954.1-4.807.4-5.513a2.283,2.283,0,0,1,2.2-1.049,1.866,1.866,0,0,1,1.819,1.164,23.678,23.678,0,0,1,.359,5.4v3.9Zm21.046,1.656c0-5.192-.66-9.208-1.784-12.048A13.922,13.922,0,0,0,208.5,7.56a24.415,24.415,0,0,0-21.156-.53,13,13,0,0,0-6.155,6.129c-1.353,2.721-1.942,6.45-1.942,11.025V39.671a36.049,36.049,0,0,0,.906,9,14.066,14.066,0,0,0,3.009,5.8,14.563,14.563,0,0,0,6.1,4.017,25.244,25.244,0,0,0,9.094,1.465,22,22,0,0,0,8.8-1.465,13.758,13.758,0,0,0,5.781-4.567,15.1,15.1,0,0,0,2.932-5.656,32.668,32.668,0,0,0,.66-7.5V36.756h-15.37V43.85a15.266,15.266,0,0,1-.649,5.293,2.4,2.4,0,0,1-2.433,1.509,2.107,2.107,0,0,1-2.057-1.093,13.181,13.181,0,0,1-.537-4.719V33.324h21.046Z" transform="translate(215.067 5.851)"/>
          <path id="パス_1128" data-name="パス 1128" d="M32.472,36.261A32.467,32.467,0,1,0,64.943,68.735,32.507,32.507,0,0,0,32.472,36.261M62.589,59.025l-9.213,16.5L27.639,37.442a30.954,30.954,0,0,1,4.833-.359A31.684,31.684,0,0,1,62.589,59.025M46.746,87.38c-.689-.713-2.248-2.321-3.245-3.361a10.9,10.9,0,0,0,2.072-6.544h-.81a10.088,10.088,0,0,1-1.843,5.951c-3.5-3.6-6.584-6.773-8.612-8.87.24-.048.431-.1.682-.136,3.509-.464,5.583-2.587,5.583-5.684a5.4,5.4,0,1,0-10.806,0,5.8,5.8,0,0,0,1.907,4.25s.376.407,1.036,1.087c-3.463.99-5.209,3.084-5.229,6.415A13.582,13.582,0,0,0,17.306,68.735,13.516,13.516,0,0,0,15.3,42.161,31.339,31.339,0,0,1,26.772,37.6L52.925,76.315Zm-4.325-3.3A8.723,8.723,0,0,1,35.8,87.057c-3.7,0-7.51-2.42-7.51-6.487,0-3.128,1.612-5.013,5.057-5.847,2.189,2.25,6.061,6.263,9.072,9.354M32.26,72.439a4.986,4.986,0,0,1-1.674-3.7,4.587,4.587,0,1,1,9.173,0c0,1.274-.449,4.3-4.857,4.881-.48.059-.865.156-1.263.233-.233-.233-1.379-1.41-1.379-1.41M14.433,42.915a12.712,12.712,0,0,1,0,25.41Zm0,26.235a12.71,12.71,0,0,1,0,25.408ZM.807,68.735A31.641,31.641,0,0,1,13.615,43.314V94.158A31.623,31.623,0,0,1,.807,68.735M15.3,95.306A13.536,13.536,0,0,0,27.557,81.854c0-.121-.022-.238-.022-.339.528,3.988,4.457,6.351,8.267,6.351a9.452,9.452,0,0,0,7.18-3.218c1.619,1.683,2.893,3,3.353,3.471L40,99.484a32.145,32.145,0,0,1-7.532.906A31.406,31.406,0,0,1,15.3,95.306m25.784,3.887L62.917,60.109A31.624,31.624,0,0,1,41.084,99.193" transform="translate(0 43.507)"/>
          <path id="パス_1129" data-name="パス 1129" d="M84.04,41.185H69.75v1.784H76V59.062h1.8V42.969H84.04Z" transform="translate(83.687 49.414)"/>
          <path id="パス_1130" data-name="パス 1130" d="M142.816,41.185h-14.31v1.784h6.256V59.062h1.789V42.969h6.265Z" transform="translate(154.184 49.414)"/>
          <path id="パス_1131" data-name="パス 1131" d="M74.2,41.185v9.844a6.261,6.261,0,0,1-12.521,0V41.185H59.891v9.844a8.048,8.048,0,0,0,16.1,0V41.185Z" transform="translate(71.858 49.415)"/>
          <path id="パス_1132" data-name="パス 1132" d="M132.963,41.185v9.844a6.256,6.256,0,0,1-12.513,0V41.185h-1.81v9.844a8.062,8.062,0,0,0,16.125,0V41.185Z" transform="translate(142.346 49.415)"/>
          <path id="パス_1133" data-name="パス 1133" d="M150.062,41.185v8.049h-10.7V41.185h-1.821V59.062h1.821V51.029h10.7v8.034h1.8V41.185Z" transform="translate(165.03 49.414)"/>
          <path id="パス_1134" data-name="パス 1134" d="M107.96,50.128a8.942,8.942,0,1,0,8.951-8.944,8.94,8.94,0,0,0-8.951,8.944m1.786,0a7.162,7.162,0,1,1,7.165,7.154,7.168,7.168,0,0,1-7.165-7.154" transform="translate(129.532 49.414)"/>
          <path id="パス_1135" data-name="パス 1135" d="M44.11,50.128a4.913,4.913,0,0,0-2.829-8.944H35.929V59.062h5.352a4.906,4.906,0,0,0,2.829-8.933m-6.386-7.16h3.557a3.133,3.133,0,1,1,0,6.265H37.724Zm3.557,14.314H37.724V51.019h3.625a3.132,3.132,0,0,1-.068,6.263" transform="translate(43.108 49.414)"/>
          <path id="パス_1136" data-name="パス 1136" d="M53.425,42.969V41.185H43.143V59.063H53.425v-1.78H44.934V51.029h8.491v-1.8H44.934V42.969Z" transform="translate(51.764 49.414)"/>
          <path id="パス_1137" data-name="パス 1137" d="M52.3,59.063l2.244-4.47h9.42l2.228,4.47h2.017L59.24,41.185,50.311,59.063ZM59.24,45.175l3.828,7.638H55.437Z" transform="translate(60.364 49.415)"/>
          <path id="パス_1138" data-name="パス 1138" d="M93.412,41.185l-6.307,8.749-6.313-8.749H78.577L86.2,51.757v7.306H88V51.757l7.622-10.572Z" transform="translate(94.278 49.414)"/>
          <path id="パス_1139" data-name="パス 1139" d="M102.746,59.062H105.2l-3.165-3.368a8.468,8.468,0,0,0,1.351-4.675h-1.8a6.877,6.877,0,0,1-.807,3.315Q97.184,50.467,95.9,49.1a5.958,5.958,0,0,0,2.268-1.2,3.486,3.486,0,0,0,1.194-2.695A4.035,4.035,0,1,0,92.5,47.988s.235.268.253.3c-1.947.871-3.694,2.325-3.694,4.952a5.442,5.442,0,0,0,2.127,4.294,7.56,7.56,0,0,0,4.582,1.527,7.4,7.4,0,0,0,5.123-1.989c.587.638,1.857,1.989,1.857,1.989m-7.42-16.094a2.253,2.253,0,0,1,2.242,2.237c0,.7-.266,1.667-2.473,2.27-.191.055-.37.09-.548.161a6.264,6.264,0,0,1-.473-.532l-.194-.26c-.594-.708-.794-1.062-.794-1.639a2.24,2.24,0,0,1,2.239-2.237m.44,14.314a5.538,5.538,0,0,1-3.458-1.164,3.631,3.631,0,0,1-1.472-2.877,2.927,2.927,0,0,1,1.054-2.332A7.074,7.074,0,0,1,94.007,49.7c.453.495,2.906,3.128,5.665,6.071a5.673,5.673,0,0,1-3.9,1.514" transform="translate(106.852 49.414)"/>
          <path id="パス_1140" data-name="パス 1140" d="M113.948,41.185l-6.3,8.749-6.311-8.749H99.125l7.631,10.572v7.306h1.777V51.757l7.638-10.572Z" transform="translate(118.932 49.414)"/>
          <path id="パス_1141" data-name="パス 1141" d="M45.045,55.69H46.2v6.239a5.133,5.133,0,0,1-10.267,0V55.69h1.15v6.239a3.983,3.983,0,1,0,7.966,0Z" transform="translate(43.108 66.818)"/>
          <path id="パス_1142" data-name="パス 1142" d="M51.09,55.663h1.142V67.055l-9.109-8.722v8.722h-1.14V55.663l9.107,8.718Z" transform="translate(50.372 66.785)"/>
          <rect id="長方形_672" data-name="長方形 672" width="1.151" height="11.393" transform="translate(105.95 122.47)"/>
          <path id="パス_1143" data-name="パス 1143" d="M59.333,55.663v1.15H55.355V67.055H54.225V56.813h-3.99v-1.15Z" transform="translate(60.272 66.785)"/>
          <path id="パス_1144" data-name="パス 1144" d="M62.324,56.809H56.913v4h5.412V61.95H56.913v3.968h5.412v1.148H55.8V55.69h6.52Z" transform="translate(66.955 66.818)"/>
          <path id="パス_1145" data-name="パス 1145" d="M64.113,55.673a5.7,5.7,0,0,1,0,11.393H60.107V55.673Zm0,10.249a4.551,4.551,0,1,0,0-9.1H61.264v9.1Z" transform="translate(72.117 66.798)"/>
          <path id="パス_1146" data-name="パス 1146" d="M69.936,67.064h-1.26l5.7-11.391,5.7,11.391H78.782l-1.414-2.858H71.373Zm4.439-8.848L71.945,63.08H76.8Z" transform="translate(82.399 66.798)"/>
          <path id="パス_1147" data-name="パス 1147" d="M76.25,61.928v5.137H75.124V55.672h6.395a3.128,3.128,0,0,1,.07,6.256L84.8,67.065H83.472L80.25,61.928Zm0-5.11V60.8h5.269a1.992,1.992,0,1,0,0-3.984Z" transform="translate(90.135 66.797)"/>
          <path id="パス_1148" data-name="パス 1148" d="M81.962,61.928v5.137H80.838V55.672h6.386a3.144,3.144,0,0,1,3.128,3.137,3.111,3.111,0,0,1-3.038,3.119l3.194,5.137H89.151l-3.172-5.137Zm0-5.11V60.8h5.262a1.992,1.992,0,0,0,0-3.984Z" transform="translate(96.991 66.797)"/>
          <path id="パス_1149" data-name="パス 1149" d="M86.521,61.382a5.688,5.688,0,1,1,5.691,5.682,5.7,5.7,0,0,1-5.691-5.682m1.137,0a4.558,4.558,0,1,0,4.554-4.562,4.547,4.547,0,0,0-4.554,4.562" transform="translate(103.81 66.798)"/>
          <path id="パス_1150" data-name="パス 1150" d="M106.925,55.69h1.234l-4.191,11.375-3.381-8.326-3.4,8.326L93.007,55.69h1.23l3.018,8.192,3.333-8.192,3.331,8.192Z" transform="translate(111.592 66.818)"/>
          <path id="パス_1151" data-name="パス 1151" d="M103.478,56.329a6.483,6.483,0,0,1,2.8-.656,5.439,5.439,0,0,1,2.987.9,3.091,3.091,0,0,1,1.566,2.532H109.68a2.024,2.024,0,0,0-1.027-1.582,4.558,4.558,0,0,0-2.371-.7,5.122,5.122,0,0,0-2.261.519,1.877,1.877,0,0,0-1.168,1.76,1.207,1.207,0,0,0,.928,1.206,12.021,12.021,0,0,0,2.723.539,11.115,11.115,0,0,1,3.152.638,2.5,2.5,0,0,1,1.747,2.453,2.766,2.766,0,0,1-1.81,2.446,7.76,7.76,0,0,1-3.311.689,6.877,6.877,0,0,1-3.379-.836,3.275,3.275,0,0,1-1.74-2.86h1.124a2.159,2.159,0,0,0,1.192,1.863,5.62,5.62,0,0,0,2.8.686,6.458,6.458,0,0,0,2.809-.561c.788-.376,1.144-.867,1.144-1.428a1.375,1.375,0,0,0-1.016-1.412,11.264,11.264,0,0,0-2.871-.548,12.924,12.924,0,0,1-2.976-.592,2.354,2.354,0,0,1-1.65-2.283,3.027,3.027,0,0,1,1.758-2.767" transform="translate(121.376 66.798)"/>
        </g>
      </g>
    </g>
  </g>
</svg>
