<svg xmlns="http://www.w3.org/2000/svg" xmlns:xlink="http://www.w3.org/1999/xlink" width="633" height="389" viewBox="0 0 633 389">
  <defs>
    <clipPath id="clip-path">
      <rect id="長方形_692" data-name="長方形 692" width="431" height="157.684" fill="none"/>
    </clipPath>
    <clipPath id="clip-UA">
      <rect width="633" height="389"/>
    </clipPath>
  </defs>
  <g id="UA" clip-path="url(#clip-UA)">
    <rect width="633" height="389" fill="#fff"/>
    <rect id="長方形_158" data-name="長方形 158" width="632.995" height="389" transform="translate(0.005)" fill="none"/>
    <g id="グループ_1574" data-name="グループ 1574" transform="translate(135 96.354)">
      <g id="グループ_1573" data-name="グループ 1573" transform="translate(-34 3)" clip-path="url(#clip-path)">
        <path id="パス_1238" data-name="パス 1238" d="M111.31.01V33.162a16.855,16.855,0,0,1-6.883,1.466,17.147,17.147,0,0,1-5.142-.793,23.754,23.754,0,0,0,6.3-11.118,21.484,21.484,0,0,0,.559-4.933c0-.654-.022-1.268-.054-1.873-.472-8.5-4.195-12.473-7.67-14.317C95.193-.117,91.78,0,89.117,0L70.841.01v64.3C70.841,80.981,83.4,88.54,94,88.54s23.16-7.559,23.16-24.233V.01Zm-17.586,29a5.66,5.66,0,1,1,5.669-5.664,5.655,5.655,0,0,1-5.669,5.664M76.681,5.845H89.117c2.6,0,6.109.019,8.235,2.142A10.382,10.382,0,0,1,99.9,13.35a23.594,23.594,0,0,0-5.878-.739,24.142,24.142,0,0,0-6.155.812,23.684,23.684,0,0,0-6.3,2.729,23.35,23.35,0,0,0-4.885,4.035ZM111.31,63.922C111.31,77.011,102.149,82.7,94,82.7S76.681,77.011,76.681,63.922V34.153c0-6.546,3.011-8.821,5.487-11.173a22.844,22.844,0,0,0,6.858,11.537,22.455,22.455,0,0,0,5.229,3.57,22.755,22.755,0,0,0,10.171,2.389A22.973,22.973,0,0,0,111.31,39.4Z" transform="translate(121.502 0.001)" fill="#c77555"/>
        <rect id="長方形_691" data-name="長方形 691" width="5.221" height="29.074" transform="translate(78.589 128.048)" fill="#c77555"/>
        <path id="パス_1239" data-name="パス 1239" d="M18.859,47.161V64.655c0,5.6-4.046,7.363-6.82,7.363s-6.818-1.765-6.818-7.363V47.161H0V65.048C0,72.2,5.221,76.794,12.039,76.794s12.042-4.6,12.042-11.746V47.161Z" transform="translate(0 80.888)" fill="#c77555"/>
        <path id="パス_1240" data-name="パス 1240" d="M98.435,63.04h1.632c3.951,0,5.789,1.882,7.727,6.391a74.1,74.1,0,0,0,3.334,6.8h6.332c-6.106-8.452-5.536-12.327-9.641-14.472a7.143,7.143,0,0,0,5.324-6.945c0-4.572-3.209-7.657-9.451-7.657H93.214V76.236h5.221Zm0-11.463H103.1c3.508,0,4.732,1.5,4.732,3.4s-1.225,3.53-4.73,3.53l-4.665,0Z" transform="translate(159.874 80.889)" fill="#c77555"/>
        <path id="パス_1241" data-name="パス 1241" d="M111.387,63.04h1.632c3.951,0,5.789,1.882,7.727,6.391a74.091,74.091,0,0,0,3.334,6.8h6.332c-6.106-8.452-5.536-12.327-9.641-14.472a7.143,7.143,0,0,0,5.324-6.945c0-4.572-3.209-7.657-9.451-7.657H106.166V76.236h5.221Zm0-11.463h4.662c3.508,0,4.732,1.5,4.732,3.4s-1.225,3.53-4.73,3.53l-4.665,0Z" transform="translate(182.089 80.889)" fill="#c77555"/>
        <path id="パス_1242" data-name="パス 1242" d="M162.586,68.824l6.953-21.661h5.547L165.2,76.236H159.95l-6.427-21.661-6.351,21.661-5.246,0-9.965-29.071h5.623l7.035,21.661,6.171-21.661h5.523Z" transform="translate(226.333 80.89)" fill="#c77555"/>
        <path id="パス_1243" data-name="パス 1243" d="M34.879,47.161v4.594h8.447v24.48h5.221V51.755h8.447V47.161Z" transform="translate(59.822 80.888)" fill="#c77555"/>
        <path id="パス_1244" data-name="パス 1244" d="M68.343,47.162H59.38V76.236h9.006c11.738,0,16.872-6.668,16.872-14.537S80.124,47.162,68.343,47.162M64.6,51.7h4.282c7.578.065,11.091,4.32,11.091,9.994S76.461,71.767,68.883,71.69H64.6Z" transform="translate(101.845 80.889)" fill="#c77555"/>
        <path id="パス_1245" data-name="パス 1245" d="M94.864,47.161H89.811L78.337,76.235H83.96l3.76-10.073.035-.1H97.1l.035.1,3.828,10.073H106.7Zm-2.522,6.106,3.052,8.259h-6Z" transform="translate(134.358 80.888)" fill="#c77555"/>
        <path id="パス_1246" data-name="パス 1246" d="M66.6,51.755V47.161H47.033V76.235H66.755v-4.64h-14.5V62.512H66.492V57.956H52.254v-6.2Z" transform="translate(80.667 80.888)" fill="#c77555"/>
        <path id="パス_1247" data-name="パス 1247" d="M33.777,47.161v20.2l-14.846-20.2H14.079V76.235h5.11V55.793L34.215,76.235h4.673V47.161Z" transform="translate(24.148 80.888)" fill="#c77555"/>
        <path id="パス_1248" data-name="パス 1248" d="M133.161,46.956a15.1,15.1,0,1,1-15.284,15.1,15.234,15.234,0,0,1,15.284-15.1m.041,25.392c5.862,0,10.016-4.483,10.016-10.288,0-5.669-4.073-10.3-10.016-10.3-5.9,0-9.948,4.632-9.948,10.3,0,5.8,4.127,10.288,9.948,10.288" transform="translate(202.176 80.536)" fill="#c77555"/>
        <path id="パス_1249" data-name="パス 1249" d="M157.173,54.258c0-1.529,1.949-2.78,4.966-2.78a14.448,14.448,0,0,1,7.475,1.968V48.507a16.735,16.735,0,0,0-7.456-1.553c-5.428,0-10.29,2.97-10.29,7.423,0,9.177,15.153,6.8,15.153,13.318,0,2.677-2.905,4.8-7.019,4.8a19.35,19.35,0,0,1-9.231-2.856V74.99a18.59,18.59,0,0,0,9.3,2.159c6.367,0,12.332-3.543,12.332-9.582,0-10.616-15.235-8.963-15.235-13.31" transform="translate(258.592 80.533)" fill="#c77555"/>
      </g>
    </g>
  </g>
</svg>
