<svg xmlns="http://www.w3.org/2000/svg" xmlns:xlink="http://www.w3.org/1999/xlink" width="633" height="389" viewBox="0 0 633 389">
  <defs>
    <clipPath id="clip-path">
      <rect id="長方形_645" data-name="長方形 645" width="388.44" height="101.435" fill="none"/>
    </clipPath>
    <clipPath id="clip-SA">
      <rect width="633" height="389"/>
    </clipPath>
  </defs>
  <g id="SA" clip-path="url(#clip-SA)">
    <rect width="633" height="389" fill="#fff"/>
    <g id="グループ_915" data-name="グループ 915">
      <rect id="長方形_266" data-name="長方形 266" width="632.995" height="389" fill="none"/>
    </g>
    <g id="グループ_1571" data-name="グループ 1571" transform="translate(123.775 137.4)">
      <g id="グループ_1397" data-name="グループ 1397" transform="translate(0 0)" clip-path="url(#clip-path)">
        <path id="パス_954" data-name="パス 954" d="M209.469,65.113c.018-.4.218-.8.207-1.194-.018-.793-.658-.991-1.246-1.383-.486-.322-.813-.185-1.129.282-.225.327-.439.662-.646,1-1.5,2.483-2.591,5.2-4.167,7.641-.352.543-.365,1.225-.687,1.777a13.639,13.639,0,0,1-1.6,1.984,13.526,13.526,0,0,1-1.7,1.973c-.45.352-.96.586-1.415.949a5.831,5.831,0,0,1-1.838.991,1.031,1.031,0,0,1-.935-.3c-1.489-1.552-1.234-3.942-1.529-5.981a45.483,45.483,0,0,1-.556-5.078,9.546,9.546,0,0,0-.437-1.75c-.131-.593-.05-1.21-.149-1.809-.155-.932-.317-1.861-.464-2.8-.113-.73-.477-1.3-.557-2.041a15.572,15.572,0,0,0-1.57-5.39c-.345-.68-.7-1.356-1.025-2.045-1-.973-2.142-2.465-3.958-1.967a6.752,6.752,0,0,0-1.62.57,6.135,6.135,0,0,0-2.135,1.894,15.453,15.453,0,0,0-1.653,4.264c-.54,1.584-1.1,3.235-1.717,4.744-.484,1.183-.7,2.449-1.063,3.667a8.806,8.806,0,0,1-2.464,3.848c-.173.14-.944.66-1.173.511-1.4-.93-1.232-2.724-1.534-3.935a10.729,10.729,0,0,1-.432-1.967,6.17,6.17,0,0,1-.049-.935c-.079-.752-.2-1.5-.324-2.244a12.9,12.9,0,0,1-.3-2.093,12.244,12.244,0,0,0-1.507-3.9c-.619-.843-2.187-2.064-3.311-1.766-1.52.4-1.41,2.692-1.732,3.83-.191.678-.466,1.342-.707,2-.6,1.685-1.277,3.372-1.732,5.105a14.213,14.213,0,0,1-.865,2.4,15.034,15.034,0,0,0-1.1,2.158,34.7,34.7,0,0,1-1.847,4.332c-.691,1.16-1.879,1.994-2.379,3.273-.676,1.726-1.081,3.591-2.442,4.94-1.216,1.2-2,2.688-3.145,3.9-.466.493-1.52,1.743-2.32,1.534-.327-.086-1.832.541-3.217.7-1.453-.514-2.162-.842-2.832-1.987a7.847,7.847,0,0,1-.453-2.618,5.385,5.385,0,0,1,.538-1.8c.556-1.431,1.268-2.78,1.834-4.2.275-.689.228-1.458.529-2.133a5.234,5.234,0,0,1,2.4-2.118c.962-.592,1.618-1.489,2.545-2.113.7-.471,1.69-.73,1.908-1.678.045-.637-.478-.87-.545-1.3-1.128-.2-1.89-.741-3.07-.656a7.639,7.639,0,0,1-3.149-.442,14.527,14.527,0,0,1-3.021-1.538c-.5-.318-2.194-1.181-2.367-1.752-.151-.5-.628-.887-.455-1.534.423-1.586,2.19-1.478,3.39-1.967a4.7,4.7,0,0,1,3.568-.1c1.5.428,2.983.914,4.458,1.421,2.248,1.165,2.16,1.493,3.933,3.07a3.367,3.367,0,0,0,3.07-1.318c.9-1.487-.665-3.106-1.712-3.983-1.422-1.194-3.267-1.521-4.708-2.64-.971-.757-2.16-.856-3.165-1.545-1.246-.858-2.153-.6-3.591-.73-1.342-.117-2.618-.624-3.967-.3a17.148,17.148,0,0,0-3.456,1.739,9.273,9.273,0,0,0-1.237,1.14,20.693,20.693,0,0,1-1.626,1.937c-2.223.187-3.945.7-6.015-.43a28.421,28.421,0,0,1-2.5-1.624c-1.4-.957-2.741-2.151-4.4-.807-.268.218-.221,1.428-.171,1.737.135.818.7,1.5.867,2.32a15.718,15.718,0,0,0,.275,1.806,8.222,8.222,0,0,1,.554,2.784c-.029,2.591.437,5.456.013,8.019a25.262,25.262,0,0,1-.331,3.028,38.635,38.635,0,0,1-1.1,3.812c-.473,1.174-1.3,2.147-1.854,3.28a8.251,8.251,0,0,1-2.566,2.866c-.514.437-1.329,1.325-2.039,1.257-3.393-.324-3.134-4.062-4.6-6.138a6.036,6.036,0,0,1-.473-1.4,43.6,43.6,0,0,1-1.683-5.789c-.261-1.343-.779-2.525-1.146-3.83-.225-.806-.441-1.708-.617-2.532a17.76,17.76,0,0,1-.029-3.971,16.81,16.81,0,0,1,.442-4.347c.331-1.194.7-2.374,1.084-3.552.2-1.144.757-2.982-.649-3.739-1.933-.845-3.591,1.406-4.445,2.84C99.6,55.136,99.1,57.317,98,59.216c-.635,1.092-1.475,2.045-2.163,3.1a16.969,16.969,0,0,1-1.717,2.877,27.223,27.223,0,0,0-2.582,3.487c-1.021,1.417-2,2.94-3.082,4.3-.6.755-1.412,1.325-2.07,2.03-.764.82-1.426,1.73-2.239,2.5-1.52,1.442-2.9,3.255-4.942,3.978a5.1,5.1,0,0,1-3.874-.66c-1.2-.687-1.586-1.987-2.108-3.179-.973-2.221.031-3.911.514-6.041a8.5,8.5,0,0,1,1.262-3.553c.793-1.012,1.663-1.958,2.512-2.926a5,5,0,0,1,2.111-1.755,4.979,4.979,0,0,0,2.32-.912c.793-.46,1.885-1.791,1.172-2.676a3.389,3.389,0,0,0-2.361-.82,12.148,12.148,0,0,1-2.413-.6,35.981,35.981,0,0,1-4.647-1.8,4.574,4.574,0,0,1-2.71-2.207c-.207-.482,1.448-2.1,1.814-2.352a5.293,5.293,0,0,1,2.732-.7c3.1-.156,6.54.444,8.927,2.573a11.452,11.452,0,0,0,.914.93,2.4,2.4,0,0,0,2.233.207,6.842,6.842,0,0,0,1.126-1.324,5.989,5.989,0,0,0,.455-1.536c.045-1.011-1.732-2.694-2.449-3.239-1.951-1.489-4.631-2.147-6.985-2.685-2.474-.561-5.589-.7-7.745.935-1.631,1.237-3.465,2.313-4.512,4.14-.624,1.093-.77,2.379-1.563,3.381-1.388,1.761-1.7,4.093-2.782,6.017-.707,1.255-1.516,2.433-2.117,3.749-.566,1.239-.577,2.64-1.3,3.775-1.356,2.135-2.509,4.712-4.312,6.515-.392.394-.782.784-1.133,1.207a5.415,5.415,0,0,1-1.91,1.342,8.191,8.191,0,0,1-3.469.9,4.016,4.016,0,0,1-2.913-1.266c-.518-.716-1.167-1.6-1.532-2.183-.653-1.183-.565-1.149-.806-1.534-.147-.511-1.725-4.582-1.617-5.037.086-.971-1.536-5.49-1.536-5.49V59.833c.022-.237-.036-1.372,0-2.4.074-1.079.144-2.153.218-3.23.11-1.609-.049-3.512.471-5.046a8.821,8.821,0,0,0,.709-1.967c.153-1.82.883-3.521,2.87-3.764,1.552-.191,3.082.469,4.641.414,2.212-.076,4.422-.237,6.634-.34,1.77-.083,3.7.088,5.346-.673.824-.379,2.154-.8,2.528-1.721.421-1.034-.536-1.59-1.047-2.307-.3-.423-3.974.522-3.974.522C54.7,41.5,50.382,38,46.208,38.131c-.906-.259-1.62-.8-1.318-1.967,1.534-2.518,1.374-5.708,1.539-8.54.133-2.225.7-4.427.565-6.665-.111-1.814-1.53-3.406-1.433-5.177.129-2.379-1.665-4.909-3.523-6.355L41.653,9.3l-.48.129a4.725,4.725,0,0,0-1.378,2.192,17.627,17.627,0,0,0-.158,2.843c.128,2.169.513,4.4.559,6.582.065,2.9-.8,5.706-.791,8.589a20.829,20.829,0,0,1-.5,4.179,21.725,21.725,0,0,0-.718,2.854A17.239,17.239,0,0,1,37.3,41.7a12.394,12.394,0,0,0-1.158,4.185c-.027,2.046-.946,3.151-1.692,4.94a12.482,12.482,0,0,0-.4,2.025,19.355,19.355,0,0,1-1.3,2.635,14.011,14.011,0,0,0-.777,3.2,9.066,9.066,0,0,1-1.829,3.555,19.589,19.589,0,0,0-.985,2.415c-.41.856-1.3,4.138-2.9,3.521-.563-.216-1.363-.367-1.536-1.1v-.214c-.8-2.658-4.429-5.593-4.821-5.942-1.273-.881-2.588-1.712-3.769-2.717A17.152,17.152,0,0,0,13.088,56a2.711,2.711,0,0,0,.282.135c-.142-.076-.286-.142-.426-.212l.013.007a.242.242,0,0,1-.047-.027.333.333,0,0,0,.034.02c-.807-.475-1.473-1.277-2.25-1.773-.005,0-2.4-1.536-3.5-2.421-.647-.8-1.752-2.1-1.316-3.286v-.647l.214-.671c.39-1.081,1.816-1.534,2.854-1.967a16.316,16.316,0,0,1,6.138-1.536A12.769,12.769,0,0,0,19.6,41.63c.466-.378,1.011-.714,1.455-1.108.646-.577,1.735-2.881,1.273-3.688-3.589-1.124-5.535,4.3-9.427,1.75a3.939,3.939,0,0,0-2.419-.669c-2.212.142-4.334.248-6.19,1.6A13.189,13.189,0,0,0,.838,42.95,10.173,10.173,0,0,0,0,46.441C.11,47.559,1.1,50.816,1.982,51.7s1.647,2.12,2.791,3.093c.975.879,1.027,1.068,1.534,1.536l3.739,2.852A24.339,24.339,0,0,1,15.3,64,5.731,5.731,0,0,1,16.575,65.5a12.807,12.807,0,0,1,1.239,3.228,14.28,14.28,0,0,1,.338,5.589c-.3,2.417-1.545,5.834-4.284,6.353a6.416,6.416,0,0,1-2.82-.575c-1.588-.455-2.674-1.563-4.3-1.841a8.9,8.9,0,0,0-3.055-.218c-.381.086-2.719,1.493-2.421,3.5.023,2.165,2.724,3.354,3.5,3.74l.669.218L8.729,86.57a9.139,9.139,0,0,0,1.1.237c1.038-.151,1.838.261,2.854.218l1.309.016a22.465,22.465,0,0,0,3.883-.825c4.181-1.44,6.771-5.873,9.484-9.069a16.131,16.131,0,0,0,1.536-2.4c2.077-2.723,2.809-6.159,5.706-8.321.779-.194,1.253.343,1.75.863a55.59,55.59,0,0,0,2.1,5.386c1.189,2.525,1.16,5.44,2.5,7.922.469.876.6,1.831,1.093,2.688l.885,1.536a13.464,13.464,0,0,0,2.7,3.839c.962.838,2.624,2.286,3.985,2.1a5.383,5.383,0,0,0,3.622-2.649c.755-1.926,2.509-2.876,3.286-4.821l.865-1.3.885-1.1a12.218,12.218,0,0,1,1.32-2.421,12.576,12.576,0,0,1,1.534-3.07L62.2,73.428a10.656,10.656,0,0,0,.887-3.5,73.153,73.153,0,0,0,3.07-8.344c-.115-.117.584-1.343.709-1.5,1.176-1.449,2-.946,3.305-.1A28.127,28.127,0,0,1,72.8,61.867c.306.252.631.572.509,1-.1.367-.441.559-.626.865-.61,1-1.093,2.055-1.746,3.039a13.308,13.308,0,0,0-1.662,3.059c-.4,1.21-.789,2.426-1.174,3.642a11.025,11.025,0,0,0-.834,3.241c.02,1.548.246,3.215.415,4.721a9.09,9.09,0,0,0,4.167,6.237,6.182,6.182,0,0,0,.878.6c.194.063,1.7.637,2.045.836a7.828,7.828,0,0,0,4.744.719,3.7,3.7,0,0,0,2.956-1.707c.626-.806,1.473-1.4,2.1-2.21,2.021-2.624,3.564-5.539,5.7-8.1,1.176-1.412,2.165-2.937,3.314-4.359a15.37,15.37,0,0,0,1.982-2.543,16.865,16.865,0,0,1,1.529-2.789c.441-.554.915-1.361,1.748-1.041.322.124,1.1.664,1.066,1.092-.108,1.385,1.365,8.085,1.322,8.538a12.483,12.483,0,0,0,.586,2.34c.138.379.277.762.388,1.153a6.494,6.494,0,0,0,.223.876c.325.763.7,1.5,1.052,2.255.412.89.771,1.8,1.208,2.681a13.986,13.986,0,0,1,.948,2.5,7.59,7.59,0,0,0,.881,1.64c.486.91.588,1.964,1.047,2.884a15.21,15.21,0,0,0,1.361,2.075,6.921,6.921,0,0,0,3.931,3.08c1.4.041,2.507-1.557,3.072-2.638a35.983,35.983,0,0,0,2.922-6.028,21.555,21.555,0,0,1,.964-2.514,53.912,53.912,0,0,0,2.217-5.132,54.933,54.933,0,0,0,2.2-5.605c.173-.757,1.814-11.522,1.985-13.164a5.881,5.881,0,0,1,3.07-1.3,5.863,5.863,0,0,0,1.1,0c2.289.736,2.617.865,3.717,3.07a1.53,1.53,0,0,0,.237.433s2.823,4.384,3.286,5.035c.367.529.816,1.408.48,2.043-.309.586-.372,1.282-.64,1.894a18.54,18.54,0,0,0-.908,1.993c-.419,1.343-.41,2.757-.712,4.122a12.292,12.292,0,0,0-.622,3.978,6.709,6.709,0,0,0,.651,2.183c.541,2.679,2.077,5.728,4.6,6.808a3.117,3.117,0,0,0,1.7.631,5.273,5.273,0,0,0,1.883.119,4.15,4.15,0,0,0,2.392-.752c.642-.523,1.131-1.21,1.753-1.755a8.994,8.994,0,0,0,1.361-1.115,6.937,6.937,0,0,1,1.446-1.5,16.011,16.011,0,0,0,3.741-4.735c.554-.9.507-2.016.948-2.976a16.644,16.644,0,0,1,2.133-3.1c1.207-1.579,1.466-3.622,2.714-5.147a6.53,6.53,0,0,0,.651-1.6,28.607,28.607,0,0,1,1.467-3.138,5.906,5.906,0,0,1,1.91-2.34,1.016,1.016,0,0,1,1.275.457,11.185,11.185,0,0,1,.682,2.327A9.9,9.9,0,0,1,166.538,70c.119,1.46.687,2.831.7,4.312.005.727.173,1.381.173,2.118,0,.264.092.527.07.793a27.705,27.705,0,0,0,.067,5.906,28.955,28.955,0,0,1,.113,3.512c.016,1.217-.192,2.437-.061,3.652.076.71.575,2.656,1.509,2.8s1.386-.538,1.856-1.284c.18-.286,1.322-2.34,1.066-2.6a26.267,26.267,0,0,1,1.75-5.253c-.036-.011.635-2.595.734-2.816a12.325,12.325,0,0,0,.513-1.185A4.449,4.449,0,0,0,175.1,78.9a6.475,6.475,0,0,1,.459-1.372c.5-1.512.993-3.027,1.505-4.534a16.625,16.625,0,0,0,1.1-2.638s2.854-8.711,5.9-9.209c2.746,1.969,2.854,5.427,3.307,8.562.543,1.518,1.264,5.8,1.536,7A10.915,10.915,0,0,0,189.718,80a10.435,10.435,0,0,1,.433,1.732,8.51,8.51,0,0,0,.335,1.728c.446,1.2.991,2.386,1.494,3.568.218.667.734,1.194.887,1.886.142.624-.04,1.239.462,1.746a8.3,8.3,0,0,0,1.721,1.187c1.883,0,2.462-1.66,3.287-3.07a22.84,22.84,0,0,0,1.534-3.07,2.281,2.281,0,0,1,.32-.477c.464-.712.914-1.439,1.327-2.181a8.805,8.805,0,0,0,1.163-2.769,4.433,4.433,0,0,1,.71-1.264c.851-1.511.811-3.438,1.759-4.863a13.338,13.338,0,0,0,1.068-1.539c.268-.556.336-1.187.6-1.744.4-.842,1.131-1.455,1.586-2.259a10.733,10.733,0,0,0,.887-1.967c.315-.489.151-1,.173-1.529m108.49,1.352c-.266,1.155-.782,2.307-.989,3.462-.387,2.183-2.1,4.019-3.284,5.683-1.277,2.471-3.289,5.539-5.893,6.708a17.8,17.8,0,0,0-2.341.975,1.831,1.831,0,0,1-2.215-.092c-1.047-.734-1.953-2.723-2.338-3.893a24.114,24.114,0,0,1-1.027-5.879s-.207-4.26-.214-4.384a46.346,46.346,0,0,1,.031-6.2,6.252,6.252,0,0,1,.412-2.561c.414-.719,1.293-1.048,1.969-1.469a16.354,16.354,0,0,1,2.316-1.189,18.275,18.275,0,0,1,3.462-1.165,20.988,20.988,0,0,1,3.573-.12c.545-.013,1.079-.187,1.615-.23a2.828,2.828,0,0,1,.3-.011c2.009.054,3.206,2.273,3.694,3.994a18.674,18.674,0,0,0,.428,1.892,7.459,7.459,0,0,1,.5,4.483M270.28,47.122c-.137-3.429,0-6.861,0-10.288,0,0-.194-4.15-.214-4.388l.214-1.752c-.214-1.018,1.732-9.4,1.536-9.662V18.849s.023-.626,0-.885a3.857,3.857,0,0,0,.216-1.081l.237-.671.433-1.081.218-1.1a5.523,5.523,0,0,1,.647-1.752,1.959,1.959,0,0,1,3.07.865c.077.462.236,1.536.236,1.536.279,1.2.218,2.658.435,3.954.041.541,0,2.183,0,2.183-.5,2.494-.074,4.985-.018,7.486a34.944,34.944,0,0,1-.389,4.474,13.473,13.473,0,0,1-.545,3.07,12.715,12.715,0,0,0-.2,3.339,13.008,13.008,0,0,1-.946,3.036c-.361,1.216-.315,2.51-.685,3.73a38.955,38.955,0,0,1-1.354,3.685c-.268.642-.543,1.28-.816,1.919-.119.282-.491,1.712-.973,1.056a46.661,46.661,0,0,1-1.1-5.488m-22.349,8.992s-3.545,13.077-3.955,13.36l-.432.885s-3.221,6.614-3.721,7.458a4.552,4.552,0,0,1-1.147,1.079,3.244,3.244,0,0,1-2.126.87c-1.289-.164-3.526-.038-4.614-.847-.844-.626-1.039-1.924-1.536-2.854a30.325,30.325,0,0,1-.48-3.57c-.077-2.1-.6-4.158-.577-6.251a38.964,38.964,0,0,1,.387-3.99c.182-1.532.428-3.071.538-4.611a4.318,4.318,0,0,1,.62-1.985,3.968,3.968,0,0,1,1.262-1.511,44.788,44.788,0,0,1,6.317-2.534,6.349,6.349,0,0,1,2.313-.531c.466.007.958.04,1.422,0a6.792,6.792,0,0,1,2.658.86c1.275.95,3.242,1.791,3.07,3.737Zm140.5-1.75c-.029-.37-.108-1.295-.435-1.538-.8-.581-1.816.067-2.206.651a15.466,15.466,0,0,1-.716,2.672,8.766,8.766,0,0,0-.852,2.385,3.751,3.751,0,0,1-.721,1.816c-.135.245-.252.5-.369.752a36.211,36.211,0,0,1-2.379,4.221l-1.534,2.4a28.617,28.617,0,0,1-3.5,4.6c-.541.347-1.536.885-1.536.885-.885-.151-1.752.369-2.636-.432-.475-.39-.647-3.176-.433-3.739.239-2.442-.885-7.673-.885-7.673-.973-3.07-1.4-6.571-3.5-8.97a7.4,7.4,0,0,0-5.467-1.773,7.18,7.18,0,0,0-3.289,2.2c-1.924,3.223-3.974,5.773-5.92,8.993a3.85,3.85,0,0,1-1.969,1.3c-4.841-1-2.789-7.155-7.022-8.972-2.7.067-2.032,3.374-2.64,4.821,0,0-1.081,3.566-1.534,5.469,0,0-.52,4.043-1.536,5.7-.649,1.066-.714,2.875-.973,4.084a14.4,14.4,0,0,1-1.394,3.183c-.475,1-1.012,2.879-2.034,3.444a9.381,9.381,0,0,1-1.581,2.25,4.119,4.119,0,0,1-2.018,1.633c-.728.185-1.221-.334-1.647-.851a4.34,4.34,0,0,1-.856-1.246c-.888-.586-1.1-3.07-1.1-3.07-.888-1.255-.888-4.821-.888-4.821,0-1.3.255-2.608.227-3.931-.02-1.066-.108-2.142-.057-3.212.047-1.009.333-1.989.37-3,.039-.966-.322-1.894-.239-2.858a5.1,5.1,0,0,1,1.02-2.78s1.534-.173,1.967-.888c.122-.2.351-.378.482-.59a10.068,10.068,0,0,0,.536-1.012c.667-1.4,1.065-2.156.369-3.6a4.4,4.4,0,0,0-3.118-2.093,52.943,52.943,0,0,0-8.774-1.027c-.218.067-1.795-.108-2.852,0a8.666,8.666,0,0,0-5.476.534,19.926,19.926,0,0,1-3.124.725,17.736,17.736,0,0,0-3.41,1.137c-.9.442-1.68,1.074-2.528,1.6-.6.37-1.906.577-2.347,1.047a19.322,19.322,0,0,0-2.421,2.638c-.6,1.383-.583,3.329-.863,4.6,0,0,.261,3.48,0,3.933v3.5c-.281,1.036-1.1,3.737-1.1,3.737l-.216.651c-.153.487-.385.98-.561,1.466a8.238,8.238,0,0,1-.969,1.539c-.576.9-1.106,1.834-1.608,2.78a24.135,24.135,0,0,1-1.948,2.922c-1.115,1.534-2.255,3.054-3.4,4.562-.478.629-.966,1.257-1.489,1.849a3.027,3.027,0,0,1-.984.9c-.473.183-.825.638-1.309.818a3.739,3.739,0,0,1-1.966-.016,2.437,2.437,0,0,1-1.759-1.255,8.74,8.74,0,0,1-.505-1.309,24.983,24.983,0,0,0-1.356-3.4,17.7,17.7,0,0,1-1.106-2.69c-.147-.459-.29-.921-.417-1.386-.117-.432-.088-.872-.183-1.306-.077-.352-.189-.7-.284-1.041-.176-.638-.511-1.219-.689-1.856a13.83,13.83,0,0,1-.343-1.958c-.043-.342-.085-.683-.113-1.027-.058-.714-.484-1.383-.6-2.093-.1-.548-.316-1.057-.39-1.6-.049-.361-.029-.716-.1-1.072a7.511,7.511,0,0,1,.092-1.9,9.164,9.164,0,0,1,.2-1.984c.512-1.829,1.924-3.181,2.518-4.963.629-1.05.858-2.262,1.453-3.334a21.165,21.165,0,0,0,1.757-3.228c.789-2.277,1.581-4.541,2.34-6.826a16.385,16.385,0,0,1,.629-1.68,9.451,9.451,0,0,0,.656-1.874,12.69,12.69,0,0,1,1.532-4.343,7.667,7.667,0,0,0,.732-2.591,28.245,28.245,0,0,0,.556-3.74c.225-2.507.2-5.028.228-7.542a53.225,53.225,0,0,0-.155-7.226,34.411,34.411,0,0,0-.317-3.649,7.226,7.226,0,0,0-.2-1.088,79.853,79.853,0,0,0-5.922-11.392A4.521,4.521,0,0,0,274.453,0c-1.815.022-2.377,2.334-2.854,3.5a3.864,3.864,0,0,0-.611,1.66,14.93,14.93,0,0,1-.827,1.7,11.589,11.589,0,0,0-.771,2.18,27.608,27.608,0,0,0-.642,3.023c-.234.718-.865,2.4-.865,2.4a22.322,22.322,0,0,0-.468,2.805c-.5,3.057-1.217,6.067-1.721,9.119a49.293,49.293,0,0,0-.509,4.983c-.169,2.791-.478,5.611-.545,8.4-.067,2.845.52,5.65.671,8.483.18,3.345-.007,6.733.6,10.042v1.536a30.418,30.418,0,0,1,0,7.673,6.14,6.14,0,0,1-.908,1.807c-.615,1.066-1.311,2.086-1.874,3.181-1.2,2.34-2.171,6.134-5.127,6.857-.664.162-2.088-.842-2.46-1.343a7.039,7.039,0,0,1-.764-2.595c-.534-2.109-.791-4.291-1.246-6.422a32.807,32.807,0,0,1-1-5.2c0-.973-.216-3.954-.216-3.954-.067-.194.43-3.286.43-3.286A3.979,3.979,0,0,1,254.72,54.8a1.47,1.47,0,0,1,1.532.649,2.208,2.208,0,0,0,1.181.27c1.421-.128.906-2.136.388-2.888a9.4,9.4,0,0,0-3.642-2.985c-.924-.529-1.75-1.214-2.719-1.662a23.993,23.993,0,0,0-2.771-.955,19.766,19.766,0,0,0-2.268-.647c-1.761-.333-3.935.4-5.656.75-1.953.394-3.9.838-5.837,1.3a56.749,56.749,0,0,0-7.6,2,4.36,4.36,0,0,0-2.2,3.956c-.194.453.347,2.832,0,3.5v.433c0,.975-.216,3.956-.216,3.956s-.347,3-.649,4.388c-.077,1.39.255,2.888.3,4.291a31.538,31.538,0,0,0,.349,4.528,22.921,22.921,0,0,0,1.534,6.075c.583.887,1.079,1.728,1.75,2.636,1.773,2.1,2.145,5.406,4.568,6.832,1.068,1.471,2.523.842,3.776.41,1.687-1.146,2.825-3.143,3.717-3.958,1.068-1.6,2.257-3.125,3.214-4.8a30.262,30.262,0,0,0,2.582-6.3c.374-1.234.842-2.793,2.039-3.482.313-.182.629-.365.941-.55a7.878,7.878,0,0,1,1,1.092c.737,1.048.8,2.724,1.187,3.931s.78,2.39,1.086,3.607c.225.888.424,1.795.624,2.674.315,1.4.482,2.795.77,4.181a15.117,15.117,0,0,0,.876,2.208,3.2,3.2,0,0,0,1.46,1.827h.432c.281-.367,2.487-2.226,2.852-3.286a26.257,26.257,0,0,1,1.538-2.636c1.469-1.3,3.348-9.166,5.7-10.743.585-.173.865.3,1.318.453a2.172,2.172,0,0,1,.432,1.536,8.439,8.439,0,0,1,.192.9c.212,1.043.448,2.077.746,3.1.324,1.111.951,2.1,1.223,3.219a22.257,22.257,0,0,0,.782,2.719,8.3,8.3,0,0,0,.59,1.261,3.981,3.981,0,0,1,.559,1.115,12.238,12.238,0,0,0,1.243,2.663c.8,1.48,1.669,2.924,2.449,4.418a10.912,10.912,0,0,1,1.21,2.96,1.617,1.617,0,0,0,.9,1.108,10.428,10.428,0,0,0,1.286.372,2.685,2.685,0,0,0,1.117.212c1.282-.167,1.791-1.521,2.588-2.327a29.2,29.2,0,0,0,3.005-3.714c.2-.279.4-.556.624-.816a8,8,0,0,0,.951-1.667c.9-1.737,1.734-3.514,2.674-5.231.606-1.1,3.48-7.521,4.6-9.206.088-.131.541.133.615.191a1.993,1.993,0,0,1,.435.514,4.62,4.62,0,0,1,.615,1.271c.085.25.165.5.246.75.165.52.345,1.034.554,1.536A52.123,52.123,0,0,0,300.8,89.2c.534.908,1.1,1.8,1.712,2.662a6.57,6.57,0,0,0,1.315,1.512c.424.313,1.843-.279,2.264-.5a15.867,15.867,0,0,0,2.2-1.723c1.309-1.012,2.048-2.854,3.136-4.124a73.574,73.574,0,0,0,6-7.474c.628-.96.872-2.638,2.275-2.631.7,0,1.329.876,1.647,1.385a10.577,10.577,0,0,1,1.162,3.935,9.835,9.835,0,0,0,.6,2.287,10.12,10.12,0,0,1,.881,1.78,15.925,15.925,0,0,0,1.1,3.3c.987,2.091,2.282,2.733,4.544,1.935a11.35,11.35,0,0,0,3-1.338,9.089,9.089,0,0,0,1.917-2.483c.261-.374.435-.824.723-1.174a9.518,9.518,0,0,0,1.529-3.356,25.209,25.209,0,0,1,1.518-4.544,19.312,19.312,0,0,0,2.039-6.445,8.512,8.512,0,0,1,.254-1.7c.439-1.156,1.014-2.237,1.424-3.411a7.847,7.847,0,0,1,.584-1.561c2.66-.022,3.07,5.037,3.07,5.037a7.118,7.118,0,0,0,.216,2.293c.1.921.216,1.84.39,2.751a7.234,7.234,0,0,1,.466,2.44c-.239,1.926.619,3.526.682,5.4.084,2.626-.326,6.587,1.75,8.6h.432c1.383-.5,1.795-2.2,2.2-3.5a1.667,1.667,0,0,1,.218-.888l.216-2.4V84.82c-.067-.822.712-6.661.432-6.789v-.885c-.11-.93,1.318-7.673,1.318-7.673,1.32-2.856,2.53-6.161,4.6-8.324.723-.753.987-2.07,2.341-1.9,1.527.2,3,2.381,3.323,3.767.383,1.669.773,3.338,1.237,4.985a21.55,21.55,0,0,1,.338,2.787,25.2,25.2,0,0,0,.433,3.285,39.817,39.817,0,0,1,.647,6.593c.457,1.381,1.861,6.959,2.856,7.218a4.708,4.708,0,0,0,1.316-.432c2.237-.908,3.46-4.4,4.634-6.314,1.137-1.849,2.633-3.469,3.553-5.451.5-1.075.667-2.69,1.453-3.582a7.119,7.119,0,0,1,1.1-1.969,29.1,29.1,0,0,0,3.933-8.1,4.757,4.757,0,0,0,.471-1.1c.4-1.093.721-2.21,1.113-3.305.183-.516.36-1.045.588-1.543a3.457,3.457,0,0,0,.469-1.73" transform="translate(0 0)" fill="#00367c"/>
      </g>
    </g>
  </g>
</svg>
