<svg xmlns="http://www.w3.org/2000/svg" width="21.814" height="18.983" viewBox="0 0 21.814 18.983">
  <path id="パス_10" data-name="パス 10" d="M295-108.526a5.026,5.026,0,0,1-1.511-3.606A4.941,4.941,0,0,1,295-115.7a5.154,5.154,0,0,1,3.6-1.465,5.061,5.061,0,0,1,3.568,1.465,5.041,5.041,0,0,1,1.478,3.07,4.992,4.992,0,0,1,1.442-3.07,5.149,5.149,0,0,1,3.6-1.465,5.212,5.212,0,0,1,3.6,1.465,4.944,4.944,0,0,1,1.514,3.57,4.965,4.965,0,0,1-1.514,3.606l-8.643,8.537Z" transform="translate(-292.737 117.918)" fill="none" stroke="#625f5f" stroke-width="1.5"/>
</svg>
