<svg id="hanger" xmlns="http://www.w3.org/2000/svg" width="20" height="20" viewBox="0 0 20 20">
  <g id="グループ_1218" data-name="グループ 1218">
    <g id="グループ_1217" data-name="グループ 1217" transform="translate(0.833 1.666)">
      <path id="パス_729" data-name="パス 729" d="M276.117,141.849a.084.084,0,0,1,.1,0l5.6,4.129.943-.754-5.852-4.313a1.2,1.2,0,0,0-.19-.1v-.884c0-.106.1-.169.186-.191a2.918,2.918,0,0,0-.213-5.694,2.918,2.918,0,0,0-3.441,2.871h1.1a1.813,1.813,0,1,1,2.272,1.754,1.307,1.307,0,0,0-1.011,1.26v.883a1.28,1.28,0,0,0-.19.1l-7.914,5.833a1.25,1.25,0,0,0,.742,2.257h8.777l-1.167-1.167h-7.61c-.035,0-.06,0-.079-.058s0-.072.03-.093Z" transform="translate(-267 -134)" fill="#646464"/>
      <path id="パス_730" data-name="パス 730" d="M287.333,147l-5,4.167-2.5-2.5L279,149.5l3.333,3.333,5.833-5Z" transform="translate(-269 -136.166)" fill="#646464"/>
    </g>
    <rect id="長方形_531" data-name="長方形 531" width="20" height="20" fill="none"/>
  </g>
</svg>
