<svg id="HISTORY" xmlns="http://www.w3.org/2000/svg" width="24" height="24" viewBox="0 0 24 24">
  <g id="閲覧履歴">
    <g id="グループ_1311" data-name="グループ 1311">
      <g id="レイヤー_1" data-name="レイヤー 1" transform="translate(0 3)">
        <path id="パス_749" data-name="パス 749" d="M-208.7,7v5.7h5.7V11.3h-4.3V7Zm.7-4a9,9,0,0,0-9,9,8.894,8.894,0,0,0,.318,2.328L-219,12l-1,1,4,3.989.318-.318,0,.007,1.02-1.02,0-.005L-212,13l-1-1-2.24,2.256A7.523,7.523,0,0,1-215.6,12,7.608,7.608,0,0,1-208,4.4a7.608,7.608,0,0,1,7.6,7.6,7.608,7.608,0,0,1-7.6,7.6,7.572,7.572,0,0,1-5.371-2.229l-.993.993A8.972,8.972,0,0,0-208,21a9,9,0,0,0,9-9A9,9,0,0,0-208,3Z" transform="translate(220 -3)" fill="#646464"/>
      </g>
      <g id="outline">
        <rect id="長方形_594" data-name="長方形 594" width="24" height="24" fill="none"/>
      </g>
    </g>
  </g>
</svg>
