<svg id="アカウントアイコン" xmlns="http://www.w3.org/2000/svg" width="24" height="24" viewBox="0 0 24 24">
  <g id="グループ_1316" data-name="グループ 1316">
    <g id="account" transform="translate(2.3 2)">
      <g id="グループ_253" data-name="グループ 253">
        <path id="パス_751" data-name="パス 751" d="M373.7,21h-1.4a8.3,8.3,0,1,0-16.6,0h-1.4a9.7,9.7,0,0,1,19.4,0Z" transform="translate(-354.3 -2)" fill="#646464"/>
        <path id="楕円形_30" data-name="楕円形 30" d="M364,3.4A2.6,2.6,0,1,1,361.4,6,2.6,2.6,0,0,1,364,3.4M364,2a4,4,0,1,0,4,4,4,4,0,0,0-4-4Z" transform="translate(-354.3 -2)" fill="#646464"/>
      </g>
    </g>
    <rect id="長方形_604" data-name="長方形 604" width="24" height="24" fill="none"/>
  </g>
</svg>
