<svg xmlns="http://www.w3.org/2000/svg" width="79.692" height="41.607" viewBox="0 0 79.692 41.607"><g transform="translate(1578 -4350.01)"><path d="M41.049,0a1.236,1.236,0,0,0,.164.04c.609.069,1.22.131,1.829.2a18.322,18.322,0,0,1,3.362.791,16.132,16.132,0,0,1,1.539.593c.536.229,1.07.473,1.582.746A16.576,16.576,0,0,1,52.1,3.995c.664.526,1.325,1.06,1.952,1.631a19.216,19.216,0,0,1,1.546,1.582A18.877,18.877,0,0,1,57.842,10.4c.249.455.494.912.724,1.384a.275.275,0,0,0,.291.178H71.1a7.936,7.936,0,0,1,2.221.348,8.84,8.84,0,0,1,2.571,1.23,9.031,9.031,0,0,1,1.869,1.752,8.345,8.345,0,0,1,1.564,3c.15.534.218,1.092.322,1.637a.354.354,0,0,0,.04.083v1.626c-.042.245-.083.49-.121.738A8.221,8.221,0,0,1,79,24.29a8.769,8.769,0,0,1-1.141,1.958,9.179,9.179,0,0,1-1.426,1.467A8.832,8.832,0,0,1,74.53,28.9a7.283,7.283,0,0,1-2.373.692c-.688.065-1.384.119-2.07.121q-5.622.018-11.242,0a.33.33,0,0,0-.336.2c-.484.854-.951,1.72-1.487,2.541A18.727,18.727,0,0,1,55.58,34.34,18.052,18.052,0,0,1,54,35.993c-.67.609-1.384,1.187-2.106,1.724A18.089,18.089,0,0,1,48.6,39.653a17.8,17.8,0,0,1-3.32,1.2c-.72.174-1.442.348-2.175.479a13.842,13.842,0,0,1-1.584.2c-.706.045-1.414.091-2.118.077s-1.384-.091-2.063-.156a18.069,18.069,0,0,1-3.255-.647,20.052,20.052,0,0,1-3.921-1.582A21.862,21.862,0,0,1,27.184,37.3,19.052,19.052,0,0,1,24.6,34.931c-.647-.716-1.236-1.485-1.809-2.262a16.714,16.714,0,0,1-1.639-2.808c-.065-.134-.158-.138-.277-.138-4.018,0-8.039.012-12.063,0a8.5,8.5,0,0,1-3.4-.7A9.192,9.192,0,0,1,2.993,27.5,8.99,8.99,0,0,1,1.14,25.229a8.877,8.877,0,0,1-1-2.745,8.555,8.555,0,0,1-.119-2.333,8.7,8.7,0,0,1,1.805-4.726,8.812,8.812,0,0,1,2.614-2.29,8.954,8.954,0,0,1,2.867-1.046,7.926,7.926,0,0,1,1.418-.127q6.039-.016,12.077,0a.338.338,0,0,0,.348-.229,16.437,16.437,0,0,1,1.463-2.557c.441-.623.9-1.238,1.384-1.825a16.821,16.821,0,0,1,1.384-1.513q.89-.831,1.849-1.57a17.526,17.526,0,0,1,1.9-1.3A26.459,26.459,0,0,1,31.6,1.711,18.5,18.5,0,0,1,33.847.868C34.65.627,35.476.453,36.3.293c.554-.109,1.121-.144,1.685-.212L38.65,0ZM59.887,18.464A19.946,19.946,0,0,0,52.979,5.48,19.547,19.547,0,0,0,37.309.763,19.4,19.4,0,0,0,24.363,7.882a19.67,19.67,0,0,0-4.432,15.967,19.412,19.412,0,0,0,6.941,12.393,19.532,19.532,0,0,0,15.692,4.564A19.42,19.42,0,0,0,55.22,33.847,19.9,19.9,0,0,0,59.887,18.464Zm-39.111-5.9H10.221c-.765,0-1.533.036-2.3.071a5.021,5.021,0,0,0-.874.119,7.637,7.637,0,0,0-2.395.969,11.377,11.377,0,0,0-1.258.908,7.044,7.044,0,0,0-.848.9,10.538,10.538,0,0,0-.728.989,7.012,7.012,0,0,0-.8,1.709,13.806,13.806,0,0,0-.342,1.384,4.463,4.463,0,0,0-.053.71,7.285,7.285,0,0,0-.026.927,7.946,7.946,0,0,0,.186,1.167A10.067,10.067,0,0,0,1.2,23.91a8.268,8.268,0,0,0,.724,1.372,10.19,10.19,0,0,0,.935,1.226,6.87,6.87,0,0,0,.89.8,7.989,7.989,0,0,0,.989.69A7.768,7.768,0,0,0,6,28.595a9.235,9.235,0,0,0,1.592.413,9.108,9.108,0,0,0,1.452.071H20.8A21.045,21.045,0,0,1,20.775,12.567ZM58.9,29.089h12a6.882,6.882,0,0,0,.756-.042A7.793,7.793,0,0,0,72.7,28.9a10.6,10.6,0,0,0,1.341-.435c.358-.146.69-.362,1.036-.54a5.972,5.972,0,0,0,1.448-1.09,15.6,15.6,0,0,0,1.046-1.206,7.329,7.329,0,0,0,.957-1.742,7.212,7.212,0,0,0,.386-1.339,7.825,7.825,0,0,0,.2-1.319,8.256,8.256,0,0,0-.216-2.215,7.135,7.135,0,0,0-.791-2.1,10.532,10.532,0,0,0-1.048-1.521,8.5,8.5,0,0,0-1.374-1.25,8.177,8.177,0,0,0-1.542-.9,7.4,7.4,0,0,0-1.624-.5,8.092,8.092,0,0,0-1.473-.172q-5.958-.012-11.917,0h-.2A21.043,21.043,0,0,1,58.9,29.089Z" transform="translate(-1577.989 4350.01)"/><path d="M147.968,42.35a12.02,12.02,0,0,1,9.69,2.842,12.13,12.13,0,0,1,1.4,16.981A12.213,12.213,0,0,1,141.9,63.727a12.135,12.135,0,0,1-1.507-17.189A12.036,12.036,0,0,1,147.968,42.35Zm-3.73,3.955.067.018a2.243,2.243,0,0,1,.012.257c-.03.439-.085.878-.093,1.317-.014.67,0,1.341,0,2.011,0,.176-.014.352,0,.528.024.344.067.688.093,1.034s.032.7.073,1.044.109.668.168,1c.081.449.142.9.253,1.343a11.668,11.668,0,0,0,.807,2.387c.255.508.467,1.046.767,1.525a16.223,16.223,0,0,0,1.291,1.78,12,12,0,0,0,1.232,1.187,9.541,9.541,0,0,0,.88.686,8.074,8.074,0,0,0,2.676,1.238,7.91,7.91,0,0,0,1.582.245,6.575,6.575,0,0,0,1.807-.127,4.548,4.548,0,0,0,1.1-.4,3.535,3.535,0,0,0,.74-.609c.235-.225.451-.477.668-.724a8.37,8.37,0,0,0,.791-.947c.38-.593.722-1.2,1.05-1.813a8.135,8.135,0,0,0,.738-2.074,14.867,14.867,0,0,0,.275-1.667,13.648,13.648,0,0,0,.069-1.556,9.947,9.947,0,0,0-.089-1.283c-.042-.334-.136-.66-.21-.989a9.691,9.691,0,0,0-.722-2.112,13.62,13.62,0,0,0-.829-1.509,9.3,9.3,0,0,0-1.074-1.4,10.02,10.02,0,0,0-1.722-1.562c-.562-.358-1.105-.746-1.687-1.068a13.4,13.4,0,0,0-1.412-.613,2.325,2.325,0,0,0-.4-.083,10.806,10.806,0,0,1,.835.937,17.666,17.666,0,0,1,.951,1.533c.3.544.593,1.1.848,1.665a13.581,13.581,0,0,1,.522,1.414c.259.807.53,1.614.734,2.436.154.625.212,1.274.314,1.924l1.754-.2c-.045.483-.073.912-.125,1.341s-.111.87-.2,1.3a10.644,10.644,0,0,1-.356,1.254c-.17.492-.358.979-.57,1.455s-.443.912-.682,1.359c-.2.376-.413.748-.647,1.105s-.5.71-.765,1.056a5.288,5.288,0,0,1-.364.4c-.01-.2-.032-.368-.024-.54.03-.664.081-1.327.1-1.991.012-.445-.016-.89-.032-1.335-.01-.289-.026-.575-.04-.862s-.024-.625-.057-.935c-.045-.4-.117-.791-.174-1.187-.04-.287-.051-.579-.115-.862-.121-.55-.237-1.1-.409-1.635a20.4,20.4,0,0,0-.732-1.938c-.2-.467-.492-.894-.73-1.347a7.712,7.712,0,0,0-1.2-1.633,14.655,14.655,0,0,0-1.734-1.608,8.414,8.414,0,0,0-2.658-1.384,8.67,8.67,0,0,0-1.962-.38,6.724,6.724,0,0,0-1.956.182,4.153,4.153,0,0,0-2.1,1.21c-.154.156-.291.33-.433.5a12.482,12.482,0,0,0-.823.989,15.882,15.882,0,0,0-.975,1.582,10.768,10.768,0,0,0-.639,1.5,12.2,12.2,0,0,0-.36,1.408c-.075.344-.113.7-.164,1.046a5.671,5.671,0,0,0-.1.791,10.152,10.152,0,0,0,.134,2.092c.095.457.144.925.269,1.384a15.044,15.044,0,0,0,.55,1.56,9.352,9.352,0,0,0,.564,1.159,11.972,11.972,0,0,0,.734,1.1,9.932,9.932,0,0,0,1.764,1.92,7.136,7.136,0,0,0,.868.72,10.662,10.662,0,0,0,2.084,1.141c.57.2,1.131.433,1.695.651l.038-.063a.879.879,0,0,0-.085-.121c-.3-.334-.631-.647-.906-1a11.579,11.579,0,0,1-.9-1.309,17.908,17.908,0,0,1-1.105-2.266,21.1,21.1,0,0,1-.931-2.727c-.131-.52-.257-1.042-.356-1.57-.067-.352-.079-.716-.127-1.072,0-.047-.089-.125-.129-.119-.415.047-.831.113-1.248.166-.138.02-.279.02-.441.032a15.532,15.532,0,0,1,3.686-9.277Z" transform="translate(-1688.312 4316.127)"/><path d="M201.22,13.754c-.059.269-.129.53-.168.791,0,.045.1.14.164.156.4.093.773.172,1.163.247s.753.131,1.127.2.755.146,1.129.235a3.979,3.979,0,0,1,.765.229.716.716,0,0,1,.443.9,8.85,8.85,0,0,1-.255,1.224c-.121.4-.277.49-.773.528a5.82,5.82,0,0,1-1.566-.235c-.451-.089-.908-.148-1.357-.237s-.884-.218-1.331-.289a2.966,2.966,0,0,1-.975-.287.779.779,0,0,1-.429-.811c.01-.077,0-.158.016-.233.02-.113.042-.223.2-.214.3.02.6.032.9.044h.219l-.1.546c.761.158,1.527.322,2.3.477.544.111,1.088.21,1.633.307a.121.121,0,0,0,.1-.069c.059-.253.107-.512.164-.765.032-.142-.075-.2-.162-.212-.437-.091-.88-.16-1.319-.245-.52-.1-1.038-.214-1.556-.324-.372-.079-.748-.15-1.113-.255a.868.868,0,0,1-.593-.425.858.858,0,0,1-.069-.461c.063-.415.146-.829.249-1.236a.791.791,0,0,1,.726-.51,6.979,6.979,0,0,1,1.582.239c.451.095.912.146,1.363.243.633.136,1.264.281,1.889.449a.852.852,0,0,1,.562,1c-.053.223-.146.229-.316.223-.283-.014-.566-.016-.846-.018-.117,0-.142-.045-.095-.152a.646.646,0,0,0,.059-.239c0-.04-.063-.1-.107-.113-.443-.1-.888-.2-1.333-.279-.312-.063-.627-.113-.939-.174-.378-.073-.751-.152-1.129-.229C201.386,13.773,201.321,13.767,201.22,13.754Z" transform="translate(-1737.765 4339.717)"/><path d="M113.647,88.264l.469.061.316-3.221-2.634-.257c-.107,1.092-.212,2.156-.316,3.219l.892.083q.081-.791.166-1.673l.759.065c-.087.888-.174,1.78-.265,2.705l-1.024-.125a8.33,8.33,0,0,1-.888-.121.627.627,0,0,1-.465-.668c.036-.475.089-.947.129-1.422.026-.342.032-.686.065-1.028s.087-.69.14-1.036c.03-.2.075-.4.111-.583.063-.348.344-.431.623-.457a4.2,4.2,0,0,1,.751.053l.749.061c.136.012.275.026.411.042a8.9,8.9,0,0,1,.922.119c.623.146.647.291.66.775a9.72,9.72,0,0,1-.1,1.145c-.028.322-.051.645-.083.967-.02.229-.049.457-.075.686a3.737,3.737,0,0,0-.047.51,1.689,1.689,0,0,1-.16.825.672.672,0,0,1-.593.352h-.081c-.308,0-.4-.1-.38-.415a2.459,2.459,0,0,0-.01-.318C113.689,88.5,113.663,88.407,113.647,88.264Z" transform="translate(-1666.77 4282.776)"/><path d="M156.408,166.877l1.058,2.175a.412.412,0,0,1-.134,0c-.344-.162-.682-.34-1.03-.492-.235-.1-.255-.338-.338-.522-.249-.542-.461-1.1-.688-1.653a.214.214,0,0,0-.081-.1c-.251-.121-.5-.239-.759-.346a.168.168,0,0,0-.146.069c-.2.437-.4.878-.605,1.337-.293-.129-.581-.251-.862-.386-.03-.014-.047-.113-.03-.152.308-.664.627-1.325.935-1.989q.372-.791.722-1.6c.061-.144.131-.168.265-.1.554.269,1.111.53,1.669.791.637.307,1.283.593,1.908.927a.628.628,0,0,1,.31.922c-.172.358-.32.73-.492,1.088a.649.649,0,0,1-.631.411,2.543,2.543,0,0,1-.662-.2,3.428,3.428,0,0,1-.378-.2Zm-1.248-2.725c-.14.3-.277.605-.419.906-.059.129-.034.2.107.249.318.131.627.283.939.427.382.178.761.364,1.147.534a.307.307,0,0,0,.431-.138,3.234,3.234,0,0,0,.253-.583.318.318,0,0,0-.1-.281c-.457-.239-.923-.455-1.384-.674C155.807,164.443,155.483,164.3,155.16,164.152Z" transform="translate(-1700.569 4219.185)"/><path d="M214.5,166.6c.172-.073.326-.132.473-.2.247-.127.463.014.682.075q1.139.32,2.272.659c.488.146.973.307,1.461.457a.634.634,0,0,0,.164,0c-.342-.868-.678-1.722-1.022-2.591l.874-.35c.52,1.309,1.038,2.618,1.566,3.955a2.492,2.492,0,0,1-.625.273,1.535,1.535,0,0,1-.55-.152c-.821-.243-1.643-.483-2.464-.728-.409-.123-.813-.253-1.222-.378a.709.709,0,0,0-.146-.01c.016.045.028.089.044.132l.71,1.833c.063.168.136.332.184.506a.2.2,0,0,1-.065.186c-.214.091-.447.142-.655.243-.121.059-.121.01-.15-.069q-.348-.87-.7-1.736c-.279-.7-.554-1.4-.831-2.1C214.5,166.592,214.51,166.584,214.5,166.6Z" transform="translate(-1750.08 4217.919)"/><path d="M267.605,115.937c-.2.651-.4,1.3-.593,1.962.3.1.593.21.91.3.024,0,.095-.075.111-.125.129-.4.247-.791.37-1.187.2-.651.417-1.3.607-1.956.045-.156.125-.113.21-.091a3.382,3.382,0,0,1,.483.142.21.21,0,0,1,.083.186c-.168.544-.354,1.082-.524,1.626-.186.593-.36,1.187-.538,1.78-.085.283-.168.566-.259.87L264.39,118.2c.17-.581.33-1.165.508-1.74.225-.726.467-1.448.7-2.175a1.051,1.051,0,0,0,.055-.245c.018-.218.16-.214.307-.17s.324.121.488.182c-.336,1.1-.676,2.211-1.022,3.348.251.083.512.172.775.253.15.045.152-.109.172-.172.162-.518.31-1.042.457-1.566.04-.142.079-.221.257-.14A3.4,3.4,0,0,0,267.605,115.937Z" transform="translate(-1790.104 4258.673)"/><path d="M268.38,82.232l.767-.095c.14,1.143.283,2.288.429,3.486l.91-.1c-.081-.688-.162-1.363-.241-2.035l.726-.107c.087.688.17,1.364.257,2.055.314-.049.625-.095.935-.15.036,0,.091-.069.087-.1-.018-.162-.053-.32-.079-.481-.022-.129-.04-.255-.055-.384-.042-.32-.087-.639-.121-.959-.04-.384-.065-.771-.1-1.155-.014-.136-.046-.271-.077-.451l.791-.1c.032.2.067.4.1.577s.051.382.077.572c.016.123.036.243.047.366.049.494.087.989.146,1.481.044.378.115.751.172,1.127.018.115.036.231.047.35s-.095.134-.186.146l-.9.109c-.267.03-.534.049-.8.085s-.566.087-.848.129c-.129.02-.257.03-.386.045-.31.034-.619.063-.927.1-.15.022-.225-.061-.241-.251-.024-.3-.071-.593-.1-.9-.018-.17-.02-.34-.042-.51s-.057-.314-.085-.473c-.02-.121-.042-.243-.051-.364-.038-.384-.061-.769-.1-1.151C268.483,82.821,268.427,82.538,268.38,82.232Z" transform="translate(-1793.305 4284.499)"/><path d="M166.869,11.81l.237.846-1.7.473a7.073,7.073,0,0,1-.791.221c-.142.024-.136.111-.119.17.174.635.364,1.266.542,1.9.156.552.3,1.105.457,1.665l-1.349.374c-.342-1.226-.684-2.46-1.028-3.694l-2.373.643c-.261.069-.257.069-.31-.186-.04-.2-.1-.4-.148-.593Z" transform="translate(-1706.59 4340.535)"/><path d="M118.678,121.531c.129.328.257.659.4,1-.617.225-1.236.449-1.853.678-.409.152-.815.322-1.226.471a.989.989,0,0,1-.836.026.835.835,0,0,1-.368-.477c-.21-.494-.4-1-.577-1.509-.2-.542-.376-1.092-.593-1.627a.767.767,0,0,1,.506-1.105c.678-.267,1.365-.514,2.047-.765.338-.125.688-.22,1.011-.376.136-.065.138.028.156.067.1.257.2.516.279.777.01.032-.045.109-.087.125-.459.186-.918.368-1.384.54-.413.156-.831.3-1.246.449a1.519,1.519,0,0,1-.334.131c-.2.022-.132.158-.1.239.3.791.609,1.6.912,2.4.044.113.085.176.225.121.5-.2.989-.38,1.493-.566l1.428-.53Z" transform="translate(-1669.081 4255.484)"/><path d="M128.787,155.867c-.253-.287-.5-.556-.728-.833a.225.225,0,0,1-.016-.174,6.7,6.7,0,0,1,.218-.7.324.324,0,0,0-.093-.4c-.221-.227-.447-.453-.664-.686-.289-.308-.572-.623-.856-.935a.789.789,0,0,1-.053-.1c-.069-.1-.134-.186-.293-.138-.277.081-.56.142-.842.2a.2.2,0,0,1-.152-.053c-.083-.081-.146-.18-.221-.267-.117-.138-.237-.275-.4-.443.2-.047.366-.093.536-.129q.564-.119,1.131-.231c.293-.057.593-.109.884-.166.358-.071.718-.142,1.076-.22s.7-.156,1.046-.235c.18-.042.281.085.384.2.133.136.253.283.384.421a.15.15,0,0,1,.038.2c-.158.457-.283.925-.419,1.384-.172.593-.342,1.187-.514,1.768C129.1,154.84,128.942,155.346,128.787,155.867Zm-.162-2.769c.2-.605.384-1.171.57-1.736.014-.042.02-.087.03-.131a.916.916,0,0,0-.127.012l-1.78.439Z" transform="translate(-1678.03 4229.393)"/><path d="M184.462,177.517c-.2.3-.376.593-.562.872a.111.111,0,0,1-.089.044c-.318-.02-.637-.045-.961-.071.267-.4.546-.819.821-1.238.31-.475.615-.951.927-1.426s.623-.937.933-1.408c.018-.024.034-.069.049-.069.267,0,.534.03.791.024.166,0,.227.095.291.212.4.71.791,1.418,1.187,2.13.273.5.536,1.011.8,1.515.085.16.174.318.295.538l-1.187-.067c-.129-.261-.271-.538-.4-.821a.233.233,0,0,0-.239-.152c-.581-.018-1.163-.057-1.746-.079C185.055,177.509,184.756,177.517,184.462,177.517Zm2.422-.7-.916-1.794-1.024,1.726Z" transform="translate(-1724.689 4210.242)"/><path d="M248.6,140.69c.2.15.366.283.53.431a.186.186,0,0,1-.014.172c-.216.249-.445.488-.666.736-.184.2-.364.411-.542.619-.061.073-.089.125.04.186a1.582,1.582,0,0,1,.344.279c.358.322.71.649,1.07.969q.447.4.906.791a2.748,2.748,0,0,0,.229.156l-.7.791-2.62-2.274c-.283.312-.566.619-.84.931-.144.162-.273.34-.413.5-.089.1-.166.091-.261-.018a5.142,5.142,0,0,0-.413-.378c.251-.3.494-.611.751-.908.221-.257.463-.5.684-.751s.415-.5.623-.755c.1-.119.2-.235.309-.35.221-.245.449-.486.67-.734C248.39,140.961,248.493,140.826,248.6,140.69Z" transform="translate(-1774.749 4237.142)"/><path d="M243.68,35.57c.463.32.918.617,1.353.941.285.216.548.463.811.706.445.415.906.819,1.319,1.264a12.875,12.875,0,0,1,.967,1.228c.352.486.7.989,1.01,1.491.271.441.5.912.734,1.374a.176.176,0,0,1-.063.16c-.134.075-.326.218-.413.172-.117-.059-.146-.275-.229-.415-.435-.748-.864-1.5-1.323-2.233a6.7,6.7,0,0,0-.635-.791c-.212-.247-.433-.484-.651-.726s-.4-.471-.615-.674c-.35-.318-.716-.619-1.09-.908q-.666-.518-1.361-1c-.1-.073-.121-.119-.059-.214Z" transform="translate(-1773.264 4321.474)"/><path d="M133.462,36.23c-.081.067-.15.134-.227.2-.415.3-.84.593-1.244.9-.322.251-.621.534-.929.807a8.327,8.327,0,0,0-.662.593c-.318.352-.6.734-.914,1.092A11.649,11.649,0,0,0,128.2,41.67c-.233.4-.431.829-.641,1.246-.071.138-.156.2-.31.121-.35-.166-.36-.176-.182-.5.293-.538.579-1.078.9-1.6.249-.407.53-.791.817-1.175.245-.324.506-.639.779-.939.415-.455.823-.925,1.279-1.335s.989-.791,1.5-1.161c.239-.18.492-.34.74-.506.032-.02.1-.036.109-.022C133.278,35.933,133.361,36.072,133.462,36.23Z" transform="translate(-1679.847 4321.294)"/><path d="M189.877,90.85a7.133,7.133,0,0,0,.15.836,1.677,1.677,0,0,0,.577.933,2.471,2.471,0,0,0,.579.273,1.157,1.157,0,0,0,.344.047,2.12,2.12,0,0,0,1.309-.417,2.864,2.864,0,0,0,.833-.953c.1-.17.2-.338.3-.508.273.154.241.479.085.728a6.6,6.6,0,0,1-1.171,1.321,4.256,4.256,0,0,1-1.111.724,2.535,2.535,0,0,1-1.477.233,1.744,1.744,0,0,1-1.169-.7,2.588,2.588,0,0,1-.506-1.167,2.321,2.321,0,0,1-.028-1.05,7.441,7.441,0,0,0,.131-.819,4.467,4.467,0,0,1,.484-1.384c.247-.449.492-.9.769-1.333a6.253,6.253,0,0,1,.573-.684,6.331,6.331,0,0,1,.433-.486,3.757,3.757,0,0,1,1.657-.975,1.473,1.473,0,0,1,1.187.156.791.791,0,0,1,.34.621,4.632,4.632,0,0,1-.046.922,2.5,2.5,0,0,1-.5,1.155,6.571,6.571,0,0,1-.771.882,9.576,9.576,0,0,1-1.187.918,5.79,5.79,0,0,1-1.544.664Zm3.213-3.281a1.843,1.843,0,0,0-.148-.57,1.157,1.157,0,0,0-1.317-.35,1.977,1.977,0,0,0-.815.664,4.089,4.089,0,0,0-.7,1.444c-.073.285-.15.57-.2.858a.239.239,0,0,0,.148.184,3.192,3.192,0,0,0,.777,0,3.06,3.06,0,0,0,.882-.255,2.666,2.666,0,0,0,.961-.791A2.191,2.191,0,0,0,193.091,87.569Z" transform="translate(-1729.258 4281.494)"/></g></svg>